<svg width="461" height="22" viewBox="0 0 461 22" fill="none" xmlns="http://www.w3.org/2000/svg">
<path d="M14.7679 10.9778H11.2582C11.1941 10.5238 11.0632 10.1205 10.8656 9.76788C10.6679 9.40997 10.4142 9.10547 10.1043 8.8544C9.7945 8.60332 9.43659 8.41101 9.03059 8.27746C8.62994 8.14391 8.19457 8.07713 7.72447 8.07713C6.87509 8.07713 6.13522 8.28814 5.50486 8.71016C4.8745 9.12684 4.38571 9.73583 4.03848 10.5371C3.69125 11.3331 3.51763 12.3 3.51763 13.4378C3.51763 14.6077 3.69125 15.5907 4.03848 16.3866C4.39105 17.1826 4.88252 17.7836 5.51287 18.1896C6.14323 18.5956 6.87242 18.7986 7.70043 18.7986C8.16519 18.7986 8.59522 18.7371 8.99053 18.6143C9.39118 18.4914 9.74642 18.3124 10.0563 18.0774C10.3661 17.837 10.6225 17.5459 10.8255 17.204C11.0339 16.8621 11.1781 16.4721 11.2582 16.0341L14.7679 16.0501C14.6771 16.8033 14.4501 17.5298 14.0868 18.2296C13.7289 18.9241 13.2454 19.5464 12.6365 20.0967C12.0328 20.6416 11.3116 21.0743 10.4729 21.3948C9.63958 21.71 8.69672 21.8676 7.64434 21.8676C6.18063 21.8676 4.87183 21.5363 3.71796 20.8739C2.56942 20.2115 1.66128 19.2526 0.993526 17.9973C0.331116 16.7419 -8.95212e-05 15.2221 -8.95212e-05 13.4378C-8.95212e-05 11.6483 0.336458 10.1258 1.00955 8.87042C1.68265 7.61505 2.59613 6.65883 3.75001 6.00176C4.90388 5.33935 6.20199 5.00814 7.64434 5.00814C8.59522 5.00814 9.47665 5.14169 10.2886 5.40879C11.106 5.6759 11.8298 6.06586 12.4602 6.5787C13.0905 7.08619 13.6034 7.70853 13.9987 8.44573C14.3993 9.18293 14.6557 10.027 14.7679 10.9778ZM32.9644 13.4378C32.9644 15.2274 32.6252 16.7499 31.9467 18.0053C31.2736 19.2606 30.3548 20.2195 29.1902 20.882C28.031 21.539 26.7276 21.8676 25.2799 21.8676C23.8215 21.8676 22.5127 21.5363 21.3535 20.8739C20.1943 20.2115 19.2781 19.2526 18.605 17.9973C17.9319 16.7419 17.5954 15.2221 17.5954 13.4378C17.5954 11.6483 17.9319 10.1258 18.605 8.87042C19.2781 7.61505 20.1943 6.65883 21.3535 6.00176C22.5127 5.33935 23.8215 5.00814 25.2799 5.00814C26.7276 5.00814 28.031 5.33935 29.1902 6.00176C30.3548 6.65883 31.2736 7.61505 31.9467 8.87042C32.6252 10.1258 32.9644 11.6483 32.9644 13.4378ZM29.4467 13.4378C29.4467 12.2786 29.273 11.301 28.9258 10.5051C28.5839 9.70912 28.1005 9.10547 27.4754 8.69414C26.8504 8.2828 26.1186 8.07713 25.2799 8.07713C24.4412 8.07713 23.7093 8.2828 23.0843 8.69414C22.4593 9.10547 21.9732 9.70912 21.6259 10.5051C21.284 11.301 21.1131 12.2786 21.1131 13.4378C21.1131 14.5971 21.284 15.5747 21.6259 16.3706C21.9732 17.1666 22.4593 17.7702 23.0843 18.1816C23.7093 18.5929 24.4412 18.7986 25.2799 18.7986C26.1186 18.7986 26.8504 18.5929 27.4754 18.1816C28.1005 17.7702 28.5839 17.1666 28.9258 16.3706C29.273 15.5747 29.4467 14.5971 29.4467 13.4378ZM36.1624 21.6432V5.23251H42.7331C43.9404 5.23251 44.9474 5.41147 45.754 5.76938C46.5607 6.1273 47.167 6.6241 47.573 7.2598C47.979 7.89016 48.182 8.61668 48.182 9.43935C48.182 10.0804 48.0538 10.644 47.7974 11.1301C47.5409 11.6109 47.1884 12.0062 46.7396 12.316C46.2962 12.6205 45.7888 12.8369 45.2172 12.9651V13.1253C45.8422 13.152 46.4271 13.3283 46.972 13.6542C47.5222 13.9801 47.9683 14.4368 48.3102 15.0244C48.6521 15.6067 48.823 16.3012 48.823 17.1078C48.823 17.9786 48.6067 18.7558 48.174 19.4396C47.7466 20.118 47.1136 20.6549 46.2749 21.0502C45.4362 21.4455 44.4025 21.6432 43.1738 21.6432H36.1624ZM39.6321 18.8066H42.4607C43.4276 18.8066 44.1327 18.6223 44.5761 18.2537C45.0195 17.8797 45.2412 17.3829 45.2412 16.7633C45.2412 16.3092 45.1317 15.9085 44.9127 15.5613C44.6936 15.2141 44.3811 14.9416 43.9751 14.744C43.5745 14.5463 43.0964 14.4475 42.5408 14.4475H39.6321V18.8066ZM39.6321 12.0997H42.2043C42.6797 12.0997 43.1017 12.0169 43.4703 11.8513C43.8443 11.6803 44.1381 11.4399 44.3518 11.1301C44.5708 10.8203 44.6803 10.449 44.6803 10.0163C44.6803 9.42332 44.4693 8.94521 44.0473 8.58195C43.6306 8.2187 43.0376 8.03707 42.2684 8.03707H39.6321V12.0997ZM51.7086 21.6432V5.23251H62.7666V8.09316H55.1782V12.0035H62.1976V14.8642H55.1782V18.7825H62.7986V21.6432H51.7086ZM66.1529 21.6432V5.23251H72.6275C73.8668 5.23251 74.9245 5.4542 75.8006 5.89759C76.682 6.33563 77.3525 6.95798 77.8119 7.76462C78.2766 8.56593 78.509 9.50879 78.509 10.5932C78.509 11.683 78.274 12.6205 77.8039 13.4058C77.3338 14.1857 76.6527 14.784 75.7605 15.2007C74.8738 15.6174 73.8 15.8257 72.5393 15.8257H68.2043V13.0372H71.9784C72.6408 13.0372 73.191 12.9464 73.6291 12.7648C74.0671 12.5831 74.393 12.3107 74.6067 11.9474C74.8257 11.5842 74.9352 11.1328 74.9352 10.5932C74.9352 10.0483 74.8257 9.58892 74.6067 9.21498C74.393 8.84104 74.0645 8.55791 73.6211 8.3656C73.183 8.16795 72.6301 8.06912 71.9624 8.06912H69.6226V21.6432H66.1529ZM75.0153 14.175L79.094 21.6432H75.2637L71.2733 14.175H75.0153ZM80.9639 8.09316V5.23251H94.4418V8.09316H89.4176V21.6432H85.988V8.09316H80.9639ZM107.426 5.23251H110.895V15.8898C110.895 17.0864 110.61 18.1335 110.038 19.0309C109.472 19.9284 108.678 20.6282 107.658 21.1304C106.638 21.6272 105.449 21.8756 104.092 21.8756C102.73 21.8756 101.539 21.6272 100.519 21.1304C99.4982 20.6282 98.7049 19.9284 98.1387 19.0309C97.5724 18.1335 97.2893 17.0864 97.2893 15.8898V5.23251H100.759V15.5934C100.759 16.2184 100.895 16.7739 101.168 17.2601C101.445 17.7462 101.835 18.1281 102.337 18.4059C102.84 18.6837 103.425 18.8226 104.092 18.8226C104.765 18.8226 105.35 18.6837 105.847 18.4059C106.349 18.1281 106.737 17.7462 107.009 17.2601C107.287 16.7739 107.426 16.2184 107.426 15.5934V5.23251ZM114.378 21.6432V5.23251H120.852C122.092 5.23251 123.15 5.4542 124.026 5.89759C124.907 6.33563 125.577 6.95798 126.037 7.76462C126.502 8.56593 126.734 9.50879 126.734 10.5932C126.734 11.683 126.499 12.6205 126.029 13.4058C125.559 14.1857 124.878 14.784 123.986 15.2007C123.099 15.6174 122.025 15.8257 120.764 15.8257H116.429V13.0372H120.203C120.866 13.0372 121.416 12.9464 121.854 12.7648C122.292 12.5831 122.618 12.3107 122.832 11.9474C123.051 11.5842 123.16 11.1328 123.16 10.5932C123.16 10.0483 123.051 9.58892 122.832 9.21498C122.618 8.84104 122.289 8.55791 121.846 8.3656C121.408 8.16795 120.855 8.06912 120.187 8.06912H117.848V21.6432H114.378ZM123.24 14.175L127.319 21.6432H123.489L119.498 14.175H123.24ZM132.642 21.6432H128.924L134.59 5.23251H139.061L144.718 21.6432H141L136.889 8.9826H136.761L132.642 21.6432ZM132.41 15.1927H141.192V17.9011H132.41V15.1927ZM153.172 21.6432V5.23251H164.037V8.09316H156.641V12.0035H163.316V14.8642H156.641V21.6432H153.172ZM182.079 13.4378C182.079 15.2274 181.74 16.7499 181.062 18.0053C180.389 19.2606 179.47 20.2195 178.305 20.882C177.146 21.539 175.843 21.8676 174.395 21.8676C172.937 21.8676 171.628 21.5363 170.469 20.8739C169.309 20.2115 168.393 19.2526 167.72 17.9973C167.047 16.7419 166.71 15.2221 166.71 13.4378C166.71 11.6483 167.047 10.1258 167.72 8.87042C168.393 7.61505 169.309 6.65883 170.469 6.00176C171.628 5.33935 172.937 5.00814 174.395 5.00814C175.843 5.00814 177.146 5.33935 178.305 6.00176C179.47 6.65883 180.389 7.61505 181.062 8.87042C181.74 10.1258 182.079 11.6483 182.079 13.4378ZM178.562 13.4378C178.562 12.2786 178.388 11.301 178.041 10.5051C177.699 9.70912 177.216 9.10547 176.591 8.69414C175.966 8.2828 175.234 8.07713 174.395 8.07713C173.556 8.07713 172.824 8.2828 172.199 8.69414C171.574 9.10547 171.088 9.70912 170.741 10.5051C170.399 11.301 170.228 12.2786 170.228 13.4378C170.228 14.5971 170.399 15.5747 170.741 16.3706C171.088 17.1666 171.574 17.7702 172.199 18.1816C172.824 18.5929 173.556 18.7986 174.395 18.7986C175.234 18.7986 175.966 18.5929 176.591 18.1816C177.216 17.7702 177.699 17.1666 178.041 16.3706C178.388 15.5747 178.562 14.5971 178.562 13.4378ZM183.903 8.09316V5.23251H197.381V8.09316H192.357V21.6432H188.927V8.09316H183.903ZM214.56 13.4378C214.56 15.2274 214.221 16.7499 213.542 18.0053C212.869 19.2606 211.95 20.2195 210.786 20.882C209.627 21.539 208.323 21.8676 206.876 21.8676C205.417 21.8676 204.108 21.5363 202.949 20.8739C201.79 20.2115 200.874 19.2526 200.201 17.9973C199.528 16.7419 199.191 15.2221 199.191 13.4378C199.191 11.6483 199.528 10.1258 200.201 8.87042C200.874 7.61505 201.79 6.65883 202.949 6.00176C204.108 5.33935 205.417 5.00814 206.876 5.00814C208.323 5.00814 209.627 5.33935 210.786 6.00176C211.95 6.65883 212.869 7.61505 213.542 8.87042C214.221 10.1258 214.56 11.6483 214.56 13.4378ZM211.042 13.4378C211.042 12.2786 210.869 11.301 210.521 10.5051C210.18 9.70912 209.696 9.10547 209.071 8.69414C208.446 8.2828 207.714 8.07713 206.876 8.07713C206.037 8.07713 205.305 8.2828 204.68 8.69414C204.055 9.10547 203.569 9.70912 203.222 10.5051C202.88 11.301 202.709 12.2786 202.709 13.4378C202.709 14.5971 202.88 15.5747 203.222 16.3706C203.569 17.1666 204.055 17.7702 204.68 18.1816C205.305 18.5929 206.037 18.7986 206.876 18.7986C207.714 18.7986 208.446 18.5929 209.071 18.1816C209.696 17.7702 210.18 17.1666 210.521 16.3706C210.869 15.5747 211.042 14.5971 211.042 13.4378ZM228.64 10.5371C228.528 10.1472 228.37 9.8026 228.167 9.50345C227.964 9.19896 227.716 8.94254 227.422 8.7342C227.133 8.52052 226.802 8.35759 226.428 8.24541C226.06 8.13322 225.651 8.07713 225.202 8.07713C224.363 8.07713 223.626 8.28547 222.991 8.70215C222.36 9.11883 221.869 9.72514 221.516 10.5211C221.164 11.3117 220.987 12.2786 220.987 13.4218C220.987 14.565 221.161 15.5373 221.508 16.3386C221.855 17.1399 222.347 17.7515 222.983 18.1735C223.618 18.5902 224.369 18.7986 225.234 18.7986C226.019 18.7986 226.69 18.6597 227.245 18.3819C227.806 18.0988 228.234 17.7008 228.528 17.1879C228.827 16.6751 228.976 16.0688 228.976 15.369L229.681 15.4732H225.451V12.8609H232.318V14.9283C232.318 16.3706 232.013 17.61 231.404 18.6463C230.795 19.6773 229.957 20.4733 228.888 21.0342C227.82 21.5898 226.596 21.8676 225.218 21.8676C223.68 21.8676 222.328 21.5283 221.164 20.8499C219.999 20.1661 219.091 19.1965 218.439 17.9412C217.793 16.6805 217.47 15.1847 217.47 13.4539C217.47 12.1237 217.662 10.9378 218.047 9.89609C218.436 8.84905 218.981 7.96228 219.681 7.23576C220.381 6.50925 221.196 5.95635 222.125 5.57707C223.055 5.19778 224.062 5.00814 225.146 5.00814C226.076 5.00814 226.941 5.14436 227.742 5.41681C228.544 5.68391 229.254 6.06319 229.874 6.55466C230.499 7.04612 231.009 7.63107 231.404 8.30951C231.8 8.9826 232.053 9.72514 232.165 10.5371H228.64ZM235.552 21.6432V5.23251H242.026C243.266 5.23251 244.323 5.4542 245.2 5.89759C246.081 6.33563 246.751 6.95798 247.211 7.76462C247.676 8.56593 247.908 9.50879 247.908 10.5932C247.908 11.683 247.673 12.6205 247.203 13.4058C246.733 14.1857 246.052 14.784 245.159 15.2007C244.273 15.6174 243.199 15.8257 241.938 15.8257H237.603V13.0372H241.377C242.04 13.0372 242.59 12.9464 243.028 12.7648C243.466 12.5831 243.792 12.3107 244.006 11.9474C244.225 11.5842 244.334 11.1328 244.334 10.5932C244.334 10.0483 244.225 9.58892 244.006 9.21498C243.792 8.84104 243.463 8.55791 243.02 8.3656C242.582 8.16795 242.029 8.06912 241.361 8.06912H239.022V21.6432H235.552ZM244.414 14.175L248.493 21.6432H244.663L240.672 14.175H244.414ZM253.816 21.6432H250.098L255.764 5.23251H260.235L265.892 21.6432H262.174L258.063 8.9826H257.935L253.816 21.6432ZM253.584 15.1927H262.366V17.9011H253.584V15.1927ZM256.773 3.64593L258.472 7.10841e-07H261.629L259.185 3.64593H256.773ZM268.495 21.6432V5.23251H279.361V8.09316H271.965V12.0035H278.64V14.8642H271.965V21.6432H268.495ZM285.792 5.23251V21.6432H282.322V5.23251H285.792ZM303.754 10.9778H300.245C300.18 10.5238 300.05 10.1205 299.852 9.76788C299.654 9.40997 299.4 9.10547 299.091 8.8544C298.781 8.60332 298.423 8.41101 298.017 8.27746C297.616 8.14391 297.181 8.07713 296.711 8.07713C295.861 8.07713 295.122 8.28814 294.491 8.71016C293.861 9.12684 293.372 9.73583 293.025 10.5371C292.678 11.3331 292.504 12.3 292.504 13.4378C292.504 14.6077 292.678 15.5907 293.025 16.3866C293.377 17.1826 293.869 17.7836 294.499 18.1896C295.13 18.5956 295.859 18.7986 296.687 18.7986C297.151 18.7986 297.582 18.7371 297.977 18.6143C298.377 18.4914 298.733 18.3124 299.043 18.0774C299.352 17.837 299.609 17.5459 299.812 17.204C300.02 16.8621 300.164 16.4721 300.245 16.0341L303.754 16.0501C303.663 16.8033 303.436 17.5298 303.073 18.2296C302.715 18.9241 302.232 19.5464 301.623 20.0967C301.019 20.6416 300.298 21.0743 299.459 21.3948C298.626 21.71 297.683 21.8676 296.631 21.8676C295.167 21.8676 293.858 21.5363 292.704 20.8739C291.556 20.2115 290.648 19.2526 289.98 17.9973C289.317 16.7419 288.986 15.2221 288.986 13.4378C288.986 11.6483 289.323 10.1258 289.996 8.87042C290.669 7.61505 291.582 6.65883 292.736 6.00176C293.89 5.33935 295.188 5.00814 296.631 5.00814C297.582 5.00814 298.463 5.14169 299.275 5.40879C300.092 5.6759 300.816 6.06586 301.446 6.5787C302.077 7.08619 302.59 7.70853 302.985 8.44573C303.386 9.18293 303.642 10.027 303.754 10.9778ZM309.39 21.6432H305.672L311.337 5.23251H315.809L321.466 21.6432H317.748L313.637 8.9826H313.509L309.39 21.6432ZM309.158 15.1927H317.94V17.9011H309.158V15.1927ZM335.737 21.6432H329.919V5.23251H335.785C337.436 5.23251 338.857 5.56104 340.048 6.21811C341.239 6.86984 342.155 7.80736 342.796 9.03068C343.443 10.254 343.766 11.7177 343.766 13.4218C343.766 15.1313 343.443 16.6003 342.796 17.829C342.155 19.0577 341.234 20.0005 340.032 20.6576C338.835 21.3147 337.404 21.6432 335.737 21.6432ZM333.389 18.6704H335.593C336.618 18.6704 337.481 18.4887 338.181 18.1255C338.886 17.7569 339.415 17.1879 339.767 16.4187C340.125 15.6441 340.304 14.6451 340.304 13.4218C340.304 12.2092 340.125 11.2182 339.767 10.449C339.415 9.67974 338.889 9.11348 338.189 8.75023C337.489 8.38697 336.626 8.20534 335.601 8.20534H333.389V18.6704ZM346.964 21.6432V5.23251H358.022V8.09316H350.434V12.0035H357.453V14.8642H350.434V18.7825H358.054V21.6432H346.964ZM367.259 21.6432V5.23251H378.317V8.09316H370.728V12.0035H377.748V14.8642H370.728V18.7825H378.349V21.6432H367.259ZM384.668 5.23251L388.634 17.7008H388.787L392.761 5.23251H396.607L390.95 21.6432H386.479L380.814 5.23251H384.668ZM399.21 21.6432V5.23251H410.268V8.09316H402.68V12.0035H409.699V14.8642H402.68V18.7825H410.3V21.6432H399.21ZM427.381 5.23251V21.6432H424.384L417.245 11.3144H417.124V21.6432H413.655V5.23251H416.7L423.783 15.5533H423.927V5.23251H427.381ZM430.251 8.09316V5.23251H443.728V8.09316H438.704V21.6432H435.275V8.09316H430.251ZM460.907 13.4378C460.907 15.2274 460.568 16.7499 459.89 18.0053C459.216 19.2606 458.298 20.2195 457.133 20.882C455.974 21.539 454.67 21.8676 453.223 21.8676C451.764 21.8676 450.456 21.5363 449.296 20.8739C448.137 20.2115 447.221 19.2526 446.548 17.9973C445.875 16.7419 445.538 15.2221 445.538 13.4378C445.538 11.6483 445.875 10.1258 446.548 8.87042C447.221 7.61505 448.137 6.65883 449.296 6.00176C450.456 5.33935 451.764 5.00814 453.223 5.00814C454.67 5.00814 455.974 5.33935 457.133 6.00176C458.298 6.65883 459.216 7.61505 459.89 8.87042C460.568 10.1258 460.907 11.6483 460.907 13.4378ZM457.39 13.4378C457.39 12.2786 457.216 11.301 456.869 10.5051C456.527 9.70912 456.043 9.10547 455.418 8.69414C454.793 8.2828 454.061 8.07713 453.223 8.07713C452.384 8.07713 451.652 8.2828 451.027 8.69414C450.402 9.10547 449.916 9.70912 449.569 10.5051C449.227 11.301 449.056 12.2786 449.056 13.4378C449.056 14.5971 449.227 15.5747 449.569 16.3706C449.916 17.1666 450.402 17.7702 451.027 18.1816C451.652 18.5929 452.384 18.7986 453.223 18.7986C454.061 18.7986 454.793 18.5929 455.418 18.1816C456.043 17.7702 456.527 17.1666 456.869 16.3706C457.216 15.5747 457.39 14.5971 457.39 13.4378Z" fill="white"/>
</svg>
