<svg width="473" height="44" viewBox="0 0 473 44" fill="none" xmlns="http://www.w3.org/2000/svg">
<path d="M11.7195 4.92325H10.0606C9.96245 4.44609 9.79077 4.0269 9.5455 3.66569C9.30469 3.30448 9.01037 3.00124 8.66253 2.75597C8.31916 2.50624 7.93788 2.31895 7.51869 2.19408C7.0995 2.06922 6.66248 2.00679 6.20762 2.00679C5.37817 2.00679 4.62675 2.21638 3.95338 2.63556C3.28447 3.05475 2.75157 3.67238 2.35468 4.48846C1.96225 5.30453 1.76603 6.30567 1.76603 7.49188C1.76603 8.67808 1.96225 9.67922 2.35468 10.4953C2.75157 11.3114 3.28447 11.929 3.95338 12.3482C4.62675 12.7674 5.37817 12.977 6.20762 12.977C6.66248 12.977 7.0995 12.9145 7.51869 12.7897C7.93788 12.6648 8.31916 12.4797 8.66253 12.2345C9.01037 11.9847 9.30469 11.6793 9.5455 11.3181C9.79077 10.9524 9.96245 10.5332 10.0606 10.0605H11.7195C11.5946 10.7606 11.3672 11.3872 11.0372 11.9402C10.7072 12.4931 10.2969 12.9636 9.80638 13.3516C9.31584 13.7351 8.7651 14.0272 8.15416 14.2278C7.54768 14.4285 6.89883 14.5288 6.20762 14.5288C5.03925 14.5288 4.0002 14.2434 3.09048 13.6726C2.18076 13.1018 1.46502 12.2902 0.943269 11.2378C0.421516 10.1854 0.16064 8.93673 0.16064 7.49188C0.16064 6.04702 0.421516 4.79839 0.943269 3.74596C1.46502 2.69354 2.18076 1.88192 3.09048 1.31112C4.0002 0.740309 5.03925 0.454906 6.20762 0.454906C6.89883 0.454906 7.54768 0.555243 8.15416 0.755917C8.7651 0.956591 9.31584 1.25091 9.80638 1.63888C10.2969 2.02239 10.7072 2.49063 11.0372 3.0436C11.3672 3.59211 11.5946 4.21866 11.7195 4.92325ZM18.988 14.5556C18.0604 14.5556 17.2466 14.3349 16.5465 13.8934C15.8508 13.4519 15.3067 12.8343 14.9143 12.0405C14.5263 11.2467 14.3324 10.3192 14.3324 9.25781C14.3324 8.18755 14.5263 7.2533 14.9143 6.45506C15.3067 5.65682 15.8508 5.03696 16.5465 4.59548C17.2466 4.154 18.0604 3.93326 18.988 3.93326C19.9156 3.93326 20.7272 4.154 21.4228 4.59548C22.123 5.03696 22.667 5.65682 23.055 6.45506C23.4474 7.2533 23.6436 8.18755 23.6436 9.25781C23.6436 10.3192 23.4474 11.2467 23.055 12.0405C22.667 12.8343 22.123 13.4519 21.4228 13.8934C20.7272 14.3349 19.9156 14.5556 18.988 14.5556ZM18.988 13.1375C19.6926 13.1375 20.2723 12.9569 20.7272 12.5957C21.182 12.2345 21.5187 11.7595 21.7372 11.1709C21.9557 10.5823 22.065 9.94456 22.065 9.25781C22.065 8.57106 21.9557 7.93113 21.7372 7.33803C21.5187 6.74492 21.182 6.26554 20.7272 5.89986C20.2723 5.53419 19.6926 5.35135 18.988 5.35135C18.2834 5.35135 17.7037 5.53419 17.2488 5.89986C16.794 6.26554 16.4573 6.74492 16.2388 7.33803C16.0202 7.93113 15.911 8.57106 15.911 9.25781C15.911 9.94456 16.0202 10.5823 16.2388 11.1709C16.4573 11.7595 16.794 12.2345 17.2488 12.5957C17.7037 12.9569 18.2834 13.1375 18.988 13.1375ZM26.8953 14.3416V0.642202H28.474V5.69919H28.6078C28.7237 5.52081 28.8842 5.29338 29.0894 5.0169C29.299 4.73595 29.5977 4.48623 29.9857 4.26771C30.3781 4.04474 30.9088 3.93326 31.5777 3.93326C32.4429 3.93326 33.2054 4.14954 33.8654 4.5821C34.5254 5.01467 35.0405 5.62784 35.4106 6.42162C35.7807 7.21539 35.9658 8.15187 35.9658 9.23105C35.9658 10.3192 35.7807 11.2623 35.4106 12.0606C35.0405 12.8543 34.5276 13.4697 33.8721 13.9068C33.2166 14.3393 32.4607 14.5556 31.6045 14.5556C30.9445 14.5556 30.416 14.4463 30.0192 14.2278C29.6223 14.0049 29.3168 13.7529 29.1027 13.472C28.8887 13.1866 28.7237 12.9502 28.6078 12.7629H28.4205V14.3416H26.8953ZM28.4472 9.2043C28.4472 9.98024 28.5609 10.6648 28.7884 11.2579C29.0158 11.8465 29.348 12.3081 29.785 12.6425C30.2221 12.9725 30.7572 13.1375 31.3904 13.1375C32.0504 13.1375 32.6012 12.9636 33.0426 12.6158C33.4886 12.2635 33.823 11.7908 34.046 11.1977C34.2735 10.6001 34.3872 9.93564 34.3872 9.2043C34.3872 8.48187 34.2757 7.83079 34.0527 7.25107C33.8342 6.66688 33.502 6.20533 33.056 5.86642C32.6145 5.52304 32.0593 5.35135 31.3904 5.35135C30.7483 5.35135 30.2087 5.51412 29.7717 5.83966C29.3346 6.16074 29.0046 6.61114 28.7817 7.19087C28.5587 7.76613 28.4472 8.43728 28.4472 9.2043ZM43.3163 14.5556C42.3263 14.5556 41.4723 14.3371 40.7543 13.9001C40.0408 13.4586 39.4901 12.8432 39.1021 12.0539C38.7186 11.2601 38.5268 10.337 38.5268 9.28457C38.5268 8.23214 38.7186 7.30458 39.1021 6.50189C39.4901 5.69473 40.0297 5.06595 40.7209 4.61555C41.4166 4.16069 42.2282 3.93326 43.1557 3.93326C43.6909 3.93326 44.2193 4.02245 44.7411 4.20082C45.2628 4.3792 45.7377 4.66906 46.1658 5.07041C46.5939 5.4673 46.9351 5.99351 47.1893 6.64905C47.4435 7.30458 47.5706 8.11174 47.5706 9.07051V9.73943H39.6506V8.37484H45.9652C45.9652 7.79512 45.8492 7.27782 45.6173 6.82296C45.3899 6.3681 45.0644 6.00912 44.6407 5.74601C44.2215 5.48291 43.7265 5.35135 43.1557 5.35135C42.527 5.35135 41.9829 5.50743 41.5236 5.81959C41.0687 6.12729 40.7187 6.52864 40.4734 7.02364C40.2281 7.51863 40.1055 8.04931 40.1055 8.61565V9.52537C40.1055 10.3013 40.2393 10.9591 40.5068 11.4987C40.7789 12.0338 41.1557 12.4418 41.6373 12.7228C42.1189 12.9993 42.6786 13.1375 43.3163 13.1375C43.731 13.1375 44.1056 13.0795 44.44 12.9636C44.779 12.8432 45.0711 12.6648 45.3163 12.4285C45.5616 12.1877 45.7511 11.8889 45.8849 11.5321L47.41 11.9602C47.2495 12.4775 46.9797 12.9324 46.6006 13.3248C46.2216 13.7128 45.7533 14.016 45.1959 14.2345C44.6385 14.4486 44.0119 14.5556 43.3163 14.5556ZM50.5998 14.3416V4.06704H52.125V5.61892H52.232C52.4193 5.11055 52.7582 4.69805 53.2487 4.38143C53.7393 4.06481 54.2923 3.9065 54.9077 3.9065C55.0236 3.9065 55.1685 3.90873 55.3424 3.91319C55.5164 3.91765 55.6479 3.92434 55.7371 3.93326V5.53865C55.6836 5.52527 55.561 5.5052 55.3692 5.47845C55.1819 5.44723 54.9835 5.43162 54.7739 5.43162C54.2744 5.43162 53.8285 5.53642 53.436 5.74601C53.0481 5.95115 52.7404 6.23655 52.5129 6.60222C52.29 6.96344 52.1785 7.37593 52.1785 7.83971V14.3416H50.5998ZM63.3484 4.06704V5.40487H58.0239V4.06704H63.3484ZM59.5758 1.60544H61.1544V11.3983C61.1544 11.8443 61.2191 12.1787 61.3484 12.4017C61.4822 12.6202 61.6516 12.7674 61.8568 12.8432C62.0664 12.9145 62.2871 12.9502 62.519 12.9502C62.6929 12.9502 62.8356 12.9413 62.9471 12.9235C63.0586 12.9012 63.1478 12.8833 63.2147 12.8699L63.5357 14.288C63.4287 14.3282 63.2793 14.3683 63.0876 14.4084C62.8958 14.453 62.6528 14.4753 62.3585 14.4753C61.9125 14.4753 61.4755 14.3795 61.0474 14.1877C60.6237 13.9959 60.2714 13.7039 59.9905 13.3114C59.714 12.919 59.5758 12.424 59.5758 11.8264V1.60544ZM72.8261 10.1408V4.06704H74.4047V14.3416H72.8261V12.6024H72.719C72.4782 13.1241 72.1036 13.5678 71.5953 13.9335C71.0869 14.2947 70.4447 14.4753 69.6688 14.4753C69.0266 14.4753 68.4558 14.3349 67.9564 14.0539C67.4569 13.7685 67.0645 13.3404 66.7791 12.7696C66.4937 12.1943 66.351 11.4697 66.351 10.5956V4.06704H67.9296V10.4886C67.9296 11.2378 68.1392 11.8354 68.5584 12.2813C68.982 12.7272 69.5216 12.9502 70.1772 12.9502C70.5696 12.9502 70.9687 12.8499 71.3745 12.6492C71.7848 12.4485 72.1282 12.1408 72.4046 11.7261C72.6856 11.3114 72.8261 10.7829 72.8261 10.1408ZM77.924 14.3416V4.06704H79.4491V5.61892H79.5561C79.7434 5.11055 80.0823 4.69805 80.5729 4.38143C81.0634 4.06481 81.6164 3.9065 82.2318 3.9065C82.3477 3.9065 82.4926 3.90873 82.6666 3.91319C82.8405 3.91765 82.972 3.92434 83.0612 3.93326V5.53865C83.0077 5.52527 82.8851 5.5052 82.6933 5.47845C82.506 5.44723 82.3076 5.43162 82.098 5.43162C81.5985 5.43162 81.1526 5.53642 80.7602 5.74601C80.3722 5.95115 80.0645 6.23655 79.8371 6.60222C79.6141 6.96344 79.5026 7.37593 79.5026 7.83971V14.3416H77.924ZM88.5839 14.5824C87.9328 14.5824 87.3419 14.4597 86.8113 14.2145C86.2806 13.9647 85.8592 13.6057 85.547 13.1375C85.2349 12.6648 85.0788 12.094 85.0788 11.4251C85.0788 10.8364 85.1947 10.3593 85.4266 9.99361C85.6585 9.62348 85.9684 9.33362 86.3564 9.12403C86.7444 8.91443 87.1725 8.75835 87.6407 8.65579C88.1134 8.54876 88.5883 8.46403 89.0655 8.4016C89.6898 8.32133 90.196 8.26113 90.5839 8.22099C90.9764 8.1764 91.2618 8.10282 91.4401 8.00025C91.623 7.89768 91.7144 7.71931 91.7144 7.46512V7.41161C91.7144 6.75161 91.5338 6.23878 91.1726 5.87311C90.8158 5.50743 90.274 5.3246 89.5471 5.3246C88.7935 5.3246 88.2026 5.4896 87.7745 5.81959C87.3464 6.14959 87.0454 6.50189 86.8715 6.87648L85.3731 6.34135C85.6407 5.71703 85.9974 5.23095 86.4434 4.88311C86.8938 4.53082 87.3843 4.28555 87.915 4.14731C88.4501 4.00461 88.9763 3.93326 89.4936 3.93326C89.8236 3.93326 90.2027 3.97339 90.6308 4.05366C91.0633 4.12947 91.4803 4.28778 91.8816 4.52859C92.2874 4.7694 92.6241 5.13284 92.8917 5.61892C93.1593 6.105 93.293 6.75607 93.293 7.57215V14.3416H91.7144V12.9502H91.6341C91.5271 13.1732 91.3487 13.4118 91.099 13.666C90.8493 13.9201 90.517 14.1364 90.1023 14.3148C89.6876 14.4932 89.1814 14.5824 88.5839 14.5824ZM88.8247 13.1643C89.449 13.1643 89.9752 13.0416 90.4033 12.7964C90.8359 12.5511 91.1614 12.2345 91.3799 11.8465C91.6029 11.4585 91.7144 11.0505 91.7144 10.6224V9.17754C91.6475 9.25781 91.5003 9.33139 91.2729 9.39828C91.0499 9.46071 90.7913 9.51646 90.497 9.56551C90.2071 9.6101 89.9239 9.65024 89.6475 9.68591C89.3754 9.71713 89.1547 9.74389 88.9852 9.76618C88.575 9.8197 88.1915 9.90666 87.8347 10.0271C87.4824 10.143 87.197 10.3192 86.9785 10.5555C86.7644 10.7874 86.6574 11.104 86.6574 11.5054C86.6574 12.0539 86.8603 12.4686 87.2661 12.7495C87.6764 13.026 88.1959 13.1643 88.8247 13.1643ZM106.608 14.5556C105.751 14.5556 104.996 14.3393 104.34 13.9068C103.684 13.4697 103.172 12.8543 102.802 12.0606C102.431 11.2623 102.246 10.3192 102.246 9.23105C102.246 8.15187 102.431 7.21539 102.802 6.42162C103.172 5.62784 103.687 5.01467 104.347 4.5821C105.007 4.14954 105.769 3.93326 106.634 3.93326C107.303 3.93326 107.832 4.04474 108.22 4.26771C108.612 4.48623 108.911 4.73595 109.116 5.0169C109.326 5.29338 109.488 5.52081 109.604 5.69919H109.738V0.642202H111.317V14.3416H109.792V12.7629H109.604C109.488 12.9502 109.323 13.1866 109.109 13.472C108.895 13.7529 108.59 14.0049 108.193 14.2278C107.796 14.4463 107.268 14.5556 106.608 14.5556ZM106.822 13.1375C107.455 13.1375 107.99 12.9725 108.427 12.6425C108.864 12.3081 109.196 11.8465 109.424 11.2579C109.651 10.6648 109.765 9.98024 109.765 9.2043C109.765 8.43728 109.653 7.76613 109.43 7.19087C109.207 6.61114 108.877 6.16074 108.44 5.83966C108.003 5.51412 107.464 5.35135 106.822 5.35135C106.153 5.35135 105.595 5.52304 105.149 5.86642C104.708 6.20533 104.376 6.66688 104.153 7.25107C103.934 7.83079 103.825 8.48187 103.825 9.2043C103.825 9.93564 103.936 10.6001 104.159 11.1977C104.387 11.7908 104.721 12.2635 105.163 12.6158C105.609 12.9636 106.162 13.1375 106.822 13.1375ZM119.363 14.5556C118.373 14.5556 117.519 14.3371 116.801 13.9001C116.087 13.4586 115.537 12.8432 115.149 12.0539C114.765 11.2601 114.574 10.337 114.574 9.28457C114.574 8.23214 114.765 7.30458 115.149 6.50189C115.537 5.69473 116.076 5.06595 116.768 4.61555C117.463 4.16069 118.275 3.93326 119.202 3.93326C119.738 3.93326 120.266 4.02245 120.788 4.20082C121.309 4.3792 121.784 4.66906 122.213 5.07041C122.641 5.4673 122.982 5.99351 123.236 6.64905C123.49 7.30458 123.617 8.11174 123.617 9.07051V9.73943H115.697V8.37484H122.012C122.012 7.79512 121.896 7.27782 121.664 6.82296C121.437 6.3681 121.111 6.00912 120.687 5.74601C120.268 5.48291 119.773 5.35135 119.202 5.35135C118.574 5.35135 118.03 5.50743 117.57 5.81959C117.115 6.12729 116.765 6.52864 116.52 7.02364C116.275 7.51863 116.152 8.04931 116.152 8.61565V9.52537C116.152 10.3013 116.286 10.9591 116.554 11.4987C116.826 12.0338 117.202 12.4418 117.684 12.7228C118.166 12.9993 118.725 13.1375 119.363 13.1375C119.778 13.1375 120.152 13.0795 120.487 12.9636C120.826 12.8432 121.118 12.6648 121.363 12.4285C121.608 12.1877 121.798 11.8889 121.932 11.5321L123.457 11.9602C123.296 12.4775 123.026 12.9324 122.647 13.3248C122.268 13.7128 121.8 14.016 121.243 14.2345C120.685 14.4486 120.059 14.5556 119.363 14.5556ZM136.88 14.5556C135.89 14.5556 135.036 14.3371 134.318 13.9001C133.605 13.4586 133.054 12.8432 132.666 12.0539C132.282 11.2601 132.091 10.337 132.091 9.28457C132.091 8.23214 132.282 7.30458 132.666 6.50189C133.054 5.69473 133.593 5.06595 134.285 4.61555C134.98 4.16069 135.792 3.93326 136.719 3.93326C137.255 3.93326 137.783 4.02245 138.305 4.20082C138.827 4.3792 139.301 4.66906 139.73 5.07041C140.158 5.4673 140.499 5.99351 140.753 6.64905C141.007 7.30458 141.134 8.11174 141.134 9.07051V9.73943H133.214V8.37484H139.529C139.529 7.79512 139.413 7.27782 139.181 6.82296C138.954 6.3681 138.628 6.00912 138.204 5.74601C137.785 5.48291 137.29 5.35135 136.719 5.35135C136.091 5.35135 135.547 5.50743 135.087 5.81959C134.632 6.12729 134.282 6.52864 134.037 7.02364C133.792 7.51863 133.669 8.04931 133.669 8.61565V9.52537C133.669 10.3013 133.803 10.9591 134.071 11.4987C134.343 12.0338 134.719 12.4418 135.201 12.7228C135.683 12.9993 136.242 13.1375 136.88 13.1375C137.295 13.1375 137.669 13.0795 138.004 12.9636C138.343 12.8432 138.635 12.6648 138.88 12.4285C139.125 12.1877 139.315 11.8889 139.449 11.5321L140.974 11.9602C140.813 12.4775 140.543 12.9324 140.164 13.3248C139.785 13.7128 139.317 14.016 138.76 14.2345C138.202 14.4486 137.576 14.5556 136.88 14.5556ZM152.252 4.06704L148.453 14.3416H146.848L143.048 4.06704H144.761L147.597 12.2545H147.704L150.54 4.06704H152.252ZM158.904 14.5556C157.914 14.5556 157.06 14.3371 156.342 13.9001C155.628 13.4586 155.078 12.8432 154.69 12.0539C154.306 11.2601 154.114 10.337 154.114 9.28457C154.114 8.23214 154.306 7.30458 154.69 6.50189C155.078 5.69473 155.617 5.06595 156.308 4.61555C157.004 4.16069 157.816 3.93326 158.743 3.93326C159.278 3.93326 159.807 4.02245 160.329 4.20082C160.85 4.3792 161.325 4.66906 161.753 5.07041C162.182 5.4673 162.523 5.99351 162.777 6.64905C163.031 7.30458 163.158 8.11174 163.158 9.07051V9.73943H155.238V8.37484H161.553C161.553 7.79512 161.437 7.27782 161.205 6.82296C160.978 6.3681 160.652 6.00912 160.228 5.74601C159.809 5.48291 159.314 5.35135 158.743 5.35135C158.115 5.35135 157.571 5.50743 157.111 5.81959C156.656 6.12729 156.306 6.52864 156.061 7.02364C155.816 7.51863 155.693 8.04931 155.693 8.61565V9.52537C155.693 10.3013 155.827 10.9591 156.094 11.4987C156.366 12.0338 156.743 12.4418 157.225 12.7228C157.707 12.9993 158.266 13.1375 158.904 13.1375C159.319 13.1375 159.693 13.0795 160.028 12.9636C160.367 12.8432 160.659 12.6648 160.904 12.4285C161.149 12.1877 161.339 11.8889 161.472 11.5321L162.998 11.9602C162.837 12.4775 162.567 12.9324 162.188 13.3248C161.809 13.7128 161.341 14.016 160.784 14.2345C160.226 14.4486 159.6 14.5556 158.904 14.5556ZM167.766 8.16079V14.3416H166.187V4.06704H167.713V5.67243H167.846C168.087 5.15068 168.453 4.73149 168.943 4.41488C169.434 4.0938 170.067 3.93326 170.843 3.93326C171.539 3.93326 172.147 4.07596 172.669 4.36136C173.191 4.64231 173.597 5.07041 173.887 5.64568C174.177 6.21648 174.321 6.93891 174.321 7.81296V14.3416H172.743V7.91998C172.743 7.11283 172.533 6.48405 172.114 6.03365C171.695 5.57878 171.12 5.35135 170.388 5.35135C169.884 5.35135 169.434 5.46061 169.037 5.67912C168.645 5.89763 168.335 6.21648 168.107 6.63567C167.88 7.05485 167.766 7.56323 167.766 8.16079ZM182.302 4.06704V5.40487H176.978V4.06704H182.302ZM178.53 1.60544H180.108V11.3983C180.108 11.8443 180.173 12.1787 180.302 12.4017C180.436 12.6202 180.606 12.7674 180.811 12.8432C181.02 12.9145 181.241 12.9502 181.473 12.9502C181.647 12.9502 181.79 12.9413 181.901 12.9235C182.012 12.9012 182.102 12.8833 182.169 12.8699L182.49 14.288C182.383 14.3282 182.233 14.3683 182.041 14.4084C181.85 14.453 181.607 14.4753 181.312 14.4753C180.866 14.4753 180.429 14.3795 180.001 14.1877C179.578 13.9959 179.225 13.7039 178.944 13.3114C178.668 12.919 178.53 12.424 178.53 11.8264V1.60544ZM189.369 14.5556C188.441 14.5556 187.627 14.3349 186.927 13.8934C186.231 13.4519 185.687 12.8343 185.295 12.0405C184.907 11.2467 184.713 10.3192 184.713 9.25781C184.713 8.18755 184.907 7.2533 185.295 6.45506C185.687 5.65682 186.231 5.03696 186.927 4.59548C187.627 4.154 188.441 3.93326 189.369 3.93326C190.296 3.93326 191.108 4.154 191.803 4.59548C192.504 5.03696 193.048 5.65682 193.436 6.45506C193.828 7.2533 194.024 8.18755 194.024 9.25781C194.024 10.3192 193.828 11.2467 193.436 12.0405C193.048 12.8343 192.504 13.4519 191.803 13.8934C191.108 14.3349 190.296 14.5556 189.369 14.5556ZM189.369 13.1375C190.073 13.1375 190.653 12.9569 191.108 12.5957C191.563 12.2345 191.899 11.7595 192.118 11.1709C192.336 10.5823 192.446 9.94456 192.446 9.25781C192.446 8.57106 192.336 7.93113 192.118 7.33803C191.899 6.74492 191.563 6.26554 191.108 5.89986C190.653 5.53419 190.073 5.35135 189.369 5.35135C188.664 5.35135 188.084 5.53419 187.629 5.89986C187.175 6.26554 186.838 6.74492 186.619 7.33803C186.401 7.93113 186.292 8.57106 186.292 9.25781C186.292 9.94456 186.401 10.5823 186.619 11.1709C186.838 11.7595 187.175 12.2345 187.629 12.5957C188.084 12.9569 188.664 13.1375 189.369 13.1375ZM204.34 6.3681L202.922 6.76945C202.832 6.5331 202.701 6.30344 202.527 6.08047C202.357 5.85304 202.126 5.66574 201.831 5.51858C201.537 5.37142 201.16 5.29784 200.701 5.29784C200.072 5.29784 199.548 5.44277 199.129 5.73263C198.714 6.01804 198.507 6.38148 198.507 6.82296C198.507 7.21539 198.649 7.52532 198.935 7.75275C199.22 7.98018 199.666 8.16971 200.273 8.32133L201.798 8.69592C202.716 8.91889 203.401 9.26004 203.851 9.71936C204.302 10.1742 204.527 10.7606 204.527 11.4786C204.527 12.0672 204.357 12.5935 204.019 13.0572C203.684 13.521 203.216 13.8867 202.614 14.1543C202.012 14.4218 201.312 14.5556 200.513 14.5556C199.465 14.5556 198.598 14.3282 197.911 13.8733C197.225 13.4185 196.79 12.754 196.607 11.88L198.105 11.5054C198.248 12.0583 198.518 12.4731 198.915 12.7495C199.316 13.026 199.84 13.1643 200.487 13.1643C201.222 13.1643 201.807 13.0082 202.239 12.696C202.676 12.3794 202.895 12.0004 202.895 11.5589C202.895 11.2021 202.77 10.9033 202.52 10.6625C202.27 10.4173 201.887 10.2344 201.37 10.114L199.657 9.71267C198.716 9.4897 198.025 9.14409 197.584 8.67585C197.147 8.20316 196.928 7.61228 196.928 6.90323C196.928 6.32351 197.091 5.81067 197.416 5.36473C197.746 4.91879 198.195 4.56872 198.761 4.31454C199.332 4.06035 199.978 3.93326 200.701 3.93326C201.717 3.93326 202.516 4.15623 203.095 4.60217C203.68 5.04811 204.094 5.63676 204.34 6.3681ZM209.886 12.4686L209.779 13.191C209.703 13.6994 209.587 14.2434 209.431 14.8232C209.279 15.4029 209.121 15.9492 208.956 16.462C208.791 16.9748 208.655 17.3829 208.548 17.6861H207.344C207.402 17.4007 207.478 17.0239 207.571 16.5557C207.665 16.0874 207.759 15.5634 207.852 14.9837C207.95 14.4084 208.031 13.8198 208.093 13.2178L208.173 12.4686H209.886ZM223.538 14.5556C222.575 14.5556 221.745 14.3282 221.05 13.8733C220.354 13.4185 219.819 12.7919 219.444 11.9937C219.07 11.1954 218.882 10.2835 218.882 9.25781C218.882 8.2143 219.074 7.29343 219.458 6.4952C219.846 5.6925 220.385 5.06595 221.076 4.61555C221.772 4.16069 222.584 3.93326 223.511 3.93326C224.234 3.93326 224.885 4.06704 225.465 4.33461C226.044 4.60217 226.519 4.97676 226.889 5.45838C227.259 5.94 227.489 6.50189 227.578 7.14404H226C225.879 6.6758 225.612 6.26108 225.197 5.89986C224.787 5.53419 224.234 5.35135 223.538 5.35135C222.923 5.35135 222.383 5.51189 221.919 5.83297C221.46 6.14959 221.101 6.59776 220.842 7.17749C220.588 7.75275 220.461 8.42836 220.461 9.2043C220.461 9.99807 220.586 10.6893 220.836 11.2779C221.09 11.8666 221.447 12.3237 221.906 12.6492C222.37 12.9747 222.914 13.1375 223.538 13.1375C223.948 13.1375 224.321 13.0662 224.655 12.9235C224.99 12.7808 225.273 12.5756 225.505 12.3081C225.737 12.0405 225.902 11.7194 226 11.3448H227.578C227.489 11.9513 227.268 12.4976 226.916 12.9837C226.568 13.4653 226.107 13.8488 225.531 14.1342C224.961 14.4151 224.296 14.5556 223.538 14.5556ZM233.537 14.5824C232.886 14.5824 232.296 14.4597 231.765 14.2145C231.234 13.9647 230.813 13.6057 230.501 13.1375C230.188 12.6648 230.032 12.094 230.032 11.4251C230.032 10.8364 230.148 10.3593 230.38 9.99361C230.612 9.62348 230.922 9.33362 231.31 9.12403C231.698 8.91443 232.126 8.75835 232.594 8.65579C233.067 8.54876 233.542 8.46403 234.019 8.4016C234.643 8.32133 235.15 8.26113 235.538 8.22099C235.93 8.1764 236.215 8.10282 236.394 8.00025C236.577 7.89768 236.668 7.71931 236.668 7.46512V7.41161C236.668 6.75161 236.487 6.23878 236.126 5.87311C235.769 5.50743 235.228 5.3246 234.501 5.3246C233.747 5.3246 233.156 5.4896 232.728 5.81959C232.3 6.14959 231.999 6.50189 231.825 6.87648L230.327 6.34135C230.594 5.71703 230.951 5.23095 231.397 4.88311C231.847 4.53082 232.338 4.28555 232.869 4.14731C233.404 4.00461 233.93 3.93326 234.447 3.93326C234.777 3.93326 235.156 3.97339 235.584 4.05366C236.017 4.12947 236.434 4.28778 236.835 4.52859C237.241 4.7694 237.578 5.13284 237.845 5.61892C238.113 6.105 238.247 6.75607 238.247 7.57215V14.3416H236.668V12.9502H236.588C236.481 13.1732 236.302 13.4118 236.053 13.666C235.803 13.9201 235.471 14.1364 235.056 14.3148C234.641 14.4932 234.135 14.5824 233.537 14.5824ZM233.778 13.1643C234.403 13.1643 234.929 13.0416 235.357 12.7964C235.789 12.5511 236.115 12.2345 236.334 11.8465C236.556 11.4585 236.668 11.0505 236.668 10.6224V9.17754C236.601 9.25781 236.454 9.33139 236.226 9.39828C236.004 9.46071 235.745 9.51646 235.451 9.56551C235.161 9.6101 234.878 9.65024 234.601 9.68591C234.329 9.71713 234.108 9.74389 233.939 9.76618C233.529 9.8197 233.145 9.90666 232.788 10.0271C232.436 10.143 232.151 10.3192 231.932 10.5555C231.718 10.7874 231.611 11.104 231.611 11.5054C231.611 12.0539 231.814 12.4686 232.22 12.7495C232.63 13.026 233.149 13.1643 233.778 13.1643ZM249.034 6.3681L247.616 6.76945C247.526 6.5331 247.395 6.30344 247.221 6.08047C247.051 5.85304 246.82 5.66574 246.525 5.51858C246.231 5.37142 245.854 5.29784 245.395 5.29784C244.766 5.29784 244.242 5.44277 243.823 5.73263C243.408 6.01804 243.201 6.38148 243.201 6.82296C243.201 7.21539 243.343 7.52532 243.629 7.75275C243.914 7.98018 244.36 8.16971 244.967 8.32133L246.492 8.69592C247.41 8.91889 248.095 9.26004 248.545 9.71936C248.996 10.1742 249.221 10.7606 249.221 11.4786C249.221 12.0672 249.051 12.5935 248.713 13.0572C248.378 13.521 247.91 13.8867 247.308 14.1543C246.706 14.4218 246.006 14.5556 245.207 14.5556C244.159 14.5556 243.292 14.3282 242.605 13.8733C241.919 13.4185 241.484 12.754 241.301 11.88L242.799 11.5054C242.942 12.0583 243.212 12.4731 243.609 12.7495C244.01 13.026 244.534 13.1643 245.181 13.1643C245.916 13.1643 246.501 13.0082 246.933 12.696C247.37 12.3794 247.589 12.0004 247.589 11.5589C247.589 11.2021 247.464 10.9033 247.214 10.6625C246.964 10.4173 246.581 10.2344 246.064 10.114L244.351 9.71267C243.41 9.4897 242.719 9.14409 242.278 8.67585C241.841 8.20316 241.622 7.61228 241.622 6.90323C241.622 6.32351 241.785 5.81067 242.11 5.36473C242.44 4.91879 242.889 4.56872 243.455 4.31454C244.026 4.06035 244.672 3.93326 245.395 3.93326C246.411 3.93326 247.21 4.15623 247.789 4.60217C248.374 5.04811 248.788 5.63676 249.034 6.3681ZM255.249 14.5824C254.598 14.5824 254.007 14.4597 253.476 14.2145C252.945 13.9647 252.524 13.6057 252.212 13.1375C251.9 12.6648 251.744 12.094 251.744 11.4251C251.744 10.8364 251.859 10.3593 252.091 9.99361C252.323 9.62348 252.633 9.33362 253.021 9.12403C253.409 8.91443 253.837 8.75835 254.305 8.65579C254.778 8.54876 255.253 8.46403 255.73 8.4016C256.355 8.32133 256.861 8.26113 257.249 8.22099C257.641 8.1764 257.927 8.10282 258.105 8.00025C258.288 7.89768 258.379 7.71931 258.379 7.46512V7.41161C258.379 6.75161 258.199 6.23878 257.837 5.87311C257.481 5.50743 256.939 5.3246 256.212 5.3246C255.458 5.3246 254.867 5.4896 254.439 5.81959C254.011 6.14959 253.71 6.50189 253.536 6.87648L252.038 6.34135C252.305 5.71703 252.662 5.23095 253.108 4.88311C253.558 4.53082 254.049 4.28555 254.58 4.14731C255.115 4.00461 255.641 3.93326 256.158 3.93326C256.488 3.93326 256.867 3.97339 257.295 4.05366C257.728 4.12947 258.145 4.28778 258.546 4.52859C258.952 4.7694 259.289 5.13284 259.556 5.61892C259.824 6.105 259.958 6.75607 259.958 7.57215V14.3416H258.379V12.9502H258.299C258.192 13.1732 258.013 13.4118 257.764 13.666C257.514 13.9201 257.182 14.1364 256.767 14.3148C256.352 14.4932 255.846 14.5824 255.249 14.5824ZM255.489 13.1643C256.114 13.1643 256.64 13.0416 257.068 12.7964C257.501 12.5511 257.826 12.2345 258.045 11.8465C258.268 11.4585 258.379 11.0505 258.379 10.6224V9.17754C258.312 9.25781 258.165 9.33139 257.938 9.39828C257.715 9.46071 257.456 9.51646 257.162 9.56551C256.872 9.6101 256.589 9.65024 256.312 9.68591C256.04 9.71713 255.819 9.74389 255.65 9.76618C255.24 9.8197 254.856 9.90666 254.499 10.0271C254.147 10.143 253.862 10.3192 253.643 10.5555C253.429 10.7874 253.322 11.104 253.322 11.5054C253.322 12.0539 253.525 12.4686 253.931 12.7495C254.341 13.026 254.861 13.1643 255.489 13.1643ZM263.467 14.3416V4.06704H264.992V5.67243H265.126C265.34 5.12392 265.686 4.69805 266.163 4.39481C266.64 4.08711 267.213 3.93326 267.882 3.93326C268.56 3.93326 269.124 4.08711 269.574 4.39481C270.029 4.69805 270.384 5.12392 270.638 5.67243H270.745C271.008 5.14176 271.403 4.72035 271.929 4.40819C272.455 4.09157 273.086 3.93326 273.822 3.93326C274.74 3.93326 275.492 4.22089 276.076 4.79616C276.66 5.36696 276.952 6.25662 276.952 7.46512V14.3416H275.374V7.46512C275.374 6.70702 275.166 6.1652 274.752 5.83966C274.337 5.51412 273.849 5.35135 273.287 5.35135C272.564 5.35135 272.005 5.56987 271.608 6.00689C271.211 6.43945 271.012 6.98796 271.012 7.65242V14.3416H269.407V7.30458C269.407 6.7204 269.217 6.24993 268.838 5.89317C268.459 5.53196 267.971 5.35135 267.373 5.35135C266.963 5.35135 266.58 5.46061 266.223 5.67912C265.871 5.89763 265.585 6.20087 265.367 6.58884C265.153 6.97235 265.046 7.41607 265.046 7.91998V14.3416H263.467ZM284.774 14.5556C283.784 14.5556 282.93 14.3371 282.212 13.9001C281.499 13.4586 280.948 12.8432 280.56 12.0539C280.177 11.2601 279.985 10.337 279.985 9.28457C279.985 8.23214 280.177 7.30458 280.56 6.50189C280.948 5.69473 281.488 5.06595 282.179 4.61555C282.875 4.16069 283.686 3.93326 284.614 3.93326C285.149 3.93326 285.677 4.02245 286.199 4.20082C286.721 4.3792 287.196 4.66906 287.624 5.07041C288.052 5.4673 288.393 5.99351 288.647 6.64905C288.902 7.30458 289.029 8.11174 289.029 9.07051V9.73943H281.109V8.37484H287.423C287.423 7.79512 287.307 7.27782 287.075 6.82296C286.848 6.3681 286.522 6.00912 286.099 5.74601C285.68 5.48291 285.185 5.35135 284.614 5.35135C283.985 5.35135 283.441 5.50743 282.982 5.81959C282.527 6.12729 282.177 6.52864 281.931 7.02364C281.686 7.51863 281.564 8.04931 281.564 8.61565V9.52537C281.564 10.3013 281.697 10.9591 281.965 11.4987C282.237 12.0338 282.614 12.4418 283.095 12.7228C283.577 12.9993 284.137 13.1375 284.774 13.1375C285.189 13.1375 285.564 13.0795 285.898 12.9636C286.237 12.8432 286.529 12.6648 286.774 12.4285C287.02 12.1877 287.209 11.8889 287.343 11.5321L288.868 11.9602C288.708 12.4775 288.438 12.9324 288.059 13.3248C287.68 13.7128 287.211 14.016 286.654 14.2345C286.097 14.4486 285.47 14.5556 284.774 14.5556ZM293.637 8.16079V14.3416H292.058V4.06704H293.583V5.67243H293.717C293.958 5.15068 294.323 4.73149 294.814 4.41488C295.304 4.0938 295.938 3.93326 296.714 3.93326C297.409 3.93326 298.018 4.07596 298.54 4.36136C299.061 4.64231 299.467 5.07041 299.757 5.64568C300.047 6.21648 300.192 6.93891 300.192 7.81296V14.3416H298.613V7.91998C298.613 7.11283 298.404 6.48405 297.984 6.03365C297.565 5.57878 296.99 5.35135 296.259 5.35135C295.755 5.35135 295.304 5.46061 294.907 5.67912C294.515 5.89763 294.205 6.21648 293.978 6.63567C293.75 7.05485 293.637 7.56323 293.637 8.16079ZM308.173 4.06704V5.40487H302.848V4.06704H308.173ZM304.4 1.60544H305.979V11.3983C305.979 11.8443 306.043 12.1787 306.173 12.4017C306.307 12.6202 306.476 12.7674 306.681 12.8432C306.891 12.9145 307.111 12.9502 307.343 12.9502C307.517 12.9502 307.66 12.9413 307.771 12.9235C307.883 12.9012 307.972 12.8833 308.039 12.8699L308.36 14.288C308.253 14.3282 308.104 14.3683 307.912 14.4084C307.72 14.453 307.477 14.4753 307.183 14.4753C306.737 14.4753 306.3 14.3795 305.872 14.1877C305.448 13.9959 305.096 13.7039 304.815 13.3114C304.538 12.919 304.4 12.424 304.4 11.8264V1.60544ZM315.239 14.5556C314.311 14.5556 313.498 14.3349 312.797 13.8934C312.102 13.4519 311.558 12.8343 311.165 12.0405C310.777 11.2467 310.583 10.3192 310.583 9.25781C310.583 8.18755 310.777 7.2533 311.165 6.45506C311.558 5.65682 312.102 5.03696 312.797 4.59548C313.498 4.154 314.311 3.93326 315.239 3.93326C316.167 3.93326 316.978 4.154 317.674 4.59548C318.374 5.03696 318.918 5.65682 319.306 6.45506C319.698 7.2533 319.895 8.18755 319.895 9.25781C319.895 10.3192 319.698 11.2467 319.306 12.0405C318.918 12.8343 318.374 13.4519 317.674 13.8934C316.978 14.3349 316.167 14.5556 315.239 14.5556ZM315.239 13.1375C315.944 13.1375 316.523 12.9569 316.978 12.5957C317.433 12.2345 317.77 11.7595 317.988 11.1709C318.207 10.5823 318.316 9.94456 318.316 9.25781C318.316 8.57106 318.207 7.93113 317.988 7.33803C317.77 6.74492 317.433 6.26554 316.978 5.89986C316.523 5.53419 315.944 5.35135 315.239 5.35135C314.534 5.35135 313.955 5.53419 313.5 5.89986C313.045 6.26554 312.708 6.74492 312.49 7.33803C312.271 7.93113 312.162 8.57106 312.162 9.25781C312.162 9.94456 312.271 10.5823 312.49 11.1709C312.708 11.7595 313.045 12.2345 313.5 12.5957C313.955 12.9569 314.534 13.1375 315.239 13.1375ZM330.21 6.3681L328.792 6.76945C328.703 6.5331 328.571 6.30344 328.397 6.08047C328.228 5.85304 327.996 5.66574 327.702 5.51858C327.407 5.37142 327.031 5.29784 326.571 5.29784C325.942 5.29784 325.418 5.44277 324.999 5.73263C324.585 6.01804 324.377 6.38148 324.377 6.82296C324.377 7.21539 324.52 7.52532 324.805 7.75275C325.091 7.98018 325.537 8.16971 326.143 8.32133L327.668 8.69592C328.587 8.91889 329.271 9.26004 329.722 9.71936C330.172 10.1742 330.397 10.7606 330.397 11.4786C330.397 12.0672 330.228 12.5935 329.889 13.0572C329.555 13.521 329.086 13.8867 328.484 14.1543C327.882 14.4218 327.182 14.5556 326.384 14.5556C325.336 14.5556 324.469 14.3282 323.782 13.8733C323.095 13.4185 322.66 12.754 322.477 11.88L323.976 11.5054C324.119 12.0583 324.388 12.4731 324.785 12.7495C325.187 13.026 325.711 13.1643 326.357 13.1643C327.093 13.1643 327.677 13.0082 328.11 12.696C328.547 12.3794 328.765 12.0004 328.765 11.5589C328.765 11.2021 328.64 10.9033 328.391 10.6625C328.141 10.4173 327.757 10.2344 327.24 10.114L325.528 9.71267C324.587 9.4897 323.896 9.14409 323.454 8.67585C323.017 8.20316 322.799 7.61228 322.799 6.90323C322.799 6.32351 322.961 5.81067 323.287 5.36473C323.617 4.91879 324.065 4.56872 324.631 4.31454C325.202 4.06035 325.849 3.93326 326.571 3.93326C327.588 3.93326 328.386 4.15623 328.966 4.60217C329.55 5.04811 329.965 5.63676 330.21 6.3681ZM335.756 12.4686L335.649 13.191C335.573 13.6994 335.457 14.2434 335.301 14.8232C335.15 15.4029 334.991 15.9492 334.826 16.462C334.661 16.9748 334.525 17.3829 334.418 17.6861H333.214C333.272 17.4007 333.348 17.0239 333.442 16.5557C333.535 16.0874 333.629 15.5634 333.723 14.9837C333.821 14.4084 333.901 13.8198 333.963 13.2178L334.044 12.4686H335.756ZM352.512 6.3681L351.094 6.76945C351.005 6.5331 350.873 6.30344 350.7 6.08047C350.53 5.85304 350.298 5.66574 350.004 5.51858C349.71 5.37142 349.333 5.29784 348.873 5.29784C348.245 5.29784 347.721 5.44277 347.301 5.73263C346.887 6.01804 346.679 6.38148 346.679 6.82296C346.679 7.21539 346.822 7.52532 347.108 7.75275C347.393 7.98018 347.839 8.16971 348.445 8.32133L349.97 8.69592C350.889 8.91889 351.574 9.26004 352.024 9.71936C352.474 10.1742 352.7 10.7606 352.7 11.4786C352.7 12.0672 352.53 12.5935 352.191 13.0572C351.857 13.521 351.389 13.8867 350.787 14.1543C350.185 14.4218 349.484 14.5556 348.686 14.5556C347.638 14.5556 346.771 14.3282 346.084 13.8733C345.397 13.4185 344.963 12.754 344.78 11.88L346.278 11.5054C346.421 12.0583 346.691 12.4731 347.087 12.7495C347.489 13.026 348.013 13.1643 348.659 13.1643C349.395 13.1643 349.979 13.0082 350.412 12.696C350.849 12.3794 351.067 12.0004 351.067 11.5589C351.067 11.2021 350.943 10.9033 350.693 10.6625C350.443 10.4173 350.06 10.2344 349.542 10.114L347.83 9.71267C346.889 9.4897 346.198 9.14409 345.756 8.67585C345.319 8.20316 345.101 7.61228 345.101 6.90323C345.101 6.32351 345.264 5.81067 345.589 5.36473C345.919 4.91879 346.367 4.56872 346.934 4.31454C347.504 4.06035 348.151 3.93326 348.873 3.93326C349.89 3.93326 350.688 4.15623 351.268 4.60217C351.852 5.04811 352.267 5.63676 352.512 6.3681ZM357.282 8.16079V14.3416H355.704V0.642202H357.282V5.67243H357.416C357.657 5.14176 358.018 4.72035 358.5 4.40819C358.986 4.09157 359.633 3.93326 360.44 3.93326C361.14 3.93326 361.753 4.07373 362.279 4.35467C362.805 4.63116 363.213 5.05703 363.503 5.6323C363.798 6.2031 363.945 6.92999 363.945 7.81296V14.3416H362.366V7.91998C362.366 7.10391 362.154 6.4729 361.731 6.02696C361.312 5.57655 360.73 5.35135 359.985 5.35135C359.468 5.35135 359.004 5.46061 358.594 5.67912C358.188 5.89763 357.867 6.21648 357.63 6.63567C357.398 7.05485 357.282 7.56323 357.282 8.16079ZM371.635 14.5556C370.707 14.5556 369.893 14.3349 369.193 13.8934C368.498 13.4519 367.954 12.8343 367.561 12.0405C367.173 11.2467 366.979 10.3192 366.979 9.25781C366.979 8.18755 367.173 7.2533 367.561 6.45506C367.954 5.65682 368.498 5.03696 369.193 4.59548C369.893 4.154 370.707 3.93326 371.635 3.93326C372.562 3.93326 373.374 4.154 374.07 4.59548C374.77 5.03696 375.314 5.65682 375.702 6.45506C376.094 7.2533 376.29 8.18755 376.29 9.25781C376.29 10.3192 376.094 11.2467 375.702 12.0405C375.314 12.8343 374.77 13.4519 374.07 13.8934C373.374 14.3349 372.562 14.5556 371.635 14.5556ZM371.635 13.1375C372.339 13.1375 372.919 12.9569 373.374 12.5957C373.829 12.2345 374.166 11.7595 374.384 11.1709C374.603 10.5823 374.712 9.94456 374.712 9.25781C374.712 8.57106 374.603 7.93113 374.384 7.33803C374.166 6.74492 373.829 6.26554 373.374 5.89986C372.919 5.53419 372.339 5.35135 371.635 5.35135C370.93 5.35135 370.35 5.53419 369.896 5.89986C369.441 6.26554 369.104 6.74492 368.886 7.33803C368.667 7.93113 368.558 8.57106 368.558 9.25781C368.558 9.94456 368.667 10.5823 368.886 11.1709C369.104 11.7595 369.441 12.2345 369.896 12.5957C370.35 12.9569 370.93 13.1375 371.635 13.1375ZM381.306 14.3416L378.176 4.06704H379.835L382.056 11.9335H382.163L384.357 4.06704H386.042L388.21 11.9067H388.317L390.537 4.06704H392.196L389.066 14.3416H387.514L385.266 6.44837H385.106L382.858 14.3416H381.306ZM402.189 6.3681L400.771 6.76945C400.682 6.5331 400.55 6.30344 400.376 6.08047C400.207 5.85304 399.975 5.66574 399.681 5.51858C399.386 5.37142 399.009 5.29784 398.55 5.29784C397.921 5.29784 397.397 5.44277 396.978 5.73263C396.563 6.01804 396.356 6.38148 396.356 6.82296C396.356 7.21539 396.499 7.52532 396.784 7.75275C397.07 7.98018 397.515 8.16971 398.122 8.32133L399.647 8.69592C400.566 8.91889 401.25 9.26004 401.701 9.71936C402.151 10.1742 402.376 10.7606 402.376 11.4786C402.376 12.0672 402.207 12.5935 401.868 13.0572C401.533 13.521 401.065 13.8867 400.463 14.1543C399.861 14.4218 399.161 14.5556 398.363 14.5556C397.315 14.5556 396.447 14.3282 395.761 13.8733C395.074 13.4185 394.639 12.754 394.456 11.88L395.955 11.5054C396.097 12.0583 396.367 12.4731 396.764 12.7495C397.165 13.026 397.689 13.1643 398.336 13.1643C399.072 13.1643 399.656 13.0082 400.089 12.696C400.526 12.3794 400.744 12.0004 400.744 11.5589C400.744 11.2021 400.619 10.9033 400.37 10.6625C400.12 10.4173 399.736 10.2344 399.219 10.114L397.507 9.71267C396.566 9.4897 395.874 9.14409 395.433 8.67585C394.996 8.20316 394.777 7.61228 394.777 6.90323C394.777 6.32351 394.94 5.81067 395.266 5.36473C395.596 4.91879 396.044 4.56872 396.61 4.31454C397.181 4.06035 397.828 3.93326 398.55 3.93326C399.567 3.93326 400.365 4.15623 400.945 4.60217C401.529 5.04811 401.944 5.63676 402.189 6.3681ZM407.735 12.4686L407.628 13.191C407.552 13.6994 407.436 14.2434 407.28 14.8232C407.129 15.4029 406.97 15.9492 406.805 16.462C406.64 16.9748 406.504 17.3829 406.397 17.6861H405.193C405.251 17.4007 405.327 17.0239 405.421 16.5557C405.514 16.0874 405.608 15.5634 405.702 14.9837C405.8 14.4084 405.88 13.8198 405.942 13.2178L406.023 12.4686H407.735ZM421.789 4.06704V5.40487H416.25V4.06704H421.789ZM417.909 14.3416V2.64894C417.909 2.0603 418.047 1.56976 418.324 1.17733C418.6 0.784903 418.959 0.490581 419.401 0.294366C419.842 0.0981516 420.308 4.42292e-05 420.799 4.42292e-05C421.187 4.42292e-05 421.503 0.0312604 421.749 0.0936927C421.994 0.156124 422.177 0.214097 422.297 0.26761L421.842 1.63219C421.762 1.60544 421.651 1.57199 421.508 1.53186C421.37 1.49172 421.187 1.47165 420.959 1.47165C420.438 1.47165 420.061 1.60321 419.829 1.86631C419.601 2.12942 419.488 2.51516 419.488 3.02353V14.3416H417.909ZM428.514 14.5556C427.524 14.5556 426.67 14.3371 425.952 13.9001C425.238 13.4586 424.688 12.8432 424.3 12.0539C423.916 11.2601 423.724 10.337 423.724 9.28457C423.724 8.23214 423.916 7.30458 424.3 6.50189C424.688 5.69473 425.227 5.06595 425.918 4.61555C426.614 4.16069 427.426 3.93326 428.353 3.93326C428.888 3.93326 429.417 4.02245 429.939 4.20082C430.46 4.3792 430.935 4.66906 431.363 5.07041C431.792 5.4673 432.133 5.99351 432.387 6.64905C432.641 7.30458 432.768 8.11174 432.768 9.07051V9.73943H424.848V8.37484H431.163C431.163 7.79512 431.047 7.27782 430.815 6.82296C430.587 6.3681 430.262 6.00912 429.838 5.74601C429.419 5.48291 428.924 5.35135 428.353 5.35135C427.725 5.35135 427.18 5.50743 426.721 5.81959C426.266 6.12729 425.916 6.52864 425.671 7.02364C425.426 7.51863 425.303 8.04931 425.303 8.61565V9.52537C425.303 10.3013 425.437 10.9591 425.704 11.4987C425.976 12.0338 426.353 12.4418 426.835 12.7228C427.317 12.9993 427.876 13.1375 428.514 13.1375C428.929 13.1375 429.303 13.0795 429.638 12.9636C429.977 12.8432 430.269 12.6648 430.514 12.4285C430.759 12.1877 430.949 11.8889 431.082 11.5321L432.608 11.9602C432.447 12.4775 432.177 12.9324 431.798 13.3248C431.419 13.7128 430.951 14.016 430.394 14.2345C429.836 14.4486 429.21 14.5556 428.514 14.5556ZM443.075 6.3681L441.657 6.76945C441.568 6.5331 441.436 6.30344 441.262 6.08047C441.093 5.85304 440.861 5.66574 440.567 5.51858C440.272 5.37142 439.896 5.29784 439.436 5.29784C438.808 5.29784 438.284 5.44277 437.864 5.73263C437.45 6.01804 437.242 6.38148 437.242 6.82296C437.242 7.21539 437.385 7.52532 437.67 7.75275C437.956 7.98018 438.402 8.16971 439.008 8.32133L440.533 8.69592C441.452 8.91889 442.136 9.26004 442.587 9.71936C443.037 10.1742 443.262 10.7606 443.262 11.4786C443.262 12.0672 443.093 12.5935 442.754 13.0572C442.42 13.521 441.951 13.8867 441.349 14.1543C440.747 14.4218 440.047 14.5556 439.249 14.5556C438.201 14.5556 437.334 14.3282 436.647 13.8733C435.96 13.4185 435.525 12.754 435.343 11.88L436.841 11.5054C436.984 12.0583 437.253 12.4731 437.65 12.7495C438.052 13.026 438.576 13.1643 439.222 13.1643C439.958 13.1643 440.542 13.0082 440.975 12.696C441.412 12.3794 441.63 12.0004 441.63 11.5589C441.63 11.2021 441.505 10.9033 441.256 10.6625C441.006 10.4173 440.623 10.2344 440.105 10.114L438.393 9.71267C437.452 9.4897 436.761 9.14409 436.319 8.67585C435.882 8.20316 435.664 7.61228 435.664 6.90323C435.664 6.32351 435.826 5.81067 436.152 5.36473C436.482 4.91879 436.93 4.56872 437.496 4.31454C438.067 4.06035 438.714 3.93326 439.436 3.93326C440.453 3.93326 441.251 4.15623 441.831 4.60217C442.415 5.04811 442.83 5.63676 443.075 6.3681ZM450.735 4.06704V5.40487H445.41V4.06704H450.735ZM446.962 1.60544H448.541V11.3983C448.541 11.8443 448.606 12.1787 448.735 12.4017C448.869 12.6202 449.038 12.7674 449.243 12.8432C449.453 12.9145 449.674 12.9502 449.906 12.9502C450.079 12.9502 450.222 12.9413 450.334 12.9235C450.445 12.9012 450.534 12.8833 450.601 12.8699L450.922 14.288C450.815 14.3282 450.666 14.3683 450.474 14.4084C450.282 14.453 450.039 14.4753 449.745 14.4753C449.299 14.4753 448.862 14.3795 448.434 14.1877C448.01 13.9959 447.658 13.7039 447.377 13.3114C447.101 12.919 446.962 12.424 446.962 11.8264V1.60544ZM456.761 14.5824C456.11 14.5824 455.519 14.4597 454.988 14.2145C454.458 13.9647 454.036 13.6057 453.724 13.1375C453.412 12.6648 453.256 12.094 453.256 11.4251C453.256 10.8364 453.372 10.3593 453.604 9.99361C453.836 9.62348 454.146 9.33362 454.534 9.12403C454.922 8.91443 455.35 8.75835 455.818 8.65579C456.291 8.54876 456.766 8.46403 457.243 8.4016C457.867 8.32133 458.373 8.26113 458.761 8.22099C459.154 8.1764 459.439 8.10282 459.617 8.00025C459.8 7.89768 459.892 7.71931 459.892 7.46512V7.41161C459.892 6.75161 459.711 6.23878 459.35 5.87311C458.993 5.50743 458.451 5.3246 457.724 5.3246C456.971 5.3246 456.38 5.4896 455.952 5.81959C455.524 6.14959 455.223 6.50189 455.049 6.87648L453.55 6.34135C453.818 5.71703 454.175 5.23095 454.621 4.88311C455.071 4.53082 455.561 4.28555 456.092 4.14731C456.627 4.00461 457.153 3.93326 457.671 3.93326C458.001 3.93326 458.38 3.97339 458.808 4.05366C459.241 4.12947 459.657 4.28778 460.059 4.52859C460.465 4.7694 460.801 5.13284 461.069 5.61892C461.336 6.105 461.47 6.75607 461.47 7.57215V14.3416H459.892V12.9502H459.811C459.704 13.1732 459.526 13.4118 459.276 13.666C459.026 13.9201 458.694 14.1364 458.28 14.3148C457.865 14.4932 457.359 14.5824 456.761 14.5824ZM457.002 13.1643C457.626 13.1643 458.152 13.0416 458.581 12.7964C459.013 12.5511 459.339 12.2345 459.557 11.8465C459.78 11.4585 459.892 11.0505 459.892 10.6224V9.17754C459.825 9.25781 459.678 9.33139 459.45 9.39828C459.227 9.46071 458.968 9.51646 458.674 9.56551C458.384 9.6101 458.101 9.65024 457.825 9.68591C457.553 9.71713 457.332 9.74389 457.162 9.76618C456.752 9.8197 456.369 9.90666 456.012 10.0271C455.66 10.143 455.374 10.3192 455.156 10.5555C454.942 10.7874 454.835 11.104 454.835 11.5054C454.835 12.0539 455.038 12.4686 455.443 12.7495C455.854 13.026 456.373 13.1643 457.002 13.1643ZM472.257 6.3681L470.839 6.76945C470.75 6.5331 470.618 6.30344 470.444 6.08047C470.275 5.85304 470.043 5.66574 469.749 5.51858C469.454 5.37142 469.078 5.29784 468.618 5.29784C467.99 5.29784 467.466 5.44277 467.046 5.73263C466.632 6.01804 466.424 6.38148 466.424 6.82296C466.424 7.21539 466.567 7.52532 466.852 7.75275C467.138 7.98018 467.584 8.16971 468.19 8.32133L469.715 8.69592C470.634 8.91889 471.319 9.26004 471.769 9.71936C472.219 10.1742 472.445 10.7606 472.445 11.4786C472.445 12.0672 472.275 12.5935 471.936 13.0572C471.602 13.521 471.133 13.8867 470.531 14.1543C469.929 14.4218 469.229 14.5556 468.431 14.5556C467.383 14.5556 466.516 14.3282 465.829 13.8733C465.142 13.4185 464.707 12.754 464.525 11.88L466.023 11.5054C466.166 12.0583 466.435 12.4731 466.832 12.7495C467.234 13.026 467.758 13.1643 468.404 13.1643C469.14 13.1643 469.724 13.0082 470.157 12.696C470.594 12.3794 470.812 12.0004 470.812 11.5589C470.812 11.2021 470.688 10.9033 470.438 10.6625C470.188 10.4173 469.805 10.2344 469.287 10.114L467.575 9.71267C466.634 9.4897 465.943 9.14409 465.501 8.67585C465.064 8.20316 464.846 7.61228 464.846 6.90323C464.846 6.32351 465.008 5.81067 465.334 5.36473C465.664 4.91879 466.112 4.56872 466.679 4.31454C467.249 4.06035 467.896 3.93326 468.618 3.93326C469.635 3.93326 470.433 4.15623 471.013 4.60217C471.597 5.04811 472.012 5.63676 472.257 6.3681ZM4.36142 39.5556C3.50521 39.5556 2.74934 39.3393 2.0938 38.9068C1.43827 38.4697 0.925431 37.8543 0.555299 37.0606C0.185167 36.2623 0.000100882 35.3192 0.000100882 34.2311C0.000100882 33.1519 0.185167 32.2154 0.555299 31.4216C0.925431 30.6278 1.44049 30.0147 2.10049 29.5821C2.76048 29.1495 3.52305 28.9333 4.38817 28.9333C5.05709 28.9333 5.58553 29.0447 5.9735 29.2677C6.36593 29.4862 6.66471 29.736 6.86984 30.0169C7.07944 30.2934 7.24221 30.5208 7.35815 30.6992H7.49193V25.6422H9.07057V39.3416H7.54545V37.7629H7.35815C7.24221 37.9502 7.07721 38.1866 6.86315 38.472C6.6491 38.7529 6.34363 39.0049 5.94674 39.2278C5.54985 39.4463 5.02141 39.5556 4.36142 39.5556ZM4.57547 38.1375C5.20871 38.1375 5.74384 37.9725 6.18086 37.6425C6.61789 37.3081 6.95011 36.8465 7.17754 36.2579C7.40497 35.6648 7.51869 34.9802 7.51869 34.2043C7.51869 33.4373 7.4072 32.7661 7.18423 32.1909C6.96126 31.6111 6.63126 31.1607 6.19424 30.8397C5.75722 30.5141 5.21763 30.3514 4.57547 30.3514C3.90656 30.3514 3.34913 30.523 2.90319 30.8664C2.4617 31.2053 2.12948 31.6669 1.9065 32.2511C1.68799 32.8308 1.57874 33.4819 1.57874 34.2043C1.57874 34.9356 1.69022 35.6001 1.91319 36.1977C2.14062 36.7908 2.47508 37.2635 2.91656 37.6158C3.36251 37.9636 3.91548 38.1375 4.57547 38.1375ZM17.1167 39.5556C16.1267 39.5556 15.2727 39.3371 14.5548 38.9001C13.8413 38.4586 13.2905 37.8432 12.9026 37.0539C12.519 36.2601 12.3273 35.337 12.3273 34.2846C12.3273 33.2321 12.519 32.3046 12.9026 31.5019C13.2905 30.6947 13.8301 30.066 14.5213 29.6155C15.217 29.1607 16.0286 28.9333 16.9562 28.9333C17.4913 28.9333 18.0197 29.0224 18.5415 29.2008C19.0632 29.3792 19.5382 29.6691 19.9663 30.0704C20.3944 30.4673 20.7355 30.9935 20.9897 31.649C21.2439 32.3046 21.371 33.1117 21.371 34.0705V34.7394H13.4511V33.3748H19.7656C19.7656 32.7951 19.6497 32.2778 19.4178 31.823C19.1903 31.3681 18.8648 31.0091 18.4412 30.746C18.022 30.4829 17.527 30.3514 16.9562 30.3514C16.3274 30.3514 15.7833 30.5074 15.324 30.8196C14.8692 31.1273 14.5191 31.5286 14.2738 32.0236C14.0286 32.5186 13.9059 33.0493 13.9059 33.6157V34.5254C13.9059 35.3013 14.0397 35.9591 14.3073 36.4987C14.5793 37.0338 14.9561 37.4418 15.4377 37.7228C15.9194 37.9993 16.479 38.1375 17.1167 38.1375C17.5314 38.1375 17.906 38.0795 18.2405 37.9636C18.5794 37.8432 18.8715 37.6648 19.1168 37.4285C19.362 37.1877 19.5516 36.8889 19.6853 36.5321L21.2105 36.9602C21.0499 37.4775 20.7801 37.9324 20.4011 38.3248C20.022 38.7128 19.5538 39.016 18.9964 39.2345C18.4389 39.4486 17.8124 39.5556 17.1167 39.5556ZM33.3495 39.5824C32.6984 39.5824 32.1075 39.4597 31.5768 39.2145C31.0462 38.9647 30.6247 38.6057 30.3126 38.1375C30.0004 37.6648 29.8444 37.094 29.8444 36.4251C29.8444 35.8364 29.9603 35.3593 30.1922 34.9936C30.4241 34.6235 30.734 34.3336 31.122 34.124C31.5099 33.9144 31.9381 33.7584 32.4063 33.6558C32.879 33.5488 33.3539 33.464 33.8311 33.4016C34.4554 33.3213 34.9615 33.2611 35.3495 33.221C35.7419 33.1764 36.0273 33.1028 36.2057 33.0003C36.3886 32.8977 36.48 32.7193 36.48 32.4651V32.4116C36.48 31.7516 36.2994 31.2388 35.9382 30.8731C35.5814 30.5074 35.0396 30.3246 34.3127 30.3246C33.5591 30.3246 32.9682 30.4896 32.5401 30.8196C32.112 31.1496 31.811 31.5019 31.637 31.8765L30.1387 31.3413C30.4062 30.717 30.763 30.2309 31.2089 29.8831C31.6593 29.5308 32.1499 29.2856 32.6805 29.1473C33.2157 29.0046 33.7419 28.9333 34.2592 28.9333C34.5892 28.9333 34.9682 28.9734 35.3963 29.0537C35.8289 29.1295 36.2459 29.2878 36.6472 29.5286C37.053 29.7694 37.3897 30.1328 37.6573 30.6189C37.9248 31.105 38.0586 31.7561 38.0586 32.5721V39.3416H36.48V37.9502H36.3997C36.2927 38.1732 36.1143 38.4118 35.8646 38.666C35.6148 38.9201 35.2826 39.1364 34.8679 39.3148C34.4532 39.4932 33.947 39.5824 33.3495 39.5824ZM33.5903 38.1643C34.2146 38.1643 34.7408 38.0416 35.1689 37.7964C35.6015 37.5511 35.927 37.2345 36.1455 36.8465C36.3685 36.4585 36.48 36.0505 36.48 35.6224V34.1775C36.4131 34.2578 36.2659 34.3314 36.0385 34.3983C35.8155 34.4607 35.5569 34.5165 35.2626 34.5655C34.9727 34.6101 34.6895 34.6502 34.413 34.6859C34.141 34.7171 33.9203 34.7439 33.7508 34.7662C33.3405 34.8197 32.957 34.9067 32.6003 35.0271C32.248 35.143 31.9626 35.3192 31.7441 35.5555C31.53 35.7874 31.423 36.104 31.423 36.5054C31.423 37.0539 31.6259 37.4686 32.0317 37.7495C32.442 38.026 32.9615 38.1643 33.5903 38.1643ZM43.1465 33.1608V39.3416H41.5678V29.067H43.093V30.6724H43.2267C43.4676 30.1507 43.8332 29.7315 44.3238 29.4149C44.8143 29.0938 45.4475 28.9333 46.2235 28.9333C46.9192 28.9333 47.5279 29.076 48.0496 29.3614C48.5714 29.6423 48.9772 30.0704 49.267 30.6457C49.5569 31.2165 49.7018 31.9389 49.7018 32.813V39.3416H48.1232V32.92C48.1232 32.1128 47.9136 31.484 47.4944 31.0336C47.0752 30.5788 46.5 30.3514 45.7686 30.3514C45.2647 30.3514 44.8143 30.4606 44.4174 30.6791C44.025 30.8976 43.7151 31.2165 43.4876 31.6357C43.2602 32.0549 43.1465 32.5632 43.1465 33.1608ZM53.2144 39.3416V29.067H54.793V39.3416H53.2144ZM54.0171 27.3546C53.7094 27.3546 53.4441 27.2498 53.2211 27.0402C53.0026 26.8306 52.8933 26.5787 52.8933 26.2844C52.8933 25.99 53.0026 25.7381 53.2211 25.5285C53.4441 25.3189 53.7094 25.2141 54.0171 25.2141C54.3248 25.2141 54.5879 25.3189 54.8064 25.5285C55.0294 25.7381 55.1409 25.99 55.1409 26.2844C55.1409 26.5787 55.0294 26.8306 54.8064 27.0402C54.5879 27.2498 54.3248 27.3546 54.0171 27.3546ZM66.7139 29.067L62.9144 39.3416H61.309L57.5096 29.067H59.222L62.0582 37.2545H62.1653L65.0014 29.067H66.7139ZM73.3653 39.5556C72.3753 39.5556 71.5213 39.3371 70.8034 38.9001C70.0899 38.4586 69.5391 37.8432 69.1512 37.0539C68.7677 36.2601 68.5759 35.337 68.5759 34.2846C68.5759 33.2321 68.7677 32.3046 69.1512 31.5019C69.5391 30.6947 70.0787 30.066 70.7699 29.6155C71.4656 29.1607 72.2772 28.9333 73.2048 28.9333C73.7399 28.9333 74.2684 29.0224 74.7901 29.2008C75.3119 29.3792 75.7868 29.6691 76.2149 30.0704C76.643 30.4673 76.9841 30.9935 77.2383 31.649C77.4925 32.3046 77.6196 33.1117 77.6196 34.0705V34.7394H69.6997V33.3748H76.0142C76.0142 32.7951 75.8983 32.2778 75.6664 31.823C75.439 31.3681 75.1134 31.0091 74.6898 30.746C74.2706 30.4829 73.7756 30.3514 73.2048 30.3514C72.576 30.3514 72.032 30.5074 71.5726 30.8196C71.1178 31.1273 70.7677 31.5286 70.5224 32.0236C70.2772 32.5186 70.1545 33.0493 70.1545 33.6157V34.5254C70.1545 35.3013 70.2883 35.9591 70.5559 36.4987C70.8279 37.0338 71.2047 37.4418 71.6863 37.7228C72.168 37.9993 72.7276 38.1375 73.3653 38.1375C73.78 38.1375 74.1546 38.0795 74.4891 37.9636C74.828 37.8432 75.1201 37.6648 75.3654 37.4285C75.6106 37.1877 75.8002 36.8889 75.9339 36.5321L77.4591 36.9602C77.2985 37.4775 77.0287 37.9324 76.6497 38.3248C76.2706 38.7128 75.8024 39.016 75.245 39.2345C74.6875 39.4486 74.061 39.5556 73.3653 39.5556ZM80.6489 39.3416V29.067H82.174V30.6189H82.281C82.4683 30.1105 82.8073 29.698 83.2978 29.3814C83.7883 29.0648 84.3413 28.9065 84.9567 28.9065C85.0726 28.9065 85.2176 28.9087 85.3915 28.9132C85.5654 28.9176 85.697 28.9243 85.7862 28.9333V30.5386C85.7326 30.5253 85.61 30.5052 85.4182 30.4784C85.231 30.4472 85.0325 30.4316 84.8229 30.4316C84.3235 30.4316 83.8775 30.5364 83.4851 30.746C83.0971 30.9511 82.7894 31.2365 82.562 31.6022C82.339 31.9634 82.2275 32.3759 82.2275 32.8397V39.3416H80.6489ZM95.5631 31.3681L94.145 31.7695C94.0558 31.5331 93.9243 31.3034 93.7503 31.0805C93.5809 30.853 93.349 30.6657 93.0547 30.5186C92.7604 30.3714 92.3835 30.2978 91.9242 30.2978C91.2954 30.2978 90.7715 30.4428 90.3523 30.7326C89.9375 31.018 89.7302 31.3815 89.7302 31.823C89.7302 32.2154 89.8729 32.5253 90.1583 32.7528C90.4437 32.9802 90.8896 33.1697 91.4961 33.3213L93.0212 33.6959C93.9399 33.9189 94.6244 34.26 95.0748 34.7194C95.5252 35.1742 95.7504 35.7606 95.7504 36.4786C95.7504 37.0672 95.5809 37.5935 95.242 38.0572C94.9076 38.521 94.4393 38.8867 93.8373 39.1543C93.2353 39.4218 92.5352 39.5556 91.7369 39.5556C90.689 39.5556 89.8216 39.3282 89.1348 38.8733C88.4481 38.4185 88.0133 37.754 87.8305 36.88L89.3288 36.5054C89.4715 37.0583 89.7413 37.4731 90.1382 37.7495C90.5396 38.026 91.0635 38.1643 91.7102 38.1643C92.446 38.1643 93.0302 38.0082 93.4627 37.696C93.8997 37.3794 94.1182 37.0004 94.1182 36.5589C94.1182 36.2021 93.9934 35.9033 93.7437 35.6625C93.4939 35.4173 93.1104 35.2344 92.5931 35.114L90.8807 34.7127C89.9398 34.4897 89.2486 34.1441 88.8071 33.6759C88.3701 33.2032 88.1515 32.6123 88.1515 31.9032C88.1515 31.3235 88.3143 30.8107 88.6398 30.3647C88.9698 29.9188 89.418 29.5687 89.9844 29.3145C90.5552 29.0604 91.2018 28.9333 91.9242 28.9333C92.941 28.9333 93.7392 29.1562 94.3189 29.6022C94.9031 30.0481 95.3178 30.6368 95.5631 31.3681ZM101.778 39.5824C101.127 39.5824 100.536 39.4597 100.005 39.2145C99.4748 38.9647 99.0534 38.6057 98.7412 38.1375C98.4291 37.6648 98.273 37.094 98.273 36.4251C98.273 35.8364 98.3889 35.3593 98.6208 34.9936C98.8527 34.6235 99.1626 34.3336 99.5506 34.124C99.9386 33.9144 100.367 33.7584 100.835 33.6558C101.308 33.5488 101.783 33.464 102.26 33.4016C102.884 33.3213 103.39 33.2611 103.778 33.221C104.171 33.1764 104.456 33.1028 104.634 33.0003C104.817 32.8977 104.909 32.7193 104.909 32.4651V32.4116C104.909 31.7516 104.728 31.2388 104.367 30.8731C104.01 30.5074 103.468 30.3246 102.741 30.3246C101.988 30.3246 101.397 30.4896 100.969 30.8196C100.541 31.1496 100.24 31.5019 100.066 31.8765L98.5673 31.3413C98.8349 30.717 99.1916 30.2309 99.6376 29.8831C100.088 29.5308 100.579 29.2856 101.109 29.1473C101.644 29.0046 102.171 28.9333 102.688 28.9333C103.018 28.9333 103.397 28.9734 103.825 29.0537C104.258 29.1295 104.674 29.2878 105.076 29.5286C105.482 29.7694 105.818 30.1328 106.086 30.6189C106.353 31.105 106.487 31.7561 106.487 32.5721V39.3416H104.909V37.9502H104.828C104.721 38.1732 104.543 38.4118 104.293 38.666C104.043 38.9201 103.711 39.1364 103.297 39.3148C102.882 39.4932 102.376 39.5824 101.778 39.5824ZM102.019 38.1643C102.643 38.1643 103.169 38.0416 103.598 37.7964C104.03 37.5511 104.356 37.2345 104.574 36.8465C104.797 36.4585 104.909 36.0505 104.909 35.6224V34.1775C104.842 34.2578 104.695 34.3314 104.467 34.3983C104.244 34.4607 103.986 34.5165 103.691 34.5655C103.401 34.6101 103.118 34.6502 102.842 34.6859C102.57 34.7171 102.349 34.7439 102.179 34.7662C101.769 34.8197 101.386 34.9067 101.029 35.0271C100.677 35.143 100.391 35.3192 100.173 35.5555C99.9587 35.7874 99.8516 36.104 99.8516 36.5054C99.8516 37.0539 100.055 37.4686 100.46 37.7495C100.871 38.026 101.39 38.1643 102.019 38.1643ZM102.072 27.6757L103.705 24.5719H105.551L103.464 27.6757H102.072ZM109.996 39.3416V29.067H111.522V30.6189H111.629C111.816 30.1105 112.155 29.698 112.645 29.3814C113.136 29.0648 113.689 28.9065 114.304 28.9065C114.42 28.9065 114.565 28.9087 114.739 28.9132C114.913 28.9176 115.045 28.9243 115.134 28.9333V30.5386C115.08 30.5253 114.958 30.5052 114.766 30.4784C114.579 30.4472 114.38 30.4316 114.171 30.4316C113.671 30.4316 113.225 30.5364 112.833 30.746C112.445 30.9511 112.137 31.2365 111.91 31.6022C111.687 31.9634 111.575 32.3759 111.575 32.8397V39.3416H109.996ZM117.633 39.3416V29.067H119.212V39.3416H117.633ZM118.436 27.3546C118.128 27.3546 117.863 27.2498 117.64 27.0402C117.421 26.8306 117.312 26.5787 117.312 26.2844C117.312 25.99 117.421 25.7381 117.64 25.5285C117.863 25.3189 118.128 25.2141 118.436 25.2141C118.743 25.2141 119.006 25.3189 119.225 25.5285C119.448 25.7381 119.559 25.99 119.559 26.2844C119.559 26.5787 119.448 26.8306 119.225 27.0402C119.006 27.2498 118.743 27.3546 118.436 27.3546ZM126.905 39.5556C125.977 39.5556 125.163 39.3349 124.463 38.8934C123.768 38.4519 123.224 37.8343 122.831 37.0405C122.443 36.2467 122.249 35.3192 122.249 34.2578C122.249 33.1875 122.443 32.2533 122.831 31.4551C123.224 30.6568 123.768 30.037 124.463 29.5955C125.163 29.154 125.977 28.9333 126.905 28.9333C127.832 28.9333 128.644 29.154 129.34 29.5955C130.04 30.037 130.584 30.6568 130.972 31.4551C131.364 32.2533 131.56 33.1875 131.56 34.2578C131.56 35.3192 131.364 36.2467 130.972 37.0405C130.584 37.8343 130.04 38.4519 129.34 38.8934C128.644 39.3349 127.832 39.5556 126.905 39.5556ZM126.905 38.1375C127.609 38.1375 128.189 37.9569 128.644 37.5957C129.099 37.2345 129.436 36.7595 129.654 36.1709C129.873 35.5823 129.982 34.9446 129.982 34.2578C129.982 33.5711 129.873 32.9311 129.654 32.338C129.436 31.7449 129.099 31.2655 128.644 30.8999C128.189 30.5342 127.609 30.3514 126.905 30.3514C126.2 30.3514 125.621 30.5342 125.166 30.8999C124.711 31.2655 124.374 31.7449 124.156 32.338C123.937 32.9311 123.828 33.5711 123.828 34.2578C123.828 34.9446 123.937 35.5823 124.156 36.1709C124.374 36.7595 124.711 37.2345 125.166 37.5957C125.621 37.9569 126.2 38.1375 126.905 38.1375ZM136.953 37.4686L136.846 38.191C136.77 38.6994 136.654 39.2434 136.498 39.8232C136.346 40.4029 136.188 40.9492 136.023 41.462C135.858 41.9748 135.722 42.3829 135.615 42.6861H134.411C134.469 42.4007 134.545 42.0239 134.638 41.5557C134.732 41.0874 134.826 40.5634 134.919 39.9837C135.017 39.4084 135.098 38.8198 135.16 38.2178L135.24 37.4686H136.953ZM148.01 33.1608V39.3416H146.431V29.067H147.956V30.6724H148.09C148.331 30.1507 148.696 29.7315 149.187 29.4149C149.678 29.0938 150.311 28.9333 151.087 28.9333C151.782 28.9333 152.391 29.076 152.913 29.3614C153.435 29.6423 153.84 30.0704 154.13 30.6457C154.42 31.2165 154.565 31.9389 154.565 32.813V39.3416H152.986V32.92C152.986 32.1128 152.777 31.484 152.358 31.0336C151.938 30.5788 151.363 30.3514 150.632 30.3514C150.128 30.3514 149.678 30.4606 149.281 30.6791C148.888 30.8976 148.578 31.2165 148.351 31.6357C148.123 32.0549 148.01 32.5632 148.01 33.1608ZM162.252 39.5556C161.324 39.5556 160.51 39.3349 159.81 38.8934C159.114 38.4519 158.57 37.8343 158.178 37.0405C157.79 36.2467 157.596 35.3192 157.596 34.2578C157.596 33.1875 157.79 32.2533 158.178 31.4551C158.57 30.6568 159.114 30.037 159.81 29.5955C160.51 29.154 161.324 28.9333 162.252 28.9333C163.179 28.9333 163.991 29.154 164.687 29.5955C165.387 30.037 165.931 30.6568 166.319 31.4551C166.711 32.2533 166.907 33.1875 166.907 34.2578C166.907 35.3192 166.711 36.2467 166.319 37.0405C165.931 37.8343 165.387 38.4519 164.687 38.8934C163.991 39.3349 163.179 39.5556 162.252 39.5556ZM162.252 38.1375C162.956 38.1375 163.536 37.9569 163.991 37.5957C164.446 37.2345 164.782 36.7595 165.001 36.1709C165.219 35.5823 165.329 34.9446 165.329 34.2578C165.329 33.5711 165.219 32.9311 165.001 32.338C164.782 31.7449 164.446 31.2655 163.991 30.8999C163.536 30.5342 162.956 30.3514 162.252 30.3514C161.547 30.3514 160.967 30.5342 160.512 30.8999C160.058 31.2655 159.721 31.7449 159.502 32.338C159.284 32.9311 159.175 33.5711 159.175 34.2578C159.175 34.9446 159.284 35.5823 159.502 36.1709C159.721 36.7595 160.058 37.2345 160.512 37.5957C160.967 37.9569 161.547 38.1375 162.252 38.1375ZM169.945 39.3416V29.067H171.524V39.3416H169.945ZM170.748 27.3546C170.44 27.3546 170.175 27.2498 169.952 27.0402C169.733 26.8306 169.624 26.5787 169.624 26.2844C169.624 25.99 169.733 25.7381 169.952 25.5285C170.175 25.3189 170.44 25.2141 170.748 25.2141C171.055 25.2141 171.318 25.3189 171.537 25.5285C171.76 25.7381 171.871 25.99 171.871 26.2844C171.871 26.5787 171.76 26.8306 171.537 27.0402C171.318 27.2498 171.055 27.3546 170.748 27.3546ZM183.444 29.067L179.645 39.3416H178.04L174.24 29.067H175.953L178.789 37.2545H178.896L181.732 29.067H183.444ZM188.867 39.5824C188.216 39.5824 187.625 39.4597 187.094 39.2145C186.563 38.9647 186.142 38.6057 185.83 38.1375C185.518 37.6648 185.362 37.094 185.362 36.4251C185.362 35.8364 185.478 35.3593 185.709 34.9936C185.941 34.6235 186.251 34.3336 186.639 34.124C187.027 33.9144 187.455 33.7584 187.924 33.6558C188.396 33.5488 188.871 33.464 189.348 33.4016C189.973 33.3213 190.479 33.2611 190.867 33.221C191.259 33.1764 191.545 33.1028 191.723 33.0003C191.906 32.8977 191.997 32.7193 191.997 32.4651V32.4116C191.997 31.7516 191.817 31.2388 191.455 30.8731C191.099 30.5074 190.557 30.3246 189.83 30.3246C189.076 30.3246 188.485 30.4896 188.057 30.8196C187.629 31.1496 187.328 31.5019 187.154 31.8765L185.656 31.3413C185.924 30.717 186.28 30.2309 186.726 29.8831C187.177 29.5308 187.667 29.2856 188.198 29.1473C188.733 29.0046 189.259 28.9333 189.776 28.9333C190.106 28.9333 190.486 28.9734 190.914 29.0537C191.346 29.1295 191.763 29.2878 192.164 29.5286C192.57 29.7694 192.907 30.1328 193.175 30.6189C193.442 31.105 193.576 31.7561 193.576 32.5721V39.3416H191.997V37.9502H191.917C191.81 38.1732 191.632 38.4118 191.382 38.666C191.132 38.9201 190.8 39.1364 190.385 39.3148C189.97 39.4932 189.464 39.5824 188.867 39.5824ZM189.108 38.1643C189.732 38.1643 190.258 38.0416 190.686 37.7964C191.119 37.5511 191.444 37.2345 191.663 36.8465C191.886 36.4585 191.997 36.0505 191.997 35.6224V34.1775C191.93 34.2578 191.783 34.3314 191.556 34.3983C191.333 34.4607 191.074 34.5165 190.78 34.5655C190.49 34.6101 190.207 34.6502 189.93 34.6859C189.658 34.7171 189.438 34.7439 189.268 34.7662C188.858 34.8197 188.474 34.9067 188.118 35.0271C187.765 35.143 187.48 35.3192 187.261 35.5555C187.047 35.7874 186.94 36.104 186.94 36.5054C186.94 37.0539 187.143 37.4686 187.549 37.7495C187.959 38.026 188.479 38.1643 189.108 38.1643ZM200.965 39.5556C200.109 39.5556 199.353 39.3393 198.697 38.9068C198.042 38.4697 197.529 37.8543 197.159 37.0606C196.789 36.2623 196.604 35.3192 196.604 34.2311C196.604 33.1519 196.789 32.2154 197.159 31.4216C197.529 30.6278 198.044 30.0147 198.704 29.5821C199.364 29.1495 200.126 28.9333 200.992 28.9333C201.66 28.9333 202.189 29.0447 202.577 29.2677C202.969 29.4862 203.268 29.736 203.473 30.0169C203.683 30.2934 203.846 30.5208 203.962 30.6992H204.095V25.6422H205.674V39.3416H204.149V37.7629H203.962C203.846 37.9502 203.681 38.1866 203.467 38.472C203.253 38.7529 202.947 39.0049 202.55 39.2278C202.153 39.4463 201.625 39.5556 200.965 39.5556ZM201.179 38.1375C201.812 38.1375 202.347 37.9725 202.784 37.6425C203.221 37.3081 203.554 36.8465 203.781 36.2579C204.008 35.6648 204.122 34.9802 204.122 34.2043C204.122 33.4373 204.011 32.7661 203.788 32.1909C203.565 31.6111 203.235 31.1607 202.798 30.8397C202.361 30.5141 201.821 30.3514 201.179 30.3514C200.51 30.3514 199.953 30.523 199.507 30.8664C199.065 31.2053 198.733 31.6669 198.51 32.2511C198.291 32.8308 198.182 33.4819 198.182 34.2043C198.182 34.9356 198.294 35.6001 198.517 36.1977C198.744 36.7908 199.078 37.2635 199.52 37.6158C199.966 37.9636 200.519 38.1375 201.179 38.1375ZM213.586 39.5556C212.659 39.5556 211.845 39.3349 211.145 38.8934C210.449 38.4519 209.905 37.8343 209.513 37.0405C209.125 36.2467 208.931 35.3192 208.931 34.2578C208.931 33.1875 209.125 32.2533 209.513 31.4551C209.905 30.6568 210.449 30.037 211.145 29.5955C211.845 29.154 212.659 28.9333 213.586 28.9333C214.514 28.9333 215.326 29.154 216.021 29.5955C216.721 30.037 217.265 30.6568 217.653 31.4551C218.046 32.2533 218.242 33.1875 218.242 34.2578C218.242 35.3192 218.046 36.2467 217.653 37.0405C217.265 37.8343 216.721 38.4519 216.021 38.8934C215.326 39.3349 214.514 39.5556 213.586 39.5556ZM213.586 38.1375C214.291 38.1375 214.871 37.9569 215.326 37.5957C215.78 37.2345 216.117 36.7595 216.336 36.1709C216.554 35.5823 216.663 34.9446 216.663 34.2578C216.663 33.5711 216.554 32.9311 216.336 32.338C216.117 31.7449 215.78 31.2655 215.326 30.8999C214.871 30.5342 214.291 30.3514 213.586 30.3514C212.882 30.3514 212.302 30.5342 211.847 30.8999C211.392 31.2655 211.056 31.7449 210.837 32.338C210.619 32.9311 210.509 33.5711 210.509 34.2578C210.509 34.9446 210.619 35.5823 210.837 36.1709C211.056 36.7595 211.392 37.2345 211.847 37.5957C212.302 37.9569 212.882 38.1375 213.586 38.1375ZM228.557 31.3681L227.139 31.7695C227.05 31.5331 226.919 31.3034 226.745 31.0805C226.575 30.853 226.343 30.6657 226.049 30.5186C225.755 30.3714 225.378 30.2978 224.919 30.2978C224.29 30.2978 223.766 30.4428 223.347 30.7326C222.932 31.018 222.724 31.3815 222.724 31.823C222.724 32.2154 222.867 32.5253 223.153 32.7528C223.438 32.9802 223.884 33.1697 224.49 33.3213L226.016 33.6959C226.934 33.9189 227.619 34.26 228.069 34.7194C228.519 35.1742 228.745 35.7606 228.745 36.4786C228.745 37.0672 228.575 37.5935 228.236 38.0572C227.902 38.521 227.434 38.8867 226.832 39.1543C226.23 39.4218 225.529 39.5556 224.731 39.5556C223.683 39.5556 222.816 39.3282 222.129 38.8733C221.442 38.4185 221.008 37.754 220.825 36.88L222.323 36.5054C222.466 37.0583 222.736 37.4731 223.133 37.7495C223.534 38.026 224.058 38.1643 224.704 38.1643C225.44 38.1643 226.024 38.0082 226.457 37.696C226.894 37.3794 227.113 37.0004 227.113 36.5589C227.113 36.2021 226.988 35.9033 226.738 35.6625C226.488 35.4173 226.105 35.2344 225.587 35.114L223.875 34.7127C222.934 34.4897 222.243 34.1441 221.801 33.6759C221.364 33.2032 221.146 32.6123 221.146 31.9032C221.146 31.3235 221.309 30.8107 221.634 30.3647C221.964 29.9188 222.412 29.5687 222.979 29.3145C223.549 29.0604 224.196 28.9333 224.919 28.9333C225.935 28.9333 226.733 29.1562 227.313 29.6022C227.897 30.0481 228.312 30.6368 228.557 31.3681ZM241.982 39.5556C240.992 39.5556 240.138 39.3371 239.42 38.9001C238.707 38.4586 238.156 37.8432 237.768 37.0539C237.385 36.2601 237.193 35.337 237.193 34.2846C237.193 33.2321 237.385 32.3046 237.768 31.5019C238.156 30.6947 238.696 30.066 239.387 29.6155C240.083 29.1607 240.894 28.9333 241.822 28.9333C242.357 28.9333 242.885 29.0224 243.407 29.2008C243.929 29.3792 244.404 29.6691 244.832 30.0704C245.26 30.4673 245.601 30.9935 245.855 31.649C246.11 32.3046 246.237 33.1117 246.237 34.0705V34.7394H238.317V33.3748H244.631C244.631 32.7951 244.515 32.2778 244.283 31.823C244.056 31.3681 243.73 31.0091 243.307 30.746C242.888 30.4829 242.393 30.3514 241.822 30.3514C241.193 30.3514 240.649 30.5074 240.19 30.8196C239.735 31.1273 239.385 31.5286 239.14 32.0236C238.894 32.5186 238.772 33.0493 238.772 33.6157V34.5254C238.772 35.3013 238.905 35.9591 239.173 36.4987C239.445 37.0338 239.822 37.4418 240.303 37.7228C240.785 37.9993 241.345 38.1375 241.982 38.1375C242.397 38.1375 242.772 38.0795 243.106 37.9636C243.445 37.8432 243.737 37.6648 243.982 37.4285C244.228 37.1877 244.417 36.8889 244.551 36.5321L246.076 36.9602C245.916 37.4775 245.646 37.9324 245.267 38.3248C244.888 38.7128 244.419 39.016 243.862 39.2345C243.305 39.4486 242.678 39.5556 241.982 39.5556ZM259.366 39.5556C258.402 39.5556 257.573 39.3282 256.877 38.8733C256.182 38.4185 255.647 37.7919 255.272 36.9937C254.897 36.1954 254.71 35.2835 254.71 34.2578C254.71 33.2143 254.902 32.2934 255.285 31.4952C255.673 30.6925 256.213 30.066 256.904 29.6155C257.6 29.1607 258.411 28.9333 259.339 28.9333C260.061 28.9333 260.712 29.067 261.292 29.3346C261.872 29.6022 262.347 29.9768 262.717 30.4584C263.087 30.94 263.317 31.5019 263.406 32.144H261.827C261.707 31.6758 261.439 31.2611 261.025 30.8999C260.614 30.5342 260.061 30.3514 259.366 30.3514C258.75 30.3514 258.211 30.5119 257.747 30.833C257.288 31.1496 256.929 31.5978 256.67 32.1775C256.416 32.7528 256.289 33.4284 256.289 34.2043C256.289 34.9981 256.414 35.6893 256.663 36.2779C256.917 36.8666 257.274 37.3237 257.734 37.6492C258.197 37.9747 258.741 38.1375 259.366 38.1375C259.776 38.1375 260.148 38.0662 260.483 37.9235C260.817 37.7808 261.1 37.5756 261.332 37.3081C261.564 37.0405 261.729 36.7194 261.827 36.3448H263.406C263.317 36.9513 263.096 37.4976 262.744 37.9837C262.396 38.4653 261.934 38.8488 261.359 39.1342C260.788 39.4151 260.124 39.5556 259.366 39.5556ZM267.92 33.1608V39.3416H266.342V25.6422H267.92V30.6724H268.054C268.295 30.1418 268.656 29.7203 269.138 29.4082C269.624 29.0916 270.27 28.9333 271.077 28.9333C271.778 28.9333 272.391 29.0737 272.917 29.3547C273.443 29.6312 273.851 30.057 274.141 30.6323C274.435 31.2031 274.583 31.93 274.583 32.813V39.3416H273.004V32.92C273.004 32.1039 272.792 31.4729 272.368 31.027C271.949 30.5766 271.367 30.3514 270.623 30.3514C270.105 30.3514 269.642 30.4606 269.231 30.6791C268.825 30.8976 268.504 31.2165 268.268 31.6357C268.036 32.0549 267.92 32.5632 267.92 33.1608ZM281.122 39.5824C280.471 39.5824 279.88 39.4597 279.349 39.2145C278.819 38.9647 278.397 38.6057 278.085 38.1375C277.773 37.6648 277.617 37.094 277.617 36.4251C277.617 35.8364 277.733 35.3593 277.965 34.9936C278.197 34.6235 278.507 34.3336 278.894 34.124C279.282 33.9144 279.711 33.7584 280.179 33.6558C280.651 33.5488 281.126 33.464 281.604 33.4016C282.228 33.3213 282.734 33.2611 283.122 33.221C283.514 33.1764 283.8 33.1028 283.978 33.0003C284.161 32.8977 284.252 32.7193 284.252 32.4651V32.4116C284.252 31.7516 284.072 31.2388 283.711 30.8731C283.354 30.5074 282.812 30.3246 282.085 30.3246C281.332 30.3246 280.741 30.4896 280.313 30.8196C279.884 31.1496 279.583 31.5019 279.41 31.8765L277.911 31.3413C278.179 30.717 278.536 30.2309 278.981 29.8831C279.432 29.5308 279.922 29.2856 280.453 29.1473C280.988 29.0046 281.514 28.9333 282.032 28.9333C282.362 28.9333 282.741 28.9734 283.169 29.0537C283.601 29.1295 284.018 29.2878 284.42 29.5286C284.826 29.7694 285.162 30.1328 285.43 30.6189C285.697 31.105 285.831 31.7561 285.831 32.5721V39.3416H284.252V37.9502H284.172C284.065 38.1732 283.887 38.4118 283.637 38.666C283.387 38.9201 283.055 39.1364 282.64 39.3148C282.226 39.4932 281.72 39.5824 281.122 39.5824ZM281.363 38.1643C281.987 38.1643 282.513 38.0416 282.941 37.7964C283.374 37.5511 283.7 37.2345 283.918 36.8465C284.141 36.4585 284.252 36.0505 284.252 35.6224V34.1775C284.186 34.2578 284.038 34.3314 283.811 34.3983C283.588 34.4607 283.329 34.5165 283.035 34.5655C282.745 34.6101 282.462 34.6502 282.186 34.6859C281.914 34.7171 281.693 34.7439 281.523 34.7662C281.113 34.8197 280.73 34.9067 280.373 35.0271C280.02 35.143 279.735 35.3192 279.517 35.5555C279.303 35.7874 279.195 36.104 279.195 36.5054C279.195 37.0539 279.398 37.4686 279.804 37.7495C280.214 38.026 280.734 38.1643 281.363 38.1643ZM281.416 27.6757L283.048 24.5719H284.895L282.808 27.6757H281.416ZM299.146 39.5556C298.29 39.5556 297.534 39.3393 296.878 38.9068C296.223 38.4697 295.71 37.8543 295.34 37.0606C294.969 36.2623 294.784 35.3192 294.784 34.2311C294.784 33.1519 294.969 32.2154 295.34 31.4216C295.71 30.6278 296.225 30.0147 296.885 29.5821C297.545 29.1495 298.307 28.9333 299.173 28.9333C299.841 28.9333 300.37 29.0447 300.758 29.2677C301.15 29.4862 301.449 29.736 301.654 30.0169C301.864 30.2934 302.027 30.5208 302.142 30.6992H302.276V25.6422H303.855V39.3416H302.33V37.7629H302.142C302.027 37.9502 301.862 38.1866 301.647 38.472C301.433 38.7529 301.128 39.0049 300.731 39.2278C300.334 39.4463 299.806 39.5556 299.146 39.5556ZM299.36 38.1375C299.993 38.1375 300.528 37.9725 300.965 37.6425C301.402 37.3081 301.734 36.8465 301.962 36.2579C302.189 35.6648 302.303 34.9802 302.303 34.2043C302.303 33.4373 302.192 32.7661 301.969 32.1909C301.746 31.6111 301.416 31.1607 300.979 30.8397C300.542 30.5141 300.002 30.3514 299.36 30.3514C298.691 30.3514 298.133 30.523 297.688 30.8664C297.246 31.2053 296.914 31.6669 296.691 32.2511C296.472 32.8308 296.363 33.4819 296.363 34.2043C296.363 34.9356 296.475 35.6001 296.698 36.1977C296.925 36.7908 297.259 37.2635 297.701 37.6158C298.147 37.9636 298.7 38.1375 299.36 38.1375ZM311.901 39.5556C310.911 39.5556 310.057 39.3371 309.339 38.9001C308.626 38.4586 308.075 37.8432 307.687 37.0539C307.303 36.2601 307.112 35.337 307.112 34.2846C307.112 33.2321 307.303 32.3046 307.687 31.5019C308.075 30.6947 308.614 30.066 309.306 29.6155C310.001 29.1607 310.813 28.9333 311.74 28.9333C312.276 28.9333 312.804 29.0224 313.326 29.2008C313.848 29.3792 314.323 29.6691 314.751 30.0704C315.179 30.4673 315.52 30.9935 315.774 31.649C316.028 32.3046 316.155 33.1117 316.155 34.0705V34.7394H308.235V33.3748H314.55C314.55 32.7951 314.434 32.2778 314.202 31.823C313.975 31.3681 313.649 31.0091 313.225 30.746C312.806 30.4829 312.311 30.3514 311.74 30.3514C311.112 30.3514 310.568 30.5074 310.108 30.8196C309.653 31.1273 309.303 31.5286 309.058 32.0236C308.813 32.5186 308.69 33.0493 308.69 33.6157V34.5254C308.69 35.3013 308.824 35.9591 309.092 36.4987C309.364 37.0338 309.74 37.4418 310.222 37.7228C310.704 37.9993 311.263 38.1375 311.901 38.1375C312.316 38.1375 312.69 38.0795 313.025 37.9636C313.364 37.8432 313.656 37.6648 313.901 37.4285C314.146 37.1877 314.336 36.8889 314.47 36.5321L315.995 36.9602C315.834 37.4775 315.564 37.9324 315.185 38.3248C314.806 38.7128 314.338 39.016 313.781 39.2345C313.223 39.4486 312.597 39.5556 311.901 39.5556ZM325.11 39.3416V29.067H326.635V30.6189H326.742C326.93 30.1105 327.269 29.698 327.759 29.3814C328.25 29.0648 328.803 28.9065 329.418 28.9065C329.534 28.9065 329.679 28.9087 329.853 28.9132C330.027 28.9176 330.158 28.9243 330.248 28.9333V30.5386C330.194 30.5253 330.071 30.5052 329.88 30.4784C329.692 30.4472 329.494 30.4316 329.284 30.4316C328.785 30.4316 328.339 30.5364 327.946 30.746C327.559 30.9511 327.251 31.2365 327.023 31.6022C326.8 31.9634 326.689 32.3759 326.689 32.8397V39.3416H325.11ZM336.742 39.5556C335.752 39.5556 334.898 39.3371 334.18 38.9001C333.466 38.4586 332.916 37.8432 332.528 37.0539C332.144 36.2601 331.952 35.337 331.952 34.2846C331.952 33.2321 332.144 32.3046 332.528 31.5019C332.916 30.6947 333.455 30.066 334.146 29.6155C334.842 29.1607 335.654 28.9333 336.581 28.9333C337.116 28.9333 337.645 29.0224 338.167 29.2008C338.688 29.3792 339.163 29.6691 339.591 30.0704C340.019 30.4673 340.361 30.9935 340.615 31.649C340.869 32.3046 340.996 33.1117 340.996 34.0705V34.7394H333.076V33.3748H339.391C339.391 32.7951 339.275 32.2778 339.043 31.823C338.815 31.3681 338.49 31.0091 338.066 30.746C337.647 30.4829 337.152 30.3514 336.581 30.3514C335.952 30.3514 335.408 30.5074 334.949 30.8196C334.494 31.1273 334.144 31.5286 333.899 32.0236C333.654 32.5186 333.531 33.0493 333.531 33.6157V34.5254C333.531 35.3013 333.665 35.9591 333.932 36.4987C334.204 37.0338 334.581 37.4418 335.063 37.7228C335.544 37.9993 336.104 38.1375 336.742 38.1375C337.157 38.1375 337.531 38.0795 337.866 37.9636C338.204 37.8432 338.497 37.6648 338.742 37.4285C338.987 37.1877 339.177 36.8889 339.31 36.5321L340.836 36.9602C340.675 37.4775 340.405 37.9324 340.026 38.3248C339.647 38.7128 339.179 39.016 338.621 39.2345C338.064 39.4486 337.437 39.5556 336.742 39.5556ZM352.114 29.067L348.315 39.3416H346.709L342.91 29.067H344.622L347.459 37.2545H347.566L350.402 29.067H352.114ZM358.766 39.5556C357.776 39.5556 356.922 39.3371 356.204 38.9001C355.49 38.4586 354.939 37.8432 354.552 37.0539C354.168 36.2601 353.976 35.337 353.976 34.2846C353.976 33.2321 354.168 32.3046 354.552 31.5019C354.939 30.6947 355.479 30.066 356.17 29.6155C356.866 29.1607 357.678 28.9333 358.605 28.9333C359.14 28.9333 359.669 29.0224 360.19 29.2008C360.712 29.3792 361.187 29.6691 361.615 30.0704C362.043 30.4673 362.384 30.9935 362.639 31.649C362.893 32.3046 363.02 33.1117 363.02 34.0705V34.7394H355.1V33.3748H361.415C361.415 32.7951 361.299 32.2778 361.067 31.823C360.839 31.3681 360.514 31.0091 360.09 30.746C359.671 30.4829 359.176 30.3514 358.605 30.3514C357.976 30.3514 357.432 30.5074 356.973 30.8196C356.518 31.1273 356.168 31.5286 355.923 32.0236C355.678 32.5186 355.555 33.0493 355.555 33.6157V34.5254C355.555 35.3013 355.689 35.9591 355.956 36.4987C356.228 37.0338 356.605 37.4418 357.087 37.7228C357.568 37.9993 358.128 38.1375 358.766 38.1375C359.18 38.1375 359.555 38.0795 359.889 37.9636C360.228 37.8432 360.52 37.6648 360.766 37.4285C361.011 37.1877 361.201 36.8889 361.334 36.5321L362.859 36.9602C362.699 37.4775 362.429 37.9324 362.05 38.3248C361.671 38.7128 361.203 39.016 360.645 39.2345C360.088 39.4486 359.461 39.5556 358.766 39.5556ZM367.628 25.6422V39.3416H366.049V25.6422H367.628ZM374.171 39.5824C373.52 39.5824 372.929 39.4597 372.398 39.2145C371.867 38.9647 371.446 38.6057 371.134 38.1375C370.822 37.6648 370.666 37.094 370.666 36.4251C370.666 35.8364 370.781 35.3593 371.013 34.9936C371.245 34.6235 371.555 34.3336 371.943 34.124C372.331 33.9144 372.759 33.7584 373.227 33.6558C373.7 33.5488 374.175 33.464 374.652 33.4016C375.277 33.3213 375.783 33.2611 376.171 33.221C376.563 33.1764 376.849 33.1028 377.027 33.0003C377.21 32.8977 377.301 32.7193 377.301 32.4651V32.4116C377.301 31.7516 377.121 31.2388 376.759 30.8731C376.403 30.5074 375.861 30.3246 375.134 30.3246C374.38 30.3246 373.789 30.4896 373.361 30.8196C372.933 31.1496 372.632 31.5019 372.458 31.8765L370.96 31.3413C371.227 30.717 371.584 30.2309 372.03 29.8831C372.481 29.5308 372.971 29.2856 373.502 29.1473C374.037 29.0046 374.563 28.9333 375.08 28.9333C375.41 28.9333 375.789 28.9734 376.218 29.0537C376.65 29.1295 377.067 29.2878 377.468 29.5286C377.874 29.7694 378.211 30.1328 378.478 30.6189C378.746 31.105 378.88 31.7561 378.88 32.5721V39.3416H377.301V37.9502H377.221C377.114 38.1732 376.935 38.4118 376.686 38.666C376.436 38.9201 376.104 39.1364 375.689 39.3148C375.274 39.4932 374.768 39.5824 374.171 39.5824ZM374.411 38.1643C375.036 38.1643 375.562 38.0416 375.99 37.7964C376.423 37.5511 376.748 37.2345 376.967 36.8465C377.19 36.4585 377.301 36.0505 377.301 35.6224V34.1775C377.234 34.2578 377.087 34.3314 376.86 34.3983C376.637 34.4607 376.378 34.5165 376.084 34.5655C375.794 34.6101 375.511 34.6502 375.234 34.6859C374.962 34.7171 374.741 34.7439 374.572 34.7662C374.162 34.8197 373.778 34.9067 373.421 35.0271C373.069 35.143 372.784 35.3192 372.565 35.5555C372.351 35.7874 372.244 36.104 372.244 36.5054C372.244 37.0539 372.447 37.4686 372.853 37.7495C373.263 38.026 373.783 38.1643 374.411 38.1643ZM386.563 39.5556C385.6 39.5556 384.77 39.3282 384.075 38.8733C383.379 38.4185 382.844 37.7919 382.469 36.9937C382.095 36.1954 381.907 35.2835 381.907 34.2578C381.907 33.2143 382.099 32.2934 382.483 31.4952C382.871 30.6925 383.41 30.066 384.101 29.6155C384.797 29.1607 385.609 28.9333 386.536 28.9333C387.259 28.9333 387.91 29.067 388.49 29.3346C389.069 29.6022 389.544 29.9768 389.914 30.4584C390.284 30.94 390.514 31.5019 390.603 32.144H389.025C388.904 31.6758 388.637 31.2611 388.222 30.8999C387.812 30.5342 387.259 30.3514 386.563 30.3514C385.948 30.3514 385.408 30.5119 384.944 30.833C384.485 31.1496 384.126 31.5978 383.867 32.1775C383.613 32.7528 383.486 33.4284 383.486 34.2043C383.486 34.9981 383.611 35.6893 383.861 36.2779C384.115 36.8666 384.472 37.3237 384.931 37.6492C385.395 37.9747 385.939 38.1375 386.563 38.1375C386.973 38.1375 387.346 38.0662 387.68 37.9235C388.015 37.7808 388.298 37.5756 388.53 37.3081C388.762 37.0405 388.927 36.7194 389.025 36.3448H390.603C390.514 36.9513 390.293 37.4976 389.941 37.9837C389.593 38.4653 389.132 38.8488 388.556 39.1342C387.986 39.4151 387.321 39.5556 386.563 39.5556ZM385.814 39.288H387.125L387.018 39.8232C387.366 39.8767 387.685 40.0216 387.974 40.258C388.264 40.4988 388.409 40.8801 388.409 41.4018C388.409 41.9771 388.171 42.4453 387.694 42.8065C387.221 43.1722 386.523 43.355 385.6 43.355L385.546 42.3115C385.961 42.3115 386.304 42.2446 386.576 42.1109C386.853 41.9815 386.991 41.763 386.991 41.4553C386.991 41.1476 386.877 40.938 386.65 40.8265C386.423 40.7151 386.055 40.6392 385.546 40.5991L385.814 39.288ZM396.562 39.5824C395.911 39.5824 395.32 39.4597 394.79 39.2145C394.259 38.9647 393.838 38.6057 393.526 38.1375C393.213 37.6648 393.057 37.094 393.057 36.4251C393.057 35.8364 393.173 35.3593 393.405 34.9936C393.637 34.6235 393.947 34.3336 394.335 34.124C394.723 33.9144 395.151 33.7584 395.619 33.6558C396.092 33.5488 396.567 33.464 397.044 33.4016C397.668 33.3213 398.174 33.2611 398.562 33.221C398.955 33.1764 399.24 33.1028 399.419 33.0003C399.601 32.8977 399.693 32.7193 399.693 32.4651V32.4116C399.693 31.7516 399.512 31.2388 399.151 30.8731C398.794 30.5074 398.253 30.3246 397.526 30.3246C396.772 30.3246 396.181 30.4896 395.753 30.8196C395.325 31.1496 395.024 31.5019 394.85 31.8765L393.352 31.3413C393.619 30.717 393.976 30.2309 394.422 29.8831C394.872 29.5308 395.363 29.2856 395.893 29.1473C396.429 29.0046 396.955 28.9333 397.472 28.9333C397.802 28.9333 398.181 28.9734 398.609 29.0537C399.042 29.1295 399.459 29.2878 399.86 29.5286C400.266 29.7694 400.603 30.1328 400.87 30.6189C401.138 31.105 401.272 31.7561 401.272 32.5721V39.3416H399.693V37.9502H399.613C399.506 38.1732 399.327 38.4118 399.078 38.666C398.828 38.9201 398.496 39.1364 398.081 39.3148C397.666 39.4932 397.16 39.5824 396.562 39.5824ZM396.803 38.1643C397.428 38.1643 397.954 38.0416 398.382 37.7964C398.814 37.5511 399.14 37.2345 399.358 36.8465C399.581 36.4585 399.693 36.0505 399.693 35.6224V34.1775C399.626 34.2578 399.479 34.3314 399.251 34.3983C399.028 34.4607 398.77 34.5165 398.475 34.5655C398.186 34.6101 397.902 34.6502 397.626 34.6859C397.354 34.7171 397.133 34.7439 396.964 34.7662C396.553 34.8197 396.17 34.9067 395.813 35.0271C395.461 35.143 395.176 35.3192 394.957 35.5555C394.743 35.7874 394.636 36.104 394.636 36.5054C394.636 37.0539 394.839 37.4686 395.245 37.7495C395.655 38.026 396.174 38.1643 396.803 38.1643ZM395.519 27.8362L394.288 27.7827C394.288 27.1004 394.482 26.543 394.87 26.1104C395.262 25.6734 395.746 25.4549 396.322 25.4549C396.576 25.4549 396.801 25.4995 396.997 25.5887C397.193 25.6734 397.381 25.7715 397.559 25.883C397.737 25.9945 397.92 26.0948 398.108 26.184C398.299 26.2688 398.516 26.3111 398.756 26.3111C399.011 26.3111 399.225 26.213 399.399 26.0168C399.577 25.8161 399.666 25.5753 399.666 25.2944L400.87 25.4014C400.87 26.0971 400.674 26.65 400.282 27.0603C399.894 27.4706 399.412 27.6757 398.837 27.6757C398.529 27.6757 398.275 27.6333 398.074 27.5486C397.873 27.4594 397.695 27.3591 397.539 27.2476C397.383 27.1361 397.218 27.038 397.044 26.9533C396.87 26.8641 396.656 26.8195 396.402 26.8195C396.148 26.8195 395.936 26.9198 395.766 27.1205C395.601 27.3167 395.519 27.5553 395.519 27.8362ZM408.955 39.5556C408.027 39.5556 407.213 39.3349 406.513 38.8934C405.818 38.4519 405.274 37.8343 404.881 37.0405C404.493 36.2467 404.299 35.3192 404.299 34.2578C404.299 33.1875 404.493 32.2533 404.881 31.4551C405.274 30.6568 405.818 30.037 406.513 29.5955C407.213 29.154 408.027 28.9333 408.955 28.9333C409.882 28.9333 410.694 29.154 411.39 29.5955C412.09 30.037 412.634 30.6568 413.022 31.4551C413.414 32.2533 413.61 33.1875 413.61 34.2578C413.61 35.3192 413.414 36.2467 413.022 37.0405C412.634 37.8343 412.09 38.4519 411.39 38.8934C410.694 39.3349 409.882 39.5556 408.955 39.5556ZM408.955 38.1375C409.659 38.1375 410.239 37.9569 410.694 37.5957C411.149 37.2345 411.486 36.7595 411.704 36.1709C411.923 35.5823 412.032 34.9446 412.032 34.2578C412.032 33.5711 411.923 32.9311 411.704 32.338C411.486 31.7449 411.149 31.2655 410.694 30.8999C410.239 30.5342 409.659 30.3514 408.955 30.3514C408.25 30.3514 407.67 30.5342 407.216 30.8999C406.761 31.2655 406.424 31.7449 406.206 32.338C405.987 32.9311 405.878 33.5711 405.878 34.2578C405.878 34.9446 405.987 35.5823 406.206 36.1709C406.424 36.7595 406.761 37.2345 407.216 37.5957C407.67 37.9569 408.25 38.1375 408.955 38.1375ZM417.799 39.4486C417.469 39.4486 417.185 39.3304 416.949 39.0941C416.713 38.8577 416.595 38.5745 416.595 38.2445C416.595 37.9145 416.713 37.6314 416.949 37.395C417.185 37.1587 417.469 37.0405 417.799 37.0405C418.129 37.0405 418.412 37.1587 418.648 37.395C418.885 37.6314 419.003 37.9145 419.003 38.2445C419.003 38.463 418.947 38.6637 418.835 38.8466C418.728 39.0294 418.583 39.1766 418.401 39.288C418.222 39.3951 418.022 39.4486 417.799 39.4486Z" fill="#B3B3B3"/>
</svg>
