<svg width="467" height="45" viewBox="0 0 467 45" fill="none" xmlns="http://www.w3.org/2000/svg">
<path d="M0.214082 14.7697V1.0703H8.48185V2.54191H1.87299V7.17079H8.05375V8.6424H1.87299V13.298H8.58888V14.7697H0.214082ZM13.4644 8.58889V14.7697H11.8857V4.49514H13.4109V6.10053H13.5446C13.7854 5.57878 14.1511 5.15959 14.6417 4.84298C15.1322 4.5219 15.7654 4.36136 16.5414 4.36136C17.237 4.36136 17.8458 4.50406 18.3675 4.78946C18.8893 5.07041 19.2951 5.49851 19.5849 6.07378C19.8748 6.64458 20.0197 7.36701 20.0197 8.24106V14.7697H18.4411V8.34808C18.4411 7.54093 18.2315 6.91215 17.8123 6.46175C17.3931 6.00688 16.8179 5.77945 16.0865 5.77945C15.5826 5.77945 15.1322 5.88871 14.7353 6.10722C14.3429 6.32573 14.0329 6.64458 13.8055 7.06377C13.5781 7.48295 13.4644 7.99133 13.4644 8.58889ZM30.8101 6.7962L29.392 7.19755C29.3028 6.9612 29.1712 6.73154 28.9973 6.50857C28.8279 6.28114 28.596 6.09384 28.3017 5.94668C28.0073 5.79952 27.6305 5.72594 27.1712 5.72594C26.5424 5.72594 26.0184 5.87087 25.5992 6.16074C25.1845 6.44614 24.9772 6.80958 24.9772 7.25106C24.9772 7.64349 25.1199 7.95342 25.4053 8.18085C25.6907 8.40828 26.1366 8.59781 26.7431 8.74943L28.2682 9.12402C29.1868 9.34699 29.8714 9.68814 30.3218 10.1475C30.7722 10.6023 30.9974 11.1887 30.9974 11.9067C30.9974 12.4953 30.8279 13.0216 30.489 13.4853C30.1545 13.9491 29.6863 14.3148 29.0843 14.5824C28.4823 14.8499 27.7821 14.9837 26.9839 14.9837C25.9359 14.9837 25.0686 14.7563 24.3818 14.3014C23.6951 13.8466 23.2603 13.1821 23.0774 12.3081L24.5758 11.9335C24.7185 12.4864 24.9883 12.9012 25.3852 13.1776C25.7865 13.4541 26.3105 13.5924 26.9571 13.5924C27.6929 13.5924 28.2771 13.4363 28.7097 13.1241C29.1467 12.8075 29.3652 12.4285 29.3652 11.987C29.3652 11.6302 29.2404 11.3314 28.9906 11.0906C28.7409 10.8454 28.3574 10.6625 27.8401 10.5421L26.1277 10.1408C25.1867 9.9178 24.4955 9.57219 24.0541 9.10396C23.617 8.63126 23.3985 8.04038 23.3985 7.33133C23.3985 6.75161 23.5613 6.23877 23.8868 5.79283C24.2168 5.34689 24.665 4.99683 25.2313 4.74264C25.8021 4.48845 26.4488 4.36136 27.1712 4.36136C28.1879 4.36136 28.9862 4.58433 29.5659 5.03027C30.1501 5.47621 30.5648 6.06486 30.8101 6.7962ZM37.0251 15.0105C36.374 15.0105 35.7831 14.8878 35.2524 14.6426C34.7218 14.3928 34.3004 14.0338 33.9882 13.5656C33.676 13.0929 33.52 12.5221 33.52 11.8532C33.52 11.2645 33.6359 10.7874 33.8678 10.4217C34.0997 10.0516 34.4096 9.76172 34.7976 9.55213C35.1856 9.34253 35.6137 9.18645 36.0819 9.08389C36.5546 8.97686 37.0295 8.89213 37.5067 8.8297C38.131 8.74943 38.6371 8.68923 39.0251 8.64909C39.4175 8.6045 39.703 8.53092 39.8813 8.42835C40.0642 8.32579 40.1556 8.14741 40.1556 7.89322V7.83971C40.1556 7.17971 39.975 6.66688 39.6138 6.30121C39.257 5.93553 38.7152 5.7527 37.9883 5.7527C37.2347 5.7527 36.6438 5.9177 36.2157 6.24769C35.7876 6.57769 35.4866 6.92999 35.3126 7.30458L33.8143 6.76945C34.0818 6.14513 34.4386 5.65905 34.8845 5.31121C35.3349 4.95892 35.8255 4.71365 36.3562 4.57541C36.8913 4.43271 37.4175 4.36136 37.9348 4.36136C38.2648 4.36136 38.6438 4.40149 39.0719 4.48176C39.5045 4.55757 39.9215 4.71588 40.3228 4.95669C40.7286 5.1975 41.0653 5.56094 41.3329 6.04702C41.6004 6.5331 41.7342 7.18417 41.7342 8.00025V14.7697H40.1556V13.3783H40.0753C39.9683 13.6013 39.7899 13.8399 39.5402 14.0941C39.2905 14.3482 38.9582 14.5645 38.5435 14.7429C38.1288 14.9213 37.6226 15.0105 37.0251 15.0105ZM37.2659 13.5924C37.8902 13.5924 38.4164 13.4697 38.8445 13.2245C39.2771 12.9792 39.6026 12.6626 39.8211 12.2746C40.0441 11.8866 40.1556 11.4786 40.1556 11.0505V9.60564C40.0887 9.68591 39.9415 9.75949 39.7141 9.82638C39.4911 9.88881 39.2325 9.94456 38.9382 9.99361C38.6483 10.0382 38.3651 10.0783 38.0886 10.114C37.8166 10.1452 37.5959 10.172 37.4264 10.1943C37.0161 10.2478 36.6326 10.3348 36.2759 10.4552C35.9236 10.5711 35.6382 10.7473 35.4197 10.9836C35.2056 11.2155 35.0986 11.5321 35.0986 11.9335C35.0986 12.482 35.3015 12.8967 35.7073 13.1776C36.1176 13.4541 36.6371 13.5924 37.2659 13.5924ZM45.2435 14.7697V4.49514H46.8221V14.7697H45.2435ZM46.0461 2.78272C45.7384 2.78272 45.4731 2.67793 45.2501 2.46833C45.0316 2.25874 44.9224 2.00678 44.9224 1.71246C44.9224 1.41814 45.0316 1.16618 45.2501 0.956587C45.4731 0.746994 45.7384 0.642198 46.0461 0.642198C46.3538 0.642198 46.617 0.746994 46.8355 0.956587C47.0584 1.16618 47.1699 1.41814 47.1699 1.71246C47.1699 2.00678 47.0584 2.25874 46.8355 2.46833C46.617 2.67793 46.3538 2.78272 46.0461 2.78272ZM54.5154 14.9837C53.5878 14.9837 52.774 14.763 52.0738 14.3215C51.3782 13.88 50.8341 13.2624 50.4417 12.4686C50.0537 11.6748 49.8597 10.7473 49.8597 9.68591C49.8597 8.61565 50.0537 7.6814 50.4417 6.88316C50.8341 6.08492 51.3782 5.46506 52.0738 5.02358C52.774 4.5821 53.5878 4.36136 54.5154 4.36136C55.4429 4.36136 56.2545 4.5821 56.9502 5.02358C57.6503 5.46506 58.1944 6.08492 58.5824 6.88316C58.9748 7.6814 59.171 8.61565 59.171 9.68591C59.171 10.7473 58.9748 11.6748 58.5824 12.4686C58.1944 13.2624 57.6503 13.88 56.9502 14.3215C56.2545 14.763 55.4429 14.9837 54.5154 14.9837ZM54.5154 13.5656C55.22 13.5656 55.7997 13.385 56.2545 13.0238C56.7094 12.6626 57.0461 12.1876 57.2646 11.599C57.4831 11.0104 57.5924 10.3727 57.5924 9.68591C57.5924 8.99916 57.4831 8.35923 57.2646 7.76613C57.0461 7.17302 56.7094 6.69364 56.2545 6.32796C55.7997 5.96229 55.22 5.77945 54.5154 5.77945C53.8108 5.77945 53.2311 5.96229 52.7762 6.32796C52.3213 6.69364 51.9847 7.17302 51.7661 7.76613C51.5476 8.35923 51.4384 8.99916 51.4384 9.68591C51.4384 10.3727 51.5476 11.0104 51.7661 11.599C51.9847 12.1876 52.3213 12.6626 52.7762 13.0238C53.2311 13.385 53.8108 13.5656 54.5154 13.5656ZM69.4864 6.7962L68.0683 7.19755C67.9792 6.9612 67.8476 6.73154 67.6737 6.50857C67.5042 6.28114 67.2723 6.09384 66.978 5.94668C66.6837 5.79952 66.3069 5.72594 65.8476 5.72594C65.2188 5.72594 64.6948 5.87087 64.2756 6.16074C63.8609 6.44614 63.6535 6.80958 63.6535 7.25106C63.6535 7.64349 63.7962 7.95342 64.0816 8.18085C64.367 8.40828 64.813 8.59781 65.4194 8.74943L66.9446 9.12402C67.8632 9.34699 68.5477 9.68814 68.9981 10.1475C69.4485 10.6023 69.6737 11.1887 69.6737 11.9067C69.6737 12.4953 69.5043 13.0216 69.1654 13.4853C68.8309 13.9491 68.3627 14.3148 67.7606 14.5824C67.1586 14.8499 66.4585 14.9837 65.6603 14.9837C64.6123 14.9837 63.7449 14.7563 63.0582 14.3014C62.3714 13.8466 61.9366 13.1821 61.7538 12.3081L63.2522 11.9335C63.3949 12.4864 63.6647 12.9012 64.0616 13.1776C64.4629 13.4541 64.9869 13.5924 65.6335 13.5924C66.3693 13.5924 66.9535 13.4363 67.3861 13.1241C67.8231 12.8075 68.0416 12.4285 68.0416 11.987C68.0416 11.6302 67.9167 11.3314 67.667 11.0906C67.4173 10.8454 67.0338 10.6625 66.5165 10.5421L64.804 10.1408C63.8631 9.9178 63.1719 9.57219 62.7304 9.10396C62.2934 8.63126 62.0749 8.04038 62.0749 7.33133C62.0749 6.75161 62.2376 6.23877 62.5632 5.79283C62.8932 5.34689 63.3414 4.99683 63.9077 4.74264C64.4785 4.48845 65.1251 4.36136 65.8476 4.36136C66.8643 4.36136 67.6625 4.58433 68.2423 5.03027C68.8264 5.47621 69.2412 6.06486 69.4864 6.7962ZM78.6036 14.7697V4.49514H80.1823V14.7697H78.6036ZM79.4063 2.78272C79.0986 2.78272 78.8333 2.67793 78.6103 2.46833C78.3918 2.25874 78.2825 2.00678 78.2825 1.71246C78.2825 1.41814 78.3918 1.16618 78.6103 0.956587C78.8333 0.746994 79.0986 0.642198 79.4063 0.642198C79.714 0.642198 79.9771 0.746994 80.1956 0.956587C80.4186 1.16618 80.5301 1.41814 80.5301 1.71246C80.5301 2.00678 80.4186 2.25874 80.1956 2.46833C79.9771 2.67793 79.714 2.78272 79.4063 2.78272ZM85.2802 8.58889V14.7697H83.7015V4.49514H85.2266V6.10053H85.3604C85.6012 5.57878 85.9669 5.15959 86.4574 4.84298C86.948 4.5219 87.5812 4.36136 88.3572 4.36136C89.0528 4.36136 89.6615 4.50406 90.1833 4.78946C90.705 5.07041 91.1109 5.49851 91.4007 6.07378C91.6906 6.64458 91.8355 7.36701 91.8355 8.24106V14.7697H90.2569V8.34808C90.2569 7.54093 90.0473 6.91215 89.6281 6.46175C89.2089 6.00688 88.6336 5.77945 87.9023 5.77945C87.3984 5.77945 86.948 5.88871 86.5511 6.10722C86.1587 6.32573 85.8487 6.64458 85.6213 7.06377C85.3939 7.48295 85.2802 7.99133 85.2802 8.58889ZM99.2278 14.9837C98.3716 14.9837 97.6157 14.7674 96.9602 14.3349C96.3046 13.8978 95.7918 13.2824 95.4217 12.4887C95.0515 11.6904 94.8665 10.7473 94.8665 9.65915C94.8665 8.57997 95.0515 7.64349 95.4217 6.84972C95.7918 6.05594 96.3069 5.44277 96.9669 5.0102C97.6269 4.57764 98.3894 4.36136 99.2545 4.36136C99.9235 4.36136 100.452 4.47284 100.84 4.69581C101.232 4.91433 101.531 5.16405 101.736 5.445C101.946 5.72148 102.109 5.94891 102.225 6.12729H102.358V1.0703H103.937V14.7697H102.412V13.191H102.225C102.109 13.3783 101.944 13.6147 101.73 13.9001C101.515 14.181 101.21 14.433 100.813 14.6559C100.416 14.8744 99.8878 14.9837 99.2278 14.9837ZM99.4418 13.5656C100.075 13.5656 100.61 13.4006 101.047 13.0706C101.484 12.7362 101.816 12.2746 102.044 11.686C102.271 11.0929 102.385 10.4083 102.385 9.6324C102.385 8.86538 102.274 8.19423 102.051 7.61897C101.828 7.03924 101.498 6.58884 101.061 6.26776C100.624 5.94222 100.084 5.77945 99.4418 5.77945C98.7729 5.77945 98.2155 5.95114 97.7696 6.29452C97.3281 6.63343 96.9958 7.09498 96.7729 7.67917C96.5544 8.25889 96.4451 8.90997 96.4451 9.6324C96.4451 10.3637 96.5566 11.0282 96.7796 11.6258C97.007 12.2189 97.3415 12.6916 97.7829 13.0439C98.2289 13.3917 98.7818 13.5656 99.4418 13.5656ZM107.675 14.7697V4.49514H109.254V14.7697H107.675ZM108.478 2.78272C108.17 2.78272 107.905 2.67793 107.682 2.46833C107.463 2.25874 107.354 2.00678 107.354 1.71246C107.354 1.41814 107.463 1.16618 107.682 0.956587C107.905 0.746994 108.17 0.642198 108.478 0.642198C108.786 0.642198 109.049 0.746994 109.267 0.956587C109.49 1.16618 109.602 1.41814 109.602 1.71246C109.602 2.00678 109.49 2.25874 109.267 2.46833C109.049 2.67793 108.786 2.78272 108.478 2.78272ZM121.175 4.49514L117.375 14.7697H115.77L111.97 4.49514H113.683L116.519 12.6826H116.626L119.462 4.49514H121.175ZM123.886 14.7697V4.49514H125.465V14.7697H123.886ZM124.689 2.78272C124.381 2.78272 124.116 2.67793 123.893 2.46833C123.674 2.25874 123.565 2.00678 123.565 1.71246C123.565 1.41814 123.674 1.16618 123.893 0.956587C124.116 0.746994 124.381 0.642198 124.689 0.642198C124.997 0.642198 125.26 0.746994 125.478 0.956587C125.701 1.16618 125.813 1.41814 125.813 1.71246C125.813 2.00678 125.701 2.25874 125.478 2.46833C125.26 2.67793 124.997 2.78272 124.689 2.78272ZM132.864 14.9837C132.008 14.9837 131.252 14.7674 130.596 14.3349C129.941 13.8978 129.428 13.2824 129.058 12.4887C128.688 11.6904 128.503 10.7473 128.503 9.65915C128.503 8.57997 128.688 7.64349 129.058 6.84972C129.428 6.05594 129.943 5.44277 130.603 5.0102C131.263 4.57764 132.026 4.36136 132.891 4.36136C133.56 4.36136 134.088 4.47284 134.476 4.69581C134.868 4.91433 135.167 5.16405 135.372 5.445C135.582 5.72148 135.745 5.94891 135.861 6.12729H135.994V1.0703H137.573V14.7697H136.048V13.191H135.861C135.745 13.3783 135.58 13.6147 135.366 13.9001C135.152 14.181 134.846 14.433 134.449 14.6559C134.052 14.8744 133.524 14.9837 132.864 14.9837ZM133.078 13.5656C133.711 13.5656 134.246 13.4006 134.683 13.0706C135.12 12.7362 135.453 12.2746 135.68 11.686C135.907 11.0929 136.021 10.4083 136.021 9.6324C136.021 8.86538 135.91 8.19423 135.687 7.61897C135.464 7.03924 135.134 6.58884 134.697 6.26776C134.26 5.94222 133.72 5.77945 133.078 5.77945C132.409 5.77945 131.852 5.95114 131.406 6.29452C130.964 6.63343 130.632 7.09498 130.409 7.67917C130.19 8.25889 130.081 8.90997 130.081 9.6324C130.081 10.3637 130.193 11.0282 130.416 11.6258C130.643 12.2189 130.978 12.6916 131.419 13.0439C131.865 13.3917 132.418 13.5656 133.078 13.5656ZM147.786 10.5689V4.49514H149.365V14.7697H147.786V13.0305H147.679C147.439 13.5522 147.064 13.9959 146.556 14.3616C146.047 14.7228 145.405 14.9034 144.629 14.9034C143.987 14.9034 143.416 14.763 142.917 14.482C142.417 14.1966 142.025 13.7685 141.739 13.1977C141.454 12.6224 141.311 11.8978 141.311 11.0237V4.49514H142.89V10.9167C142.89 11.6659 143.1 12.2635 143.519 12.7094C143.942 13.1553 144.482 13.3783 145.138 13.3783C145.53 13.3783 145.929 13.278 146.335 13.0773C146.745 12.8766 147.089 12.5689 147.365 12.1542C147.646 11.7395 147.786 11.211 147.786 10.5689ZM155.908 15.0105C155.257 15.0105 154.666 14.8878 154.135 14.6426C153.605 14.3928 153.183 14.0338 152.871 13.5656C152.559 13.0929 152.403 12.5221 152.403 11.8532C152.403 11.2645 152.519 10.7874 152.751 10.4217C152.982 10.0516 153.292 9.76172 153.68 9.55213C154.068 9.34253 154.496 9.18645 154.965 9.08389C155.437 8.97686 155.912 8.89213 156.389 8.8297C157.014 8.74943 157.52 8.68923 157.908 8.64909C158.3 8.6045 158.586 8.53092 158.764 8.42835C158.947 8.32579 159.038 8.14741 159.038 7.89322V7.83971C159.038 7.17971 158.858 6.66688 158.497 6.30121C158.14 5.93553 157.598 5.7527 156.871 5.7527C156.117 5.7527 155.527 5.9177 155.098 6.24769C154.67 6.57769 154.369 6.92999 154.195 7.30458L152.697 6.76945C152.965 6.14513 153.321 5.65905 153.767 5.31121C154.218 4.95892 154.708 4.71365 155.239 4.57541C155.774 4.43271 156.3 4.36136 156.818 4.36136C157.148 4.36136 157.527 4.40149 157.955 4.48176C158.387 4.55757 158.804 4.71588 159.206 4.95669C159.611 5.1975 159.948 5.56094 160.216 6.04702C160.483 6.5331 160.617 7.18417 160.617 8.00025V14.7697H159.038V13.3783H158.958C158.851 13.6013 158.673 13.8399 158.423 14.0941C158.173 14.3482 157.841 14.5645 157.426 14.7429C157.012 14.9213 156.505 15.0105 155.908 15.0105ZM156.149 13.5924C156.773 13.5924 157.299 13.4697 157.727 13.2245C158.16 12.9792 158.485 12.6626 158.704 12.2746C158.927 11.8866 159.038 11.4786 159.038 11.0505V9.60564C158.971 9.68591 158.824 9.75949 158.597 9.82638C158.374 9.88881 158.115 9.94456 157.821 9.99361C157.531 10.0382 157.248 10.0783 156.971 10.114C156.699 10.1452 156.479 10.172 156.309 10.1943C155.899 10.2478 155.515 10.3348 155.159 10.4552C154.806 10.5711 154.521 10.7473 154.302 10.9836C154.088 11.2155 153.981 11.5321 153.981 11.9335C153.981 12.482 154.184 12.8967 154.59 13.1776C155 13.4541 155.52 13.5924 156.149 13.5924ZM164.126 14.7697V4.49514H165.705V14.7697H164.126ZM164.929 2.78272C164.621 2.78272 164.356 2.67793 164.133 2.46833C163.914 2.25874 163.805 2.00678 163.805 1.71246C163.805 1.41814 163.914 1.16618 164.133 0.956587C164.356 0.746994 164.621 0.642198 164.929 0.642198C165.237 0.642198 165.5 0.746994 165.718 0.956587C165.941 1.16618 166.053 1.41814 166.053 1.71246C166.053 2.00678 165.941 2.25874 165.718 2.46833C165.5 2.67793 165.237 2.78272 164.929 2.78272ZM176.502 6.7962L175.084 7.19755C174.995 6.9612 174.863 6.73154 174.689 6.50857C174.52 6.28114 174.288 6.09384 173.993 5.94668C173.699 5.79952 173.322 5.72594 172.863 5.72594C172.234 5.72594 171.71 5.87087 171.291 6.16074C170.876 6.44614 170.669 6.80958 170.669 7.25106C170.669 7.64349 170.812 7.95342 171.097 8.18085C171.382 8.40828 171.828 8.59781 172.435 8.74943L173.96 9.12402C174.879 9.34699 175.563 9.68814 176.014 10.1475C176.464 10.6023 176.689 11.1887 176.689 11.9067C176.689 12.4953 176.52 13.0216 176.181 13.4853C175.846 13.9491 175.378 14.3148 174.776 14.5824C174.174 14.8499 173.474 14.9837 172.676 14.9837C171.628 14.9837 170.76 14.7563 170.074 14.3014C169.387 13.8466 168.952 13.1821 168.769 12.3081L170.268 11.9335C170.41 12.4864 170.68 12.9012 171.077 13.1776C171.478 13.4541 172.002 13.5924 172.649 13.5924C173.385 13.5924 173.969 13.4363 174.402 13.1241C174.839 12.8075 175.057 12.4285 175.057 11.987C175.057 11.6302 174.932 11.3314 174.682 11.0906C174.433 10.8454 174.049 10.6625 173.532 10.5421L171.82 10.1408C170.879 9.9178 170.187 9.57219 169.746 9.10396C169.309 8.63126 169.09 8.04038 169.09 7.33133C169.09 6.75161 169.253 6.23877 169.579 5.79283C169.909 5.34689 170.357 4.99683 170.923 4.74264C171.494 4.48845 172.141 4.36136 172.863 4.36136C173.88 4.36136 174.678 4.58433 175.258 5.03027C175.842 5.47621 176.257 6.06486 176.502 6.7962ZM182.048 12.8967L181.941 13.6191C181.865 14.1275 181.749 14.6715 181.593 15.2513C181.442 15.831 181.283 16.3773 181.118 16.8901C180.953 17.4029 180.817 17.811 180.71 18.1142H179.506C179.564 17.8288 179.64 17.452 179.734 16.9838C179.827 16.5155 179.921 15.9915 180.014 15.4118C180.113 14.8365 180.193 14.2479 180.255 13.6459L180.336 12.8967H182.048ZM195.995 4.49514V5.83297H190.67V4.49514H195.995ZM192.222 2.03354H193.801V11.8264C193.801 12.2724 193.865 12.6068 193.995 12.8298C194.128 13.0483 194.298 13.1955 194.503 13.2713C194.713 13.3426 194.933 13.3783 195.165 13.3783C195.339 13.3783 195.482 13.3694 195.593 13.3516C195.705 13.3293 195.794 13.3114 195.861 13.298L196.182 14.7161C196.075 14.7563 195.926 14.7964 195.734 14.8365C195.542 14.8811 195.299 14.9034 195.005 14.9034C194.559 14.9034 194.122 14.8076 193.694 14.6158C193.27 14.424 192.918 14.132 192.637 13.7395C192.36 13.3471 192.222 12.8521 192.222 12.2545V2.03354ZM203.195 14.9837C202.205 14.9837 201.351 14.7652 200.633 14.3282C199.919 13.8867 199.369 13.2713 198.981 12.482C198.597 11.6882 198.405 10.7651 198.405 9.71267C198.405 8.66024 198.597 7.73268 198.981 6.92999C199.369 6.12283 199.908 5.49405 200.599 5.04365C201.295 4.58879 202.107 4.36136 203.034 4.36136C203.569 4.36136 204.098 4.45055 204.619 4.62892C205.141 4.8073 205.616 5.09716 206.044 5.49851C206.472 5.8954 206.814 6.42161 207.068 7.07715C207.322 7.73268 207.449 8.53984 207.449 9.49861V10.1675H199.529V8.80294H205.844C205.844 8.22322 205.728 7.70593 205.496 7.25106C205.268 6.7962 204.943 6.43722 204.519 6.17411C204.1 5.91101 203.605 5.77945 203.034 5.77945C202.405 5.77945 201.861 5.93553 201.402 6.24769C200.947 6.55539 200.597 6.95674 200.352 7.45174C200.107 7.94673 199.984 8.47741 199.984 9.04375V9.95348C199.984 10.7294 200.118 11.3872 200.385 11.9268C200.657 12.4619 201.034 12.8699 201.516 13.1509C201.997 13.4274 202.557 13.5656 203.195 13.5656C203.609 13.5656 203.984 13.5076 204.318 13.3917C204.657 13.2713 204.949 13.0929 205.195 12.8566C205.44 12.6158 205.63 12.317 205.763 11.9602L207.288 12.3883C207.128 12.9056 206.858 13.3605 206.479 13.7529C206.1 14.1409 205.632 14.4441 205.074 14.6626C204.517 14.8767 203.89 14.9837 203.195 14.9837ZM210.478 14.7697V4.49514H212.003V6.10053H212.137C212.351 5.55202 212.697 5.12615 213.174 4.82291C213.651 4.51521 214.224 4.36136 214.893 4.36136C215.571 4.36136 216.135 4.51521 216.585 4.82291C217.04 5.12615 217.395 5.55202 217.649 6.10053H217.756C218.019 5.56986 218.414 5.14845 218.94 4.83629C219.466 4.51967 220.097 4.36136 220.833 4.36136C221.752 4.36136 222.503 4.64899 223.087 5.22426C223.671 5.79506 223.964 6.68472 223.964 7.89322V14.7697H222.385V7.89322C222.385 7.13512 222.178 6.5933 221.763 6.26776C221.348 5.94222 220.86 5.77945 220.298 5.77945C219.575 5.77945 219.016 5.99797 218.619 6.43499C218.222 6.86755 218.024 7.41606 218.024 8.08052V14.7697H216.418V7.73268C216.418 7.1485 216.229 6.67803 215.85 6.32127C215.471 5.96006 214.982 5.77945 214.385 5.77945C213.974 5.77945 213.591 5.88871 213.234 6.10722C212.882 6.32573 212.596 6.62897 212.378 7.01694C212.164 7.40046 212.057 7.84417 212.057 8.34808V14.7697H210.478ZM230.501 15.0105C229.85 15.0105 229.259 14.8878 228.729 14.6426C228.198 14.3928 227.777 14.0338 227.464 13.5656C227.152 13.0929 226.996 12.5221 226.996 11.8532C226.996 11.2645 227.112 10.7874 227.344 10.4217C227.576 10.0516 227.886 9.76172 228.274 9.55213C228.662 9.34253 229.09 9.18645 229.558 9.08389C230.031 8.97686 230.506 8.89213 230.983 8.8297C231.607 8.74943 232.113 8.68923 232.501 8.64909C232.894 8.6045 233.179 8.53092 233.358 8.42835C233.54 8.32579 233.632 8.14741 233.632 7.89322V7.83971C233.632 7.17971 233.451 6.66688 233.09 6.30121C232.733 5.93553 232.191 5.7527 231.465 5.7527C230.711 5.7527 230.12 5.9177 229.692 6.24769C229.264 6.57769 228.963 6.92999 228.789 7.30458L227.291 6.76945C227.558 6.14513 227.915 5.65905 228.361 5.31121C228.811 4.95892 229.302 4.71365 229.832 4.57541C230.368 4.43271 230.894 4.36136 231.411 4.36136C231.741 4.36136 232.12 4.40149 232.548 4.48176C232.981 4.55757 233.398 4.71588 233.799 4.95669C234.205 5.1975 234.542 5.56094 234.809 6.04702C235.077 6.5331 235.21 7.18417 235.21 8.00025V14.7697H233.632V13.3783H233.552C233.445 13.6013 233.266 13.8399 233.016 14.0941C232.767 14.3482 232.434 14.5645 232.02 14.7429C231.605 14.9213 231.099 15.0105 230.501 15.0105ZM230.742 13.5924C231.366 13.5924 231.893 13.4697 232.321 13.2245C232.753 12.9792 233.079 12.6626 233.297 12.2746C233.52 11.8866 233.632 11.4786 233.632 11.0505V9.60564C233.565 9.68591 233.418 9.75949 233.19 9.82638C232.967 9.88881 232.709 9.94456 232.414 9.99361C232.125 10.0382 231.841 10.0783 231.565 10.114C231.293 10.1452 231.072 10.172 230.903 10.1943C230.492 10.2478 230.109 10.3348 229.752 10.4552C229.4 10.5711 229.114 10.7473 228.896 10.9836C228.682 11.2155 228.575 11.5321 228.575 11.9335C228.575 12.482 228.778 12.8967 229.184 13.1776C229.594 13.4541 230.113 13.5924 230.742 13.5924ZM230.796 3.1038L232.428 4.05193e-05H234.274L232.187 3.1038H230.796ZM243.188 4.49514V5.83297H237.863V4.49514H243.188ZM239.415 2.03354H240.994V11.8264C240.994 12.2724 241.059 12.6068 241.188 12.8298C241.322 13.0483 241.491 13.1955 241.696 13.2713C241.906 13.3426 242.127 13.3783 242.359 13.3783C242.533 13.3783 242.675 13.3694 242.787 13.3516C242.898 13.3293 242.987 13.3114 243.054 13.298L243.375 14.7161C243.268 14.7563 243.119 14.7964 242.927 14.8365C242.735 14.8811 242.492 14.9034 242.198 14.9034C241.752 14.9034 241.315 14.8076 240.887 14.6158C240.463 14.424 240.111 14.132 239.83 13.7395C239.554 13.3471 239.415 12.8521 239.415 12.2545V2.03354ZM246.191 14.7697V4.49514H247.769V14.7697H246.191ZM246.993 2.78272C246.686 2.78272 246.42 2.67793 246.197 2.46833C245.979 2.25874 245.869 2.00678 245.869 1.71246C245.869 1.41814 245.979 1.16618 246.197 0.956587C246.42 0.746994 246.686 0.642198 246.993 0.642198C247.301 0.642198 247.564 0.746994 247.783 0.956587C248.006 1.16618 248.117 1.41814 248.117 1.71246C248.117 2.00678 248.006 2.25874 247.783 2.46833C247.564 2.67793 247.301 2.78272 246.993 2.78272ZM255.462 14.9837C254.499 14.9837 253.67 14.7563 252.974 14.3014C252.278 13.8466 251.743 13.22 251.369 12.4218C250.994 11.6235 250.807 10.7116 250.807 9.68591C250.807 8.6424 250.999 7.72153 251.382 6.9233C251.77 6.1206 252.31 5.49405 253.001 5.04365C253.697 4.58879 254.508 4.36136 255.436 4.36136C256.158 4.36136 256.809 4.49514 257.389 4.76271C257.969 5.03027 258.444 5.40486 258.814 5.88648C259.184 6.3681 259.414 6.92999 259.503 7.57214H257.924C257.804 7.1039 257.536 6.68918 257.121 6.32796C256.711 5.96229 256.158 5.77945 255.462 5.77945C254.847 5.77945 254.307 5.93999 253.844 6.26107C253.384 6.57769 253.025 7.02586 252.767 7.60559C252.513 8.18085 252.385 8.85646 252.385 9.6324C252.385 10.4262 252.51 11.1174 252.76 11.706C253.014 12.2947 253.371 12.7518 253.83 13.0773C254.294 13.4028 254.838 13.5656 255.462 13.5656C255.873 13.5656 256.245 13.4943 256.58 13.3516C256.914 13.2089 257.197 13.0037 257.429 12.7362C257.661 12.4686 257.826 12.1475 257.924 11.7729H259.503C259.414 12.3794 259.193 12.9257 258.841 13.4118C258.493 13.8934 258.031 14.2769 257.456 14.5623C256.885 14.8432 256.221 14.9837 255.462 14.9837ZM266.612 14.9837C265.685 14.9837 264.871 14.763 264.171 14.3215C263.475 13.88 262.931 13.2624 262.539 12.4686C262.151 11.6748 261.957 10.7473 261.957 9.68591C261.957 8.61565 262.151 7.6814 262.539 6.88316C262.931 6.08492 263.475 5.46506 264.171 5.02358C264.871 4.5821 265.685 4.36136 266.612 4.36136C267.54 4.36136 268.352 4.5821 269.047 5.02358C269.747 5.46506 270.291 6.08492 270.679 6.88316C271.072 7.6814 271.268 8.61565 271.268 9.68591C271.268 10.7473 271.072 11.6748 270.679 12.4686C270.291 13.2624 269.747 13.88 269.047 14.3215C268.352 14.763 267.54 14.9837 266.612 14.9837ZM266.612 13.5656C267.317 13.5656 267.897 13.385 268.352 13.0238C268.806 12.6626 269.143 12.1876 269.362 11.599C269.58 11.0104 269.689 10.3727 269.689 9.68591C269.689 8.99916 269.58 8.35923 269.362 7.76613C269.143 7.17302 268.806 6.69364 268.352 6.32796C267.897 5.96229 267.317 5.77945 266.612 5.77945C265.908 5.77945 265.328 5.96229 264.873 6.32796C264.418 6.69364 264.082 7.17302 263.863 7.76613C263.645 8.35923 263.535 8.99916 263.535 9.68591C263.535 10.3727 263.645 11.0104 263.863 11.599C264.082 12.1876 264.418 12.6626 264.873 13.0238C265.328 13.385 265.908 13.5656 266.612 13.5656ZM281.583 6.7962L280.165 7.19755C280.076 6.9612 279.945 6.73154 279.771 6.50857C279.601 6.28114 279.369 6.09384 279.075 5.94668C278.781 5.79952 278.404 5.72594 277.945 5.72594C277.316 5.72594 276.792 5.87087 276.373 6.16074C275.958 6.44614 275.751 6.80958 275.751 7.25106C275.751 7.64349 275.893 7.95342 276.179 8.18085C276.464 8.40828 276.91 8.59781 277.516 8.74943L279.042 9.12402C279.96 9.34699 280.645 9.68814 281.095 10.1475C281.546 10.6023 281.771 11.1887 281.771 11.9067C281.771 12.4953 281.601 13.0216 281.262 13.4853C280.928 13.9491 280.46 14.3148 279.858 14.5824C279.256 14.8499 278.555 14.9837 277.757 14.9837C276.709 14.9837 275.842 14.7563 275.155 14.3014C274.468 13.8466 274.034 13.1821 273.851 12.3081L275.349 11.9335C275.492 12.4864 275.762 12.9012 276.159 13.1776C276.56 13.4541 277.084 13.5924 277.731 13.5924C278.466 13.5924 279.05 13.4363 279.483 13.1241C279.92 12.8075 280.139 12.4285 280.139 11.987C280.139 11.6302 280.014 11.3314 279.764 11.0906C279.514 10.8454 279.131 10.6625 278.613 10.5421L276.901 10.1408C275.96 9.9178 275.269 9.57219 274.827 9.10396C274.39 8.63126 274.172 8.04038 274.172 7.33133C274.172 6.75161 274.335 6.23877 274.66 5.79283C274.99 5.34689 275.438 4.99683 276.005 4.74264C276.576 4.48845 277.222 4.36136 277.945 4.36136C278.961 4.36136 279.76 4.58433 280.339 5.03027C280.923 5.47621 281.338 6.06486 281.583 6.7962ZM287.13 12.8967L287.023 13.6191C286.947 14.1275 286.831 14.6715 286.675 15.2513C286.523 15.831 286.365 16.3773 286.2 16.8901C286.035 17.4029 285.899 17.811 285.792 18.1142H284.588C284.646 17.8288 284.721 17.452 284.815 16.9838C284.909 16.5155 285.002 15.9915 285.096 15.4118C285.194 14.8365 285.274 14.2479 285.337 13.6459L285.417 12.8967H287.13ZM300.782 14.9837C299.819 14.9837 298.989 14.7563 298.294 14.3014C297.598 13.8466 297.063 13.22 296.688 12.4218C296.314 11.6235 296.126 10.7116 296.126 9.68591C296.126 8.6424 296.318 7.72153 296.702 6.9233C297.09 6.1206 297.629 5.49405 298.32 5.04365C299.016 4.58879 299.828 4.36136 300.755 4.36136C301.478 4.36136 302.129 4.49514 302.708 4.76271C303.288 5.03027 303.763 5.40486 304.133 5.88648C304.503 6.3681 304.733 6.92999 304.822 7.57214H303.244C303.123 7.1039 302.856 6.68918 302.441 6.32796C302.031 5.96229 301.478 5.77945 300.782 5.77945C300.167 5.77945 299.627 5.93999 299.163 6.26107C298.704 6.57769 298.345 7.02586 298.086 7.60559C297.832 8.18085 297.705 8.85646 297.705 9.6324C297.705 10.4262 297.83 11.1174 298.08 11.706C298.334 12.2947 298.69 12.7518 299.15 13.0773C299.614 13.4028 300.158 13.5656 300.782 13.5656C301.192 13.5656 301.565 13.4943 301.899 13.3516C302.233 13.2089 302.517 13.0037 302.749 12.7362C302.98 12.4686 303.145 12.1475 303.244 11.7729H304.822C304.733 12.3794 304.512 12.9257 304.16 13.4118C303.812 13.8934 303.351 14.2769 302.775 14.5623C302.204 14.8432 301.54 14.9837 300.782 14.9837ZM310.781 15.0105C310.13 15.0105 309.539 14.8878 309.009 14.6426C308.478 14.3928 308.057 14.0338 307.744 13.5656C307.432 13.0929 307.276 12.5221 307.276 11.8532C307.276 11.2645 307.392 10.7874 307.624 10.4217C307.856 10.0516 308.166 9.76172 308.554 9.55213C308.942 9.34253 309.37 9.18645 309.838 9.08389C310.311 8.97686 310.786 8.89213 311.263 8.8297C311.887 8.74943 312.393 8.68923 312.781 8.64909C313.174 8.6045 313.459 8.53092 313.638 8.42835C313.82 8.32579 313.912 8.14741 313.912 7.89322V7.83971C313.912 7.17971 313.731 6.66688 313.37 6.30121C313.013 5.93553 312.471 5.7527 311.745 5.7527C310.991 5.7527 310.4 5.9177 309.972 6.24769C309.544 6.57769 309.243 6.92999 309.069 7.30458L307.571 6.76945C307.838 6.14513 308.195 5.65905 308.641 5.31121C309.091 4.95892 309.582 4.71365 310.112 4.57541C310.648 4.43271 311.174 4.36136 311.691 4.36136C312.021 4.36136 312.4 4.40149 312.828 4.48176C313.261 4.55757 313.678 4.71588 314.079 4.95669C314.485 5.1975 314.822 5.56094 315.089 6.04702C315.357 6.5331 315.49 7.18417 315.49 8.00025V14.7697H313.912V13.3783H313.832C313.725 13.6013 313.546 13.8399 313.296 14.0941C313.047 14.3482 312.714 14.5645 312.3 14.7429C311.885 14.9213 311.379 15.0105 310.781 15.0105ZM311.022 13.5924C311.646 13.5924 312.173 13.4697 312.601 13.2245C313.033 12.9792 313.359 12.6626 313.577 12.2746C313.8 11.8866 313.912 11.4786 313.912 11.0505V9.60564C313.845 9.68591 313.698 9.75949 313.47 9.82638C313.247 9.88881 312.989 9.94456 312.694 9.99361C312.405 10.0382 312.121 10.0783 311.845 10.114C311.573 10.1452 311.352 10.172 311.183 10.1943C310.772 10.2478 310.389 10.3348 310.032 10.4552C309.68 10.5711 309.394 10.7473 309.176 10.9836C308.962 11.2155 308.855 11.5321 308.855 11.9335C308.855 12.482 309.058 12.8967 309.464 13.1776C309.874 13.4541 310.393 13.5924 311.022 13.5924ZM326.277 6.7962L324.859 7.19755C324.77 6.9612 324.639 6.73154 324.465 6.50857C324.295 6.28114 324.063 6.09384 323.769 5.94668C323.475 5.79952 323.098 5.72594 322.639 5.72594C322.01 5.72594 321.486 5.87087 321.067 6.16074C320.652 6.44614 320.445 6.80958 320.445 7.25106C320.445 7.64349 320.587 7.95342 320.873 8.18085C321.158 8.40828 321.604 8.59781 322.21 8.74943L323.736 9.12402C324.654 9.34699 325.339 9.68814 325.789 10.1475C326.24 10.6023 326.465 11.1887 326.465 11.9067C326.465 12.4953 326.295 13.0216 325.956 13.4853C325.622 13.9491 325.154 14.3148 324.552 14.5824C323.95 14.8499 323.25 14.9837 322.451 14.9837C321.403 14.9837 320.536 14.7563 319.849 14.3014C319.162 13.8466 318.728 13.1821 318.545 12.3081L320.043 11.9335C320.186 12.4864 320.456 12.9012 320.853 13.1776C321.254 13.4541 321.778 13.5924 322.425 13.5924C323.16 13.5924 323.745 13.4363 324.177 13.1241C324.614 12.8075 324.833 12.4285 324.833 11.987C324.833 11.6302 324.708 11.3314 324.458 11.0906C324.208 10.8454 323.825 10.6625 323.307 10.5421L321.595 10.1408C320.654 9.9178 319.963 9.57219 319.521 9.10396C319.084 8.63126 318.866 8.04038 318.866 7.33133C318.866 6.75161 319.029 6.23877 319.354 5.79283C319.684 5.34689 320.132 4.99683 320.699 4.74264C321.27 4.48845 321.916 4.36136 322.639 4.36136C323.655 4.36136 324.454 4.58433 325.033 5.03027C325.617 5.47621 326.032 6.06486 326.277 6.7962ZM332.492 15.0105C331.841 15.0105 331.251 14.8878 330.72 14.6426C330.189 14.3928 329.768 14.0338 329.456 13.5656C329.143 13.0929 328.987 12.5221 328.987 11.8532C328.987 11.2645 329.103 10.7874 329.335 10.4217C329.567 10.0516 329.877 9.76172 330.265 9.55213C330.653 9.34253 331.081 9.18645 331.549 9.08389C332.022 8.97686 332.497 8.89213 332.974 8.8297C333.598 8.74943 334.105 8.68923 334.493 8.64909C334.885 8.6045 335.17 8.53092 335.349 8.42835C335.532 8.32579 335.623 8.14741 335.623 7.89322V7.83971C335.623 7.17971 335.442 6.66688 335.081 6.30121C334.724 5.93553 334.183 5.7527 333.456 5.7527C332.702 5.7527 332.111 5.9177 331.683 6.24769C331.255 6.57769 330.954 6.92999 330.78 7.30458L329.282 6.76945C329.549 6.14513 329.906 5.65905 330.352 5.31121C330.802 4.95892 331.293 4.71365 331.824 4.57541C332.359 4.43271 332.885 4.36136 333.402 4.36136C333.732 4.36136 334.111 4.40149 334.539 4.48176C334.972 4.55757 335.389 4.71588 335.79 4.95669C336.196 5.1975 336.533 5.56094 336.8 6.04702C337.068 6.5331 337.202 7.18417 337.202 8.00025V14.7697H335.623V13.3783H335.543C335.436 13.6013 335.257 13.8399 335.008 14.0941C334.758 14.3482 334.426 14.5645 334.011 14.7429C333.596 14.9213 333.09 15.0105 332.492 15.0105ZM332.733 13.5924C333.358 13.5924 333.884 13.4697 334.312 13.2245C334.744 12.9792 335.07 12.6626 335.289 12.2746C335.511 11.8866 335.623 11.4786 335.623 11.0505V9.60564C335.556 9.68591 335.409 9.75949 335.181 9.82638C334.959 9.88881 334.7 9.94456 334.406 9.99361C334.116 10.0382 333.833 10.0783 333.556 10.114C333.284 10.1452 333.063 10.172 332.894 10.1943C332.484 10.2478 332.1 10.3348 331.743 10.4552C331.391 10.5711 331.106 10.7473 330.887 10.9836C330.673 11.2155 330.566 11.5321 330.566 11.9335C330.566 12.482 330.769 12.8967 331.175 13.1776C331.585 13.4541 332.104 13.5924 332.733 13.5924ZM342.289 1.0703V14.7697H340.711V1.0703H342.289ZM348.163 12.8967L348.056 13.6191C347.98 14.1275 347.865 14.6715 347.708 15.2513C347.557 15.831 347.399 16.3773 347.234 16.8901C347.069 17.4029 346.933 17.811 346.825 18.1142H345.621C345.679 17.8288 345.755 17.452 345.849 16.9838C345.943 16.5155 346.036 15.9915 346.13 15.4118C346.228 14.8365 346.308 14.2479 346.371 13.6459L346.451 12.8967H348.163ZM361.789 18.8366C361.026 18.8366 360.371 18.7385 359.822 18.5423C359.274 18.3506 358.817 18.0964 358.451 17.7798C358.09 17.4676 357.802 17.1331 357.588 16.7764L358.846 15.8934C358.988 16.0807 359.169 16.2948 359.388 16.5356C359.606 16.7809 359.905 16.9927 360.284 17.1711C360.667 17.3539 361.169 17.4453 361.789 17.4453C362.618 17.4453 363.303 17.2446 363.843 16.8433C364.382 16.4419 364.652 15.8132 364.652 14.9569V12.8699H364.518C364.402 13.0572 364.237 13.2891 364.023 13.5656C363.814 13.8376 363.51 14.0807 363.113 14.2947C362.721 14.5043 362.19 14.6091 361.521 14.6091C360.692 14.6091 359.947 14.4129 359.287 14.0205C358.632 13.628 358.112 13.0572 357.729 12.3081C357.35 11.5589 357.16 10.6491 357.16 9.57888C357.16 8.52646 357.345 7.61005 357.715 6.82965C358.085 6.04479 358.6 5.43831 359.26 5.0102C359.92 4.57764 360.683 4.36136 361.548 4.36136C362.217 4.36136 362.748 4.47284 363.14 4.69581C363.537 4.91433 363.84 5.16405 364.05 5.445C364.264 5.72148 364.429 5.94891 364.545 6.12729H364.705V4.49514H366.231V15.064C366.231 15.9469 366.03 16.6649 365.629 17.2179C365.232 17.7753 364.697 18.1833 364.023 18.442C363.354 18.7051 362.61 18.8366 361.789 18.8366ZM361.735 13.191C362.369 13.191 362.904 13.0461 363.341 12.7562C363.778 12.4664 364.11 12.0494 364.338 11.5054C364.565 10.9613 364.679 10.3102 364.679 9.55213C364.679 8.81186 364.567 8.15856 364.344 7.59221C364.121 7.02586 363.791 6.58215 363.354 6.26107C362.917 5.93999 362.378 5.77945 361.735 5.77945C361.067 5.77945 360.509 5.94891 360.063 6.28783C359.622 6.62674 359.289 7.08161 359.067 7.65241C358.848 8.22322 358.739 8.85646 358.739 9.55213C358.739 10.2656 358.85 10.8966 359.073 11.4452C359.301 11.9892 359.635 12.4173 360.077 12.7295C360.523 13.0372 361.075 13.191 361.735 13.191ZM374.056 14.9837C373.066 14.9837 372.212 14.7652 371.494 14.3282C370.781 13.8867 370.23 13.2713 369.842 12.482C369.458 11.6882 369.267 10.7651 369.267 9.71267C369.267 8.66024 369.458 7.73268 369.842 6.92999C370.23 6.12283 370.769 5.49405 371.461 5.04365C372.156 4.58879 372.968 4.36136 373.895 4.36136C374.431 4.36136 374.959 4.45055 375.481 4.62892C376.003 4.8073 376.477 5.09716 376.906 5.49851C377.334 5.8954 377.675 6.42161 377.929 7.07715C378.183 7.73268 378.31 8.53984 378.31 9.49861V10.1675H370.39V8.80294H376.705C376.705 8.22322 376.589 7.70593 376.357 7.25106C376.13 6.7962 375.804 6.43722 375.38 6.17411C374.961 5.91101 374.466 5.77945 373.895 5.77945C373.267 5.77945 372.723 5.93553 372.263 6.24769C371.808 6.55539 371.458 6.95674 371.213 7.45174C370.968 7.94673 370.845 8.47741 370.845 9.04375V9.95348C370.845 10.7294 370.979 11.3872 371.247 11.9268C371.519 12.4619 371.895 12.8699 372.377 13.1509C372.859 13.4274 373.418 13.5656 374.056 13.5656C374.471 13.5656 374.845 13.5076 375.18 13.3917C375.519 13.2713 375.811 13.0929 376.056 12.8566C376.301 12.6158 376.491 12.317 376.625 11.9602L378.15 12.3883C377.989 12.9056 377.719 13.3605 377.34 13.7529C376.961 14.1409 376.493 14.4441 375.936 14.6626C375.378 14.8767 374.752 14.9837 374.056 14.9837ZM388.617 6.7962L387.199 7.19755C387.11 6.9612 386.978 6.73154 386.805 6.50857C386.635 6.28114 386.403 6.09384 386.109 5.94668C385.815 5.79952 385.438 5.72594 384.978 5.72594C384.35 5.72594 383.826 5.87087 383.406 6.16074C382.992 6.44614 382.784 6.80958 382.784 7.25106C382.784 7.64349 382.927 7.95342 383.212 8.18085C383.498 8.40828 383.944 8.59781 384.55 8.74943L386.075 9.12402C386.994 9.34699 387.679 9.68814 388.129 10.1475C388.579 10.6023 388.805 11.1887 388.805 11.9067C388.805 12.4953 388.635 13.0216 388.296 13.4853C387.962 13.9491 387.494 14.3148 386.892 14.5824C386.289 14.8499 385.589 14.9837 384.791 14.9837C383.743 14.9837 382.876 14.7563 382.189 14.3014C381.502 13.8466 381.068 13.1821 380.885 12.3081L382.383 11.9335C382.526 12.4864 382.796 12.9012 383.192 13.1776C383.594 13.4541 384.118 13.5924 384.764 13.5924C385.5 13.5924 386.084 13.4363 386.517 13.1241C386.954 12.8075 387.172 12.4285 387.172 11.987C387.172 11.6302 387.048 11.3314 386.798 11.0906C386.548 10.8454 386.165 10.6625 385.647 10.5421L383.935 10.1408C382.994 9.9178 382.303 9.57219 381.861 9.10396C381.424 8.63126 381.206 8.04038 381.206 7.33133C381.206 6.75161 381.369 6.23877 381.694 5.79283C382.024 5.34689 382.472 4.99683 383.039 4.74264C383.609 4.48845 384.256 4.36136 384.978 4.36136C385.995 4.36136 386.793 4.58433 387.373 5.03027C387.957 5.47621 388.372 6.06486 388.617 6.7962ZM396.277 4.49514V5.83297H390.953V4.49514H396.277ZM392.504 2.03354H394.083V11.8264C394.083 12.2724 394.148 12.6068 394.277 12.8298C394.411 13.0483 394.58 13.1955 394.785 13.2713C394.995 13.3426 395.216 13.3783 395.448 13.3783C395.622 13.3783 395.764 13.3694 395.876 13.3516C395.987 13.3293 396.076 13.3114 396.143 13.298L396.464 14.7161C396.357 14.7563 396.208 14.7964 396.016 14.8365C395.825 14.8811 395.581 14.9034 395.287 14.9034C394.841 14.9034 394.404 14.8076 393.976 14.6158C393.552 14.424 393.2 14.132 392.919 13.7395C392.643 13.3471 392.504 12.8521 392.504 12.2545V2.03354ZM402.303 15.0105C401.652 15.0105 401.061 14.8878 400.531 14.6426C400 14.3928 399.578 14.0338 399.266 13.5656C398.954 13.0929 398.798 12.5221 398.798 11.8532C398.798 11.2645 398.914 10.7874 399.146 10.4217C399.378 10.0516 399.688 9.76172 400.076 9.55213C400.464 9.34253 400.892 9.18645 401.36 9.08389C401.833 8.97686 402.308 8.89213 402.785 8.8297C403.409 8.74943 403.915 8.68923 404.303 8.64909C404.696 8.6045 404.981 8.53092 405.159 8.42835C405.342 8.32579 405.434 8.14741 405.434 7.89322V7.83971C405.434 7.17971 405.253 6.66688 404.892 6.30121C404.535 5.93553 403.993 5.7527 403.266 5.7527C402.513 5.7527 401.922 5.9177 401.494 6.24769C401.066 6.57769 400.765 6.92999 400.591 7.30458L399.092 6.76945C399.36 6.14513 399.717 5.65905 400.163 5.31121C400.613 4.95892 401.104 4.71365 401.634 4.57541C402.169 4.43271 402.696 4.36136 403.213 4.36136C403.543 4.36136 403.922 4.40149 404.35 4.48176C404.783 4.55757 405.2 4.71588 405.601 4.95669C406.007 5.1975 406.343 5.56094 406.611 6.04702C406.879 6.5331 407.012 7.18417 407.012 8.00025V14.7697H405.434V13.3783H405.353C405.246 13.6013 405.068 13.8399 404.818 14.0941C404.569 14.3482 404.236 14.5645 403.822 14.7429C403.407 14.9213 402.901 15.0105 402.303 15.0105ZM402.544 13.5924C403.168 13.5924 403.695 13.4697 404.123 13.2245C404.555 12.9792 404.881 12.6626 405.099 12.2746C405.322 11.8866 405.434 11.4786 405.434 11.0505V9.60564C405.367 9.68591 405.22 9.75949 404.992 9.82638C404.769 9.88881 404.511 9.94456 404.216 9.99361C403.926 10.0382 403.643 10.0783 403.367 10.114C403.095 10.1452 402.874 10.172 402.705 10.1943C402.294 10.2478 401.911 10.3348 401.554 10.4552C401.202 10.5711 400.916 10.7473 400.698 10.9836C400.484 11.2155 400.377 11.5321 400.377 11.9335C400.377 12.482 400.58 12.8967 400.985 13.1776C401.396 13.4541 401.915 13.5924 402.544 13.5924ZM412.1 8.58889V14.7697H410.522V4.49514H412.047V6.10053H412.18C412.421 5.57878 412.787 5.15959 413.277 4.84298C413.768 4.5219 414.401 4.36136 415.177 4.36136C415.873 4.36136 416.482 4.50406 417.003 4.78946C417.525 5.07041 417.931 5.49851 418.221 6.07378C418.511 6.64458 418.656 7.36701 418.656 8.24106V14.7697H417.077V8.34808C417.077 7.54093 416.867 6.91215 416.448 6.46175C416.029 6.00688 415.454 5.77945 414.722 5.77945C414.218 5.77945 413.768 5.88871 413.371 6.10722C412.979 6.32573 412.669 6.64458 412.441 7.06377C412.214 7.48295 412.1 7.99133 412.1 8.58889ZM426.636 4.49514V5.83297H421.312V4.49514H426.636ZM422.864 2.03354H424.442V11.8264C424.442 12.2724 424.507 12.6068 424.636 12.8298C424.77 13.0483 424.94 13.1955 425.145 13.2713C425.354 13.3426 425.575 13.3783 425.807 13.3783C425.981 13.3783 426.124 13.3694 426.235 13.3516C426.347 13.3293 426.436 13.3114 426.503 13.298L426.824 14.7161C426.717 14.7563 426.567 14.7964 426.376 14.8365C426.184 14.8811 425.941 14.9034 425.646 14.9034C425.201 14.9034 424.764 14.8076 424.335 14.6158C423.912 14.424 423.559 14.132 423.279 13.7395C423.002 13.3471 422.864 12.8521 422.864 12.2545V2.03354ZM433.836 14.9837C432.846 14.9837 431.992 14.7652 431.274 14.3282C430.561 13.8867 430.01 13.2713 429.622 12.482C429.239 11.6882 429.047 10.7651 429.047 9.71267C429.047 8.66024 429.239 7.73268 429.622 6.92999C430.01 6.12283 430.55 5.49405 431.241 5.04365C431.937 4.58879 432.748 4.36136 433.676 4.36136C434.211 4.36136 434.739 4.45055 435.261 4.62892C435.783 4.8073 436.258 5.09716 436.686 5.49851C437.114 5.8954 437.455 6.42161 437.709 7.07715C437.964 7.73268 438.091 8.53984 438.091 9.49861V10.1675H430.171V8.80294H436.485C436.485 8.22322 436.369 7.70593 436.137 7.25106C435.91 6.7962 435.585 6.43722 435.161 6.17411C434.742 5.91101 434.247 5.77945 433.676 5.77945C433.047 5.77945 432.503 5.93553 432.044 6.24769C431.589 6.55539 431.239 6.95674 430.994 7.45174C430.748 7.94673 430.626 8.47741 430.626 9.04375V9.95348C430.626 10.7294 430.759 11.3872 431.027 11.9268C431.299 12.4619 431.676 12.8699 432.157 13.1509C432.639 13.4274 433.199 13.5656 433.836 13.5656C434.251 13.5656 434.626 13.5076 434.96 13.3917C435.299 13.2713 435.591 13.0929 435.836 12.8566C436.082 12.6158 436.271 12.317 436.405 11.9602L437.93 12.3883C437.77 12.9056 437.5 13.3605 437.121 13.7529C436.742 14.1409 436.274 14.4441 435.716 14.6626C435.159 14.8767 434.532 14.9837 433.836 14.9837ZM448.398 6.7962L446.98 7.19755C446.891 6.9612 446.759 6.73154 446.585 6.50857C446.416 6.28114 446.184 6.09384 445.889 5.94668C445.595 5.79952 445.218 5.72594 444.759 5.72594C444.13 5.72594 443.606 5.87087 443.187 6.16074C442.772 6.44614 442.565 6.80958 442.565 7.25106C442.565 7.64349 442.708 7.95342 442.993 8.18085C443.278 8.40828 443.724 8.59781 444.331 8.74943L445.856 9.12402C446.775 9.34699 447.459 9.68814 447.909 10.1475C448.36 10.6023 448.585 11.1887 448.585 11.9067C448.585 12.4953 448.416 13.0216 448.077 13.4853C447.742 13.9491 447.274 14.3148 446.672 14.5824C446.07 14.8499 445.37 14.9837 444.572 14.9837C443.524 14.9837 442.656 14.7563 441.97 14.3014C441.283 13.8466 440.848 13.1821 440.665 12.3081L442.164 11.9335C442.306 12.4864 442.576 12.9012 442.973 13.1776C443.374 13.4541 443.898 13.5924 444.545 13.5924C445.281 13.5924 445.865 13.4363 446.297 13.1241C446.734 12.8075 446.953 12.4285 446.953 11.987C446.953 11.6302 446.828 11.3314 446.578 11.0906C446.329 10.8454 445.945 10.6625 445.428 10.5421L443.715 10.1408C442.774 9.9178 442.083 9.57219 441.642 9.10396C441.205 8.63126 440.986 8.04038 440.986 7.33133C440.986 6.75161 441.149 6.23877 441.475 5.79283C441.805 5.34689 442.253 4.99683 442.819 4.74264C443.39 4.48845 444.036 4.36136 444.759 4.36136C445.776 4.36136 446.574 4.58433 447.154 5.03027C447.738 5.47621 448.153 6.06486 448.398 6.7962ZM461.823 14.9837C460.833 14.9837 459.979 14.7652 459.261 14.3282C458.547 13.8867 457.997 13.2713 457.609 12.482C457.225 11.6882 457.033 10.7651 457.033 9.71267C457.033 8.66024 457.225 7.73268 457.609 6.92999C457.997 6.12283 458.536 5.49405 459.227 5.04365C459.923 4.58879 460.735 4.36136 461.662 4.36136C462.197 4.36136 462.726 4.45055 463.248 4.62892C463.769 4.8073 464.244 5.09716 464.672 5.49851C465.1 5.8954 465.442 6.42161 465.696 7.07715C465.95 7.73268 466.077 8.53984 466.077 9.49861V10.1675H458.157V8.80294H464.472C464.472 8.22322 464.356 7.70593 464.124 7.25106C463.896 6.7962 463.571 6.43722 463.147 6.17411C462.728 5.91101 462.233 5.77945 461.662 5.77945C461.033 5.77945 460.489 5.93553 460.03 6.24769C459.575 6.55539 459.225 6.95674 458.98 7.45174C458.735 7.94673 458.612 8.47741 458.612 9.04375V9.95348C458.612 10.7294 458.746 11.3872 459.013 11.9268C459.285 12.4619 459.662 12.8699 460.144 13.1509C460.625 13.4274 461.185 13.5656 461.823 13.5656C462.238 13.5656 462.612 13.5076 462.947 13.3917C463.285 13.2713 463.578 13.0929 463.823 12.8566C464.068 12.6158 464.258 12.317 464.391 11.9602L465.917 12.3883C465.756 12.9056 465.486 13.3605 465.107 13.7529C464.728 14.1409 464.26 14.4441 463.702 14.6626C463.145 14.8767 462.518 14.9837 461.823 14.9837ZM2.9183e-05 44.6226V30.4951H1.52515V32.1273H1.71245C1.82839 31.9489 1.98893 31.7215 2.19407 31.445C2.40366 31.1641 2.70244 30.9143 3.09041 30.6958C3.48284 30.4728 4.01351 30.3614 4.68242 30.3614C5.54755 30.3614 6.31011 30.5776 6.97011 31.0102C7.6301 31.4428 8.14517 32.0559 8.5153 32.8497C8.88543 33.6435 9.0705 34.58 9.0705 35.6592C9.0705 36.7473 8.88543 37.6904 8.5153 38.4887C8.14517 39.2824 7.63233 39.8978 6.9768 40.3349C6.32126 40.7674 5.56539 40.9837 4.70918 40.9837C4.04919 40.9837 3.52074 40.8744 3.12386 40.6559C2.72697 40.433 2.4215 40.181 2.20744 39.9001C1.99339 39.6147 1.82839 39.3783 1.71245 39.191H1.57867V44.6226H2.9183e-05ZM1.55191 35.6324C1.55191 36.4083 1.66562 37.0929 1.89305 37.686C2.12049 38.2746 2.45271 38.7362 2.88974 39.0706C3.32676 39.4006 3.86189 39.5656 4.49513 39.5656C5.15512 39.5656 5.70586 39.3917 6.14735 39.0439C6.59329 38.6916 6.92774 38.2189 7.15072 37.6258C7.37815 37.0282 7.49186 36.3637 7.49186 35.6324C7.49186 34.91 7.38038 34.2589 7.15741 33.6792C6.93889 33.095 6.60667 32.6334 6.16072 32.2945C5.71924 31.9511 5.16404 31.7795 4.49513 31.7795C3.85297 31.7795 3.31338 31.9422 2.87636 32.2678C2.43933 32.5888 2.10934 33.0392 1.88637 33.619C1.66339 34.1942 1.55191 34.8654 1.55191 35.6324ZM12.1065 40.7697V30.4951H13.6316V32.047H13.7386C13.9259 31.5386 14.2648 31.1261 14.7554 30.8095C15.2459 30.4929 15.7989 30.3346 16.4143 30.3346C16.5302 30.3346 16.6752 30.3368 16.8491 30.3413C17.023 30.3457 17.1545 30.3524 17.2437 30.3614V31.9668C17.1902 31.9534 17.0676 31.9333 16.8758 31.9065C16.6885 31.8753 16.4901 31.8597 16.2805 31.8597C15.781 31.8597 15.3351 31.9645 14.9427 32.1741C14.5547 32.3792 14.247 32.6646 14.0196 33.0303C13.7966 33.3915 13.6851 33.804 13.6851 34.2678V40.7697H12.1065ZM23.738 40.9837C22.748 40.9837 21.894 40.7652 21.1761 40.3282C20.4625 39.8867 19.9118 39.2713 19.5238 38.482C19.1403 37.6882 18.9486 36.7651 18.9486 35.7127C18.9486 34.6602 19.1403 33.7327 19.5238 32.93C19.9118 32.1228 20.4514 31.4941 21.1426 31.0436C21.8383 30.5888 22.6499 30.3614 23.5775 30.3614C24.1126 30.3614 24.641 30.4505 25.1628 30.6289C25.6845 30.8073 26.1595 31.0972 26.5876 31.4985C27.0157 31.8954 27.3568 32.4216 27.611 33.0771C27.8652 33.7327 27.9923 34.5398 27.9923 35.4986V36.1675H20.0723V34.8029H26.3869C26.3869 34.2232 26.2709 33.7059 26.0391 33.2511C25.8116 32.7962 25.4861 32.4372 25.0624 32.1741C24.6433 31.911 24.1483 31.7795 23.5775 31.7795C22.9487 31.7795 22.4046 31.9355 21.9453 32.2477C21.4904 32.5554 21.1404 32.9567 20.8951 33.4517C20.6498 33.9467 20.5272 34.4774 20.5272 35.0438V35.9535C20.5272 36.7294 20.661 37.3872 20.9286 37.9268C21.2006 38.4619 21.5774 38.8699 22.059 39.1509C22.5406 39.4274 23.1003 39.5656 23.738 39.5656C24.1527 39.5656 24.5273 39.5076 24.8618 39.3917C25.2007 39.2713 25.4928 39.0929 25.738 38.8566C25.9833 38.6158 26.1728 38.317 26.3066 37.9602L27.8317 38.3883C27.6712 38.9056 27.4014 39.3605 27.0224 39.7529C26.6433 40.1409 26.1751 40.4441 25.6176 40.6626C25.0602 40.8767 24.4337 40.9837 23.738 40.9837ZM22.7748 29.1038L24.4069 26H26.2531L24.1661 29.1038H22.7748ZM39.2751 40.7697L36.1446 30.4951H37.8035L40.0243 38.3616H40.1313L42.3253 30.4951H44.011L46.1783 38.3348H46.2853L48.5061 30.4951H50.165L47.0345 40.7697H45.4826L43.235 32.8765H43.0745L40.8269 40.7697H39.2751ZM56.8382 40.9837C55.8482 40.9837 54.9942 40.7652 54.2762 40.3282C53.5627 39.8867 53.012 39.2713 52.624 38.482C52.2405 37.6882 52.0488 36.7651 52.0488 35.7127C52.0488 34.6602 52.2405 33.7327 52.624 32.93C53.012 32.1228 53.5516 31.4941 54.2428 31.0436C54.9385 30.5888 55.7501 30.3614 56.6776 30.3614C57.2128 30.3614 57.7412 30.4505 58.263 30.6289C58.7847 30.8073 59.2596 31.0972 59.6877 31.4985C60.1159 31.8954 60.457 32.4216 60.7112 33.0771C60.9654 33.7327 61.0925 34.5398 61.0925 35.4986V36.1675H53.1725V34.8029H59.4871C59.4871 34.2232 59.3711 33.7059 59.1392 33.2511C58.9118 32.7962 58.5863 32.4372 58.1626 32.1741C57.7434 31.911 57.2484 31.7795 56.6776 31.7795C56.0489 31.7795 55.5048 31.9355 55.0455 32.2477C54.5906 32.5554 54.2406 32.9567 53.9953 33.4517C53.75 33.9467 53.6274 34.4774 53.6274 35.0438V35.9535C53.6274 36.7294 53.7612 37.3872 54.0287 37.9268C54.3008 38.4619 54.6776 38.8699 55.1592 39.1509C55.6408 39.4274 56.2005 39.5656 56.8382 39.5656C57.2529 39.5656 57.6275 39.5076 57.962 39.3917C58.3009 39.2713 58.593 39.0929 58.8382 38.8566C59.0835 38.6158 59.273 38.317 59.4068 37.9602L60.9319 38.3883C60.7714 38.9056 60.5016 39.3605 60.1225 39.7529C59.7435 40.1409 59.2753 40.4441 58.7178 40.6626C58.1604 40.8767 57.5338 40.9837 56.8382 40.9837ZM68.0015 40.9837C67.1452 40.9837 66.3894 40.7674 65.7338 40.3349C65.0783 39.8978 64.5655 39.2824 64.1953 38.4887C63.8252 37.6904 63.6401 36.7473 63.6401 35.6592C63.6401 34.58 63.8252 33.6435 64.1953 32.8497C64.5655 32.0559 65.0805 31.4428 65.7405 31.0102C66.4005 30.5776 67.1631 30.3614 68.0282 30.3614C68.6971 30.3614 69.2256 30.4728 69.6135 30.6958C70.006 30.9143 70.3047 31.1641 70.5099 31.445C70.7195 31.7215 70.8822 31.9489 70.9982 32.1273H71.132V27.0703H72.7106V40.7697H71.1855V39.191H70.9982C70.8822 39.3783 70.7172 39.6147 70.5032 39.9001C70.2891 40.181 69.9837 40.433 69.5868 40.6559C69.1899 40.8744 68.6614 40.9837 68.0015 40.9837ZM68.2155 39.5656C68.8487 39.5656 69.3839 39.4006 69.8209 39.0706C70.2579 38.7362 70.5902 38.2746 70.8176 37.686C71.045 37.0929 71.1587 36.4083 71.1587 35.6324C71.1587 34.8654 71.0472 34.1942 70.8243 33.619C70.6013 33.0392 70.2713 32.5888 69.8343 32.2678C69.3973 31.9422 68.8577 31.7795 68.2155 31.7795C67.5466 31.7795 66.9892 31.9511 66.5432 32.2945C66.1017 32.6334 65.7695 33.095 65.5465 33.6792C65.328 34.2589 65.2188 34.91 65.2188 35.6324C65.2188 36.3637 65.3303 37.0282 65.5532 37.6258C65.7807 38.2189 66.1151 38.6916 66.5566 39.0439C67.0025 39.3917 67.5555 39.5656 68.2155 39.5656ZM80.3286 40.9837C79.4724 40.9837 78.7166 40.7674 78.061 40.3349C77.4055 39.8978 76.8926 39.2824 76.5225 38.4887C76.1524 37.6904 75.9673 36.7473 75.9673 35.6592C75.9673 34.58 76.1524 33.6435 76.5225 32.8497C76.8926 32.0559 77.4077 31.4428 78.0677 31.0102C78.7277 30.5776 79.4903 30.3614 80.3554 30.3614C81.0243 30.3614 81.5527 30.4728 81.9407 30.6958C82.3331 30.9143 82.6319 31.1641 82.8371 31.445C83.0467 31.7215 83.2094 31.9489 83.3254 32.1273H83.4591V27.0703H85.0378V40.7697H83.5127V39.191H83.3254C83.2094 39.3783 83.0444 39.6147 82.8304 39.9001C82.6163 40.181 82.3108 40.433 81.914 40.6559C81.5171 40.8744 80.9886 40.9837 80.3286 40.9837ZM80.5427 39.5656C81.1759 39.5656 81.7111 39.4006 82.1481 39.0706C82.5851 38.7362 82.9173 38.2746 83.1448 37.686C83.3722 37.0929 83.4859 36.4083 83.4859 35.6324C83.4859 34.8654 83.3744 34.1942 83.1514 33.619C82.9285 33.0392 82.5985 32.5888 82.1615 32.2678C81.7244 31.9422 81.1848 31.7795 80.5427 31.7795C79.8738 31.7795 79.3163 31.9511 78.8704 32.2945C78.4289 32.6334 78.0967 33.095 77.8737 33.6792C77.6552 34.2589 77.546 34.91 77.546 35.6324C77.546 36.3637 77.6574 37.0282 77.8804 37.6258C78.1078 38.2189 78.4423 38.6916 78.8838 39.0439C79.3297 39.3917 79.8827 39.5656 80.5427 39.5656ZM88.7761 40.7697V30.4951H90.3548V40.7697H88.7761ZM89.5788 28.7827C89.2711 28.7827 89.0058 28.6779 88.7828 28.4683C88.5643 28.2587 88.455 28.0068 88.455 27.7125C88.455 27.4181 88.5643 27.1662 88.7828 26.9566C89.0058 26.747 89.2711 26.6422 89.5788 26.6422C89.8865 26.6422 90.1496 26.747 90.3681 26.9566C90.5911 27.1662 90.7026 27.4181 90.7026 27.7125C90.7026 28.0068 90.5911 28.2587 90.3681 28.4683C90.1496 28.6779 89.8865 28.7827 89.5788 28.7827ZM95.4527 34.5889V40.7697H93.874V30.4951H95.3992V32.1005H95.5329C95.7737 31.5788 96.1394 31.1596 96.63 30.843C97.1205 30.5219 97.7537 30.3614 98.5297 30.3614C99.2253 30.3614 99.8341 30.5041 100.356 30.7895C100.878 31.0704 101.283 31.4985 101.573 32.0738C101.863 32.6446 102.008 33.367 102.008 34.2411V40.7697H100.429V34.3481C100.429 33.5409 100.22 32.9121 99.8006 32.4617C99.3814 32.0069 98.8062 31.7795 98.0748 31.7795C97.5709 31.7795 97.1205 31.8887 96.7236 32.1072C96.3312 32.3257 96.0212 32.6446 95.7938 33.0638C95.5664 33.483 95.4527 33.9913 95.4527 34.5889ZM109.668 44.8366C108.905 44.8366 108.25 44.7385 107.701 44.5423C107.153 44.3506 106.696 44.0964 106.33 43.7798C105.969 43.4676 105.681 43.1331 105.467 42.7764L106.725 41.8934C106.867 42.0807 107.048 42.2948 107.266 42.5356C107.485 42.7809 107.784 42.9927 108.163 43.1711C108.546 43.3539 109.048 43.4453 109.668 43.4453C110.497 43.4453 111.182 43.2446 111.721 42.8433C112.261 42.4419 112.531 41.8132 112.531 40.9569V38.8699H112.397C112.281 39.0572 112.116 39.2891 111.902 39.5656C111.692 39.8376 111.389 40.0807 110.992 40.2947C110.6 40.5043 110.069 40.6091 109.4 40.6091C108.571 40.6091 107.826 40.4129 107.166 40.0205C106.511 39.628 105.991 39.0572 105.608 38.3081C105.228 37.5589 105.039 36.6491 105.039 35.5789C105.039 34.5265 105.224 33.61 105.594 32.8296C105.964 32.0448 106.479 31.4383 107.139 31.0102C107.799 30.5776 108.562 30.3614 109.427 30.3614C110.096 30.3614 110.627 30.4728 111.019 30.6958C111.416 30.9143 111.719 31.1641 111.929 31.445C112.143 31.7215 112.308 31.9489 112.424 32.1273H112.584V30.4951H114.109V41.064C114.109 41.9469 113.909 42.6649 113.507 43.2179C113.111 43.7753 112.575 44.1833 111.902 44.442C111.233 44.7051 110.488 44.8366 109.668 44.8366ZM109.614 39.191C110.248 39.191 110.783 39.0461 111.22 38.7562C111.657 38.4664 111.989 38.0494 112.216 37.5054C112.444 36.9613 112.558 36.3102 112.558 35.5521C112.558 34.8119 112.446 34.1586 112.223 33.5922C112 33.0259 111.67 32.5822 111.233 32.2611C110.796 31.94 110.256 31.7795 109.614 31.7795C108.945 31.7795 108.388 31.9489 107.942 32.2878C107.501 32.6267 107.168 33.0816 106.945 33.6524C106.727 34.2232 106.618 34.8565 106.618 35.5521C106.618 36.2656 106.729 36.8966 106.952 37.4452C107.179 37.9892 107.514 38.4173 107.955 38.7295C108.401 39.0372 108.954 39.191 109.614 39.191ZM118.778 40.8767C118.448 40.8767 118.164 40.7585 117.928 40.5222C117.692 40.2858 117.574 40.0026 117.574 39.6726C117.574 39.3426 117.692 39.0595 117.928 38.8231C118.164 38.5868 118.448 38.4686 118.778 38.4686C119.108 38.4686 119.391 38.5868 119.627 38.8231C119.863 39.0595 119.982 39.3426 119.982 39.6726C119.982 39.8911 119.926 40.0918 119.814 40.2747C119.707 40.4575 119.562 40.6047 119.38 40.7161C119.201 40.8232 119.001 40.8767 118.778 40.8767Z" fill="#B3B3B3"/>
</svg>
