<svg width="296" height="22" viewBox="0 0 296 22" fill="none" xmlns="http://www.w3.org/2000/svg">
<path d="M4.93726e-05 21.6432V5.23251H11.058V8.09316H3.46969V12.0035H10.4891V14.8642H3.46969V18.7825H11.0901V21.6432H4.93726e-05ZM28.1707 5.23251V21.6432H25.1738L18.0342 11.3144H17.914V21.6432H14.4444V5.23251H17.4893L24.5729 15.5533H24.7171V5.23251H28.1707ZM40.5677 9.95218C40.5036 9.3058 40.2285 8.80365 39.7424 8.44573C39.2563 8.08782 38.5965 7.90886 37.7632 7.90886C37.1969 7.90886 36.7188 7.98899 36.3288 8.14925C35.9389 8.30417 35.6397 8.52052 35.4314 8.7983C35.2284 9.07609 35.1269 9.39127 35.1269 9.74384C35.1162 10.0377 35.1776 10.2941 35.3112 10.5131C35.4501 10.7321 35.6397 10.9218 35.8801 11.082C36.1205 11.2369 36.3983 11.3732 36.7135 11.4907C37.0287 11.6029 37.3652 11.699 37.7231 11.7792L39.1975 12.1317C39.9133 12.292 40.5704 12.5057 41.1687 12.7728C41.767 13.0399 42.2852 13.3684 42.7232 13.7584C43.1613 14.1483 43.5005 14.6078 43.7409 15.1366C43.9866 15.6655 44.1122 16.2718 44.1175 16.9556C44.1122 17.9599 43.8558 18.8306 43.3483 19.5678C42.8461 20.2997 42.1196 20.8686 41.1687 21.2746C40.2232 21.6752 39.0827 21.8756 37.7472 21.8756C36.4223 21.8756 35.2685 21.6726 34.2855 21.2666C33.3079 20.8606 32.544 20.2596 31.9938 19.4636C31.4489 18.6623 31.1631 17.6714 31.1364 16.4908H34.4939C34.5313 17.041 34.6888 17.5005 34.9666 17.8691C35.2498 18.2323 35.6264 18.5074 36.0965 18.6944C36.5719 18.876 37.1088 18.9668 37.7071 18.9668C38.2947 18.9668 38.8049 18.8814 39.2376 18.7104C39.6756 18.5395 40.0148 18.3018 40.2552 17.9973C40.4956 17.6928 40.6158 17.3429 40.6158 16.9476C40.6158 16.579 40.5063 16.2691 40.2873 16.018C40.0736 15.767 39.7584 15.5533 39.3417 15.377C38.9304 15.2007 38.4256 15.0405 37.8273 14.8962L36.0404 14.4475C34.6568 14.1109 33.5644 13.5848 32.763 12.8689C31.9617 12.1531 31.5638 11.1889 31.5691 9.97622C31.5638 8.9826 31.8282 8.11453 32.3624 7.37199C32.9019 6.62945 33.6418 6.04984 34.582 5.63316C35.5222 5.21648 36.5906 5.00814 37.7872 5.00814C39.0052 5.00814 40.0683 5.21648 40.9764 5.63316C41.8899 6.04984 42.6004 6.62945 43.1079 7.37199C43.6154 8.11453 43.8771 8.97459 43.8931 9.95218H40.5677ZM49.5332 21.6432H45.8151L51.4803 5.23251H55.9516L61.6088 21.6432H57.8908L53.7801 8.9826H53.6519L49.5332 21.6432ZM49.3008 15.1927H58.0831V17.9011H49.3008V15.1927ZM67.6816 5.23251V21.6432H64.2119V5.23251H67.6816ZM86.2446 13.4378C86.2446 15.2274 85.9054 16.7499 85.2269 18.0053C84.5539 19.2606 83.635 20.2195 82.4705 20.882C81.3112 21.539 80.0078 21.8676 78.5601 21.8676C77.1017 21.8676 75.7929 21.5363 74.6337 20.8739C73.4745 20.2115 72.5583 19.2526 71.8853 17.9973C71.2122 16.7419 70.8756 15.2221 70.8756 13.4378C70.8756 11.6483 71.2122 10.1258 71.8853 8.87042C72.5583 7.61505 73.4745 6.65883 74.6337 6.00176C75.7929 5.33935 77.1017 5.00814 78.5601 5.00814C80.0078 5.00814 81.3112 5.33935 82.4705 6.00176C83.635 6.65883 84.5539 7.61505 85.2269 8.87042C85.9054 10.1258 86.2446 11.6483 86.2446 13.4378ZM82.7269 13.4378C82.7269 12.2786 82.5533 11.301 82.206 10.5051C81.8641 9.70912 81.3807 9.10547 80.7557 8.69414C80.1307 8.2828 79.3988 8.07713 78.5601 8.07713C77.7214 8.07713 76.9896 8.2828 76.3645 8.69414C75.7395 9.10547 75.2534 9.70912 74.9062 10.5051C74.5643 11.301 74.3933 12.2786 74.3933 13.4378C74.3933 14.5971 74.5643 15.5747 74.9062 16.3706C75.2534 17.1666 75.7395 17.7702 76.3645 18.1816C76.9896 18.5929 77.7214 18.7986 78.5601 18.7986C79.3988 18.7986 80.1307 18.5929 80.7557 18.1816C81.3807 17.7702 81.8641 17.1666 82.206 16.3706C82.5533 15.5747 82.7269 14.5971 82.7269 13.4378ZM98.3451 9.95218C98.281 9.3058 98.0059 8.80365 97.5198 8.44573C97.0337 8.08782 96.3739 7.90886 95.5406 7.90886C94.9743 7.90886 94.4962 7.98899 94.1062 8.14925C93.7163 8.30417 93.4171 8.52052 93.2088 8.7983C93.0058 9.07609 92.9043 9.39127 92.9043 9.74384C92.8936 10.0377 92.955 10.2941 93.0886 10.5131C93.2275 10.7321 93.4171 10.9218 93.6575 11.082C93.8979 11.2369 94.1757 11.3732 94.4909 11.4907C94.806 11.6029 95.1426 11.699 95.5005 11.7792L96.9749 12.1317C97.6907 12.292 98.3478 12.5057 98.9461 12.7728C99.5444 13.0399 100.063 13.3684 100.501 13.7584C100.939 14.1483 101.278 14.6078 101.518 15.1366C101.764 15.6655 101.89 16.2718 101.895 16.9556C101.89 17.9599 101.633 18.8306 101.126 19.5678C100.624 20.2997 99.897 20.8686 98.9461 21.2746C98.0006 21.6752 96.8601 21.8756 95.5245 21.8756C94.1997 21.8756 93.0459 21.6726 92.0629 21.2666C91.0853 20.8606 90.3214 20.2596 89.7712 19.4636C89.2263 18.6623 88.9405 17.6714 88.9138 16.4908H92.2713C92.3087 17.041 92.4662 17.5005 92.744 17.8691C93.0272 18.2323 93.4038 18.5074 93.8739 18.6944C94.3493 18.876 94.8862 18.9668 95.4845 18.9668C96.0721 18.9668 96.5823 18.8814 97.015 18.7104C97.453 18.5395 97.7922 18.3018 98.0326 17.9973C98.273 17.6928 98.3932 17.3429 98.3932 16.9476C98.3932 16.579 98.2837 16.2691 98.0647 16.018C97.851 15.767 97.5358 15.5533 97.1191 15.377C96.7078 15.2007 96.203 15.0405 95.6047 14.8962L93.8178 14.4475C92.4342 14.1109 91.3417 13.5848 90.5404 12.8689C89.7391 12.1531 89.3412 11.1889 89.3465 9.97622C89.3412 8.9826 89.6056 8.11453 90.1398 7.37199C90.6793 6.62945 91.4192 6.04984 92.3594 5.63316C93.2996 5.21648 94.368 5.00814 95.5646 5.00814C96.7826 5.00814 97.8457 5.21648 98.7538 5.63316C99.6673 6.04984 100.378 6.62945 100.885 7.37199C101.393 8.11453 101.655 8.97459 101.671 9.95218H98.3451ZM110.707 21.6432V5.23251H121.573V8.09316H114.177V12.0035H120.851V14.8642H114.177V21.6432H110.707ZM139.615 13.4378C139.615 15.2274 139.276 16.7499 138.597 18.0053C137.924 19.2606 137.005 20.2195 135.841 20.882C134.681 21.539 133.378 21.8676 131.93 21.8676C130.472 21.8676 129.163 21.5363 128.004 20.8739C126.845 20.2115 125.929 19.2526 125.255 17.9973C124.582 16.7419 124.246 15.2221 124.246 13.4378C124.246 11.6483 124.582 10.1258 125.255 8.87042C125.929 7.61505 126.845 6.65883 128.004 6.00176C129.163 5.33935 130.472 5.00814 131.93 5.00814C133.378 5.00814 134.681 5.33935 135.841 6.00176C137.005 6.65883 137.924 7.61505 138.597 8.87042C139.276 10.1258 139.615 11.6483 139.615 13.4378ZM136.097 13.4378C136.097 12.2786 135.923 11.301 135.576 10.5051C135.234 9.70912 134.751 9.10547 134.126 8.69414C133.501 8.2828 132.769 8.07713 131.93 8.07713C131.092 8.07713 130.36 8.2828 129.735 8.69414C129.11 9.10547 128.624 9.70912 128.276 10.5051C127.935 11.301 127.764 12.2786 127.764 13.4378C127.764 14.5971 127.935 15.5747 128.276 16.3706C128.624 17.1666 129.11 17.7702 129.735 18.1816C130.36 18.5929 131.092 18.7986 131.93 18.7986C132.769 18.7986 133.501 18.5929 134.126 18.1816C134.751 17.7702 135.234 17.1666 135.576 16.3706C135.923 15.5747 136.097 14.5971 136.097 13.4378ZM141.439 8.09316V5.23251H154.917V8.09316H149.892V21.6432H146.463V8.09316H141.439ZM172.095 13.4378C172.095 15.2274 171.756 16.7499 171.078 18.0053C170.405 19.2606 169.486 20.2195 168.321 20.882C167.162 21.539 165.859 21.8676 164.411 21.8676C162.953 21.8676 161.644 21.5363 160.484 20.8739C159.325 20.2115 158.409 19.2526 157.736 17.9973C157.063 16.7419 156.726 15.2221 156.726 13.4378C156.726 11.6483 157.063 10.1258 157.736 8.87042C158.409 7.61505 159.325 6.65883 160.484 6.00176C161.644 5.33935 162.953 5.00814 164.411 5.00814C165.859 5.00814 167.162 5.33935 168.321 6.00176C169.486 6.65883 170.405 7.61505 171.078 8.87042C171.756 10.1258 172.095 11.6483 172.095 13.4378ZM168.578 13.4378C168.578 12.2786 168.404 11.301 168.057 10.5051C167.715 9.70912 167.231 9.10547 166.606 8.69414C165.981 8.2828 165.25 8.07713 164.411 8.07713C163.572 8.07713 162.84 8.2828 162.215 8.69414C161.59 9.10547 161.104 9.70912 160.757 10.5051C160.415 11.301 160.244 12.2786 160.244 13.4378C160.244 14.5971 160.415 15.5747 160.757 16.3706C161.104 17.1666 161.59 17.7702 162.215 18.1816C162.84 18.5929 163.572 18.7986 164.411 18.7986C165.25 18.7986 165.981 18.5929 166.606 18.1816C167.231 17.7702 167.715 17.1666 168.057 16.3706C168.404 15.5747 168.578 14.5971 168.578 13.4378ZM186.175 10.5371C186.063 10.1472 185.905 9.8026 185.702 9.50345C185.499 9.19896 185.251 8.94254 184.957 8.7342C184.669 8.52052 184.337 8.35759 183.964 8.24541C183.595 8.13322 183.186 8.07713 182.738 8.07713C181.899 8.07713 181.162 8.28547 180.526 8.70215C179.896 9.11883 179.404 9.72514 179.052 10.5211C178.699 11.3117 178.523 12.2786 178.523 13.4218C178.523 14.565 178.696 15.5373 179.044 16.3386C179.391 17.1399 179.882 17.7515 180.518 18.1735C181.154 18.5902 181.904 18.7986 182.77 18.7986C183.555 18.7986 184.225 18.6597 184.781 18.3819C185.342 18.0988 185.769 17.7008 186.063 17.1879C186.362 16.6751 186.512 16.0688 186.512 15.369L187.217 15.4732H182.986V12.8609H189.853V14.9283C189.853 16.3706 189.549 17.61 188.94 18.6463C188.331 19.6773 187.492 20.4733 186.424 21.0342C185.355 21.5898 184.132 21.8676 182.754 21.8676C181.215 21.8676 179.864 21.5283 178.699 20.8499C177.534 20.1661 176.626 19.1965 175.975 17.9412C175.328 16.6805 175.005 15.1847 175.005 13.4539C175.005 12.1237 175.197 10.9378 175.582 9.89609C175.972 8.84905 176.517 7.96228 177.217 7.23576C177.916 6.50925 178.731 5.95635 179.661 5.57707C180.59 5.19778 181.597 5.00814 182.681 5.00814C183.611 5.00814 184.476 5.14436 185.278 5.41681C186.079 5.68391 186.789 6.06319 187.409 6.55466C188.034 7.04612 188.544 7.63107 188.94 8.30951C189.335 8.9826 189.589 9.72514 189.701 10.5371H186.175ZM193.087 21.6432V5.23251H199.562C200.801 5.23251 201.859 5.4542 202.735 5.89759C203.616 6.33563 204.287 6.95798 204.746 7.76462C205.211 8.56593 205.443 9.50879 205.443 10.5932C205.443 11.683 205.208 12.6205 204.738 13.4058C204.268 14.1857 203.587 14.784 202.695 15.2007C201.808 15.6174 200.734 15.8257 199.474 15.8257H195.139V13.0372H198.913C199.575 13.0372 200.125 12.9464 200.563 12.7648C201.001 12.5831 201.327 12.3107 201.541 11.9474C201.76 11.5842 201.87 11.1328 201.87 10.5932C201.87 10.0483 201.76 9.58892 201.541 9.21498C201.327 8.84104 200.999 8.55791 200.555 8.3656C200.117 8.16795 199.564 8.06912 198.897 8.06912H196.557V21.6432H193.087ZM201.95 14.175L206.028 21.6432H202.198L198.208 14.175H201.95ZM211.352 21.6432H207.634L213.299 5.23251H217.77L223.427 21.6432H219.709L215.599 8.9826H215.47L211.352 21.6432ZM211.119 15.1927H219.902V17.9011H211.119V15.1927ZM214.309 3.64593L216.007 7.10841e-07H219.164L216.721 3.64593H214.309ZM226.031 21.6432V5.23251H236.896V8.09316H229.5V12.0035H236.175V14.8642H229.5V21.6432H226.031ZM243.328 5.23251V21.6432H239.858V5.23251H243.328ZM261.29 10.9778H257.78C257.716 10.5238 257.585 10.1205 257.387 9.76788C257.19 9.40997 256.936 9.10547 256.626 8.8544C256.316 8.60332 255.958 8.41101 255.552 8.27746C255.152 8.14391 254.716 8.07713 254.246 8.07713C253.397 8.07713 252.657 8.28814 252.027 8.71016C251.396 9.12684 250.907 9.73583 250.56 10.5371C250.213 11.3331 250.039 12.3 250.039 13.4378C250.039 14.6077 250.213 15.5907 250.56 16.3866C250.913 17.1826 251.404 17.7836 252.035 18.1896C252.665 18.5956 253.394 18.7986 254.222 18.7986C254.687 18.7986 255.117 18.7371 255.512 18.6143C255.913 18.4914 256.268 18.3124 256.578 18.0774C256.888 17.837 257.144 17.5459 257.347 17.204C257.556 16.8621 257.7 16.4721 257.78 16.0341L261.29 16.0501C261.199 16.8033 260.972 17.5298 260.608 18.2296C260.251 18.9241 259.767 19.5464 259.158 20.0967C258.554 20.6416 257.833 21.0743 256.995 21.3948C256.161 21.71 255.218 21.8676 254.166 21.8676C252.702 21.8676 251.393 21.5363 250.24 20.8739C249.091 20.2115 248.183 19.2526 247.515 17.9973C246.853 16.7419 246.522 15.2221 246.522 13.4378C246.522 11.6483 246.858 10.1258 247.531 8.87042C248.204 7.61505 249.118 6.65883 250.272 6.00176C251.426 5.33935 252.724 5.00814 254.166 5.00814C255.117 5.00814 255.998 5.14169 256.81 5.40879C257.628 5.6759 258.351 6.06586 258.982 6.5787C259.612 7.08619 260.125 7.70853 260.52 8.44573C260.921 9.18293 261.177 10.027 261.29 10.9778ZM279.486 13.4378C279.486 15.2274 279.147 16.7499 278.468 18.0053C277.795 19.2606 276.876 20.2195 275.712 20.882C274.553 21.539 273.249 21.8676 271.802 21.8676C270.343 21.8676 269.034 21.5363 267.875 20.8739C266.716 20.2115 265.8 19.2526 265.127 17.9973C264.454 16.7419 264.117 15.2221 264.117 13.4378C264.117 11.6483 264.454 10.1258 265.127 8.87042C265.8 7.61505 266.716 6.65883 267.875 6.00176C269.034 5.33935 270.343 5.00814 271.802 5.00814C273.249 5.00814 274.553 5.33935 275.712 6.00176C276.876 6.65883 277.795 7.61505 278.468 8.87042C279.147 10.1258 279.486 11.6483 279.486 13.4378ZM275.968 13.4378C275.968 12.2786 275.795 11.301 275.447 10.5051C275.106 9.70912 274.622 9.10547 273.997 8.69414C273.372 8.2828 272.64 8.07713 271.802 8.07713C270.963 8.07713 270.231 8.2828 269.606 8.69414C268.981 9.10547 268.495 9.70912 268.148 10.5051C267.806 11.301 267.635 12.2786 267.635 13.4378C267.635 14.5971 267.806 15.5747 268.148 16.3706C268.495 17.1666 268.981 17.7702 269.606 18.1816C270.231 18.5929 270.963 18.7986 271.802 18.7986C272.64 18.7986 273.372 18.5929 273.997 18.1816C274.622 17.7702 275.106 17.1666 275.447 16.3706C275.795 15.5747 275.968 14.5971 275.968 13.4378ZM291.587 9.95218C291.522 9.3058 291.247 8.80365 290.761 8.44573C290.275 8.08782 289.615 7.90886 288.782 7.90886C288.216 7.90886 287.738 7.98899 287.348 8.14925C286.958 8.30417 286.659 8.52052 286.45 8.7983C286.247 9.07609 286.146 9.39127 286.146 9.74384C286.135 10.0377 286.196 10.2941 286.33 10.5131C286.469 10.7321 286.659 10.9218 286.899 11.082C287.139 11.2369 287.417 11.3732 287.732 11.4907C288.047 11.6029 288.384 11.699 288.742 11.7792L290.216 12.1317C290.932 12.292 291.589 12.5057 292.188 12.7728C292.786 13.0399 293.304 13.3684 293.742 13.7584C294.18 14.1483 294.519 14.6078 294.76 15.1366C295.005 15.6655 295.131 16.2718 295.136 16.9556C295.131 17.9599 294.875 18.8306 294.367 19.5678C293.865 20.2997 293.138 20.8686 292.188 21.2746C291.242 21.6752 290.101 21.8756 288.766 21.8756C287.441 21.8756 286.287 21.6726 285.304 21.2666C284.327 20.8606 283.563 20.2596 283.013 19.4636C282.468 18.6623 282.182 17.6714 282.155 16.4908H285.513C285.55 17.041 285.708 17.5005 285.985 17.8691C286.269 18.2323 286.645 18.5074 287.115 18.6944C287.591 18.876 288.128 18.9668 288.726 18.9668C289.314 18.9668 289.824 18.8814 290.256 18.7104C290.694 18.5395 291.034 18.3018 291.274 17.9973C291.514 17.6928 291.635 17.3429 291.635 16.9476C291.635 16.579 291.525 16.2691 291.306 16.018C291.092 15.767 290.777 15.5533 290.361 15.377C289.949 15.2007 289.444 15.0405 288.846 14.8962L287.059 14.4475C285.676 14.1109 284.583 13.5848 283.782 12.8689C282.981 12.1531 282.583 11.1889 282.588 9.97622C282.583 8.9826 282.847 8.11453 283.381 7.37199C283.921 6.62945 284.661 6.04984 285.601 5.63316C286.541 5.21648 287.609 5.00814 288.806 5.00814C290.024 5.00814 291.087 5.21648 291.995 5.63316C292.909 6.04984 293.619 6.62945 294.127 7.37199C294.634 8.11453 294.896 8.97459 294.912 9.95218H291.587Z" fill="white"/>
</svg>
