<svg width="249" height="27" viewBox="0 0 249 27" fill="none" xmlns="http://www.w3.org/2000/svg">
<path d="M4.93726e-05 21.2666V4.85592H6.47458C7.71927 4.85592 8.77966 5.09364 9.65575 5.56908C10.5318 6.03918 11.1996 6.69357 11.659 7.53227C12.1238 8.36563 12.3561 9.32719 12.3561 10.417C12.3561 11.5067 12.1211 12.4683 11.651 13.3017C11.1809 14.135 10.4998 14.7841 9.60767 15.2488C8.72089 15.7136 7.64715 15.946 6.38643 15.946H2.25972V13.1654H5.82552C6.49327 13.1654 7.0435 13.0506 7.4762 12.8209C7.91425 12.5858 8.24011 12.2626 8.45379 11.8513C8.67282 11.4346 8.78233 10.9565 8.78233 10.417C8.78233 9.87208 8.67282 9.39664 8.45379 8.99064C8.24011 8.57931 7.91425 8.26146 7.4762 8.03709C7.03816 7.80739 6.48259 7.69253 5.80949 7.69253H3.46969V21.2666H4.93726e-05ZM15.2377 21.2666V4.85592H21.7122C22.9516 4.85592 24.0093 5.07761 24.8854 5.521C25.7668 5.95905 26.4372 6.58139 26.8966 7.38804C27.3614 8.18934 27.5938 9.13221 27.5938 10.2166C27.5938 11.3064 27.3587 12.2439 26.8886 13.0292C26.4185 13.8091 25.7374 14.4074 24.8453 14.8241C23.9585 15.2408 22.8848 15.4491 21.6241 15.4491H17.289V12.6606H21.0632C21.7256 12.6606 22.2758 12.5698 22.7138 12.3882C23.1519 12.2065 23.4778 11.9341 23.6914 11.5708C23.9105 11.2076 24.02 10.7562 24.02 10.2166C24.02 9.67175 23.9105 9.21234 23.6914 8.8384C23.4778 8.46445 23.1492 8.18133 22.7058 7.98901C22.2678 7.79136 21.7149 7.69253 21.0471 7.69253H18.7073V21.2666H15.2377ZM24.1001 13.7985L28.1787 21.2666H24.3485L20.358 13.7985H24.1001ZM45.7542 13.0613C45.7542 14.8508 45.415 16.3733 44.7365 17.6287C44.0634 18.8841 43.1446 19.843 41.98 20.5054C40.8208 21.1624 39.5174 21.491 38.0697 21.491C36.6113 21.491 35.3025 21.1598 34.1433 20.4974C32.9841 19.8349 32.0679 18.876 31.3948 17.6207C30.7217 16.3653 30.3852 14.8455 30.3852 13.0613C30.3852 11.2717 30.7217 9.74921 31.3948 8.49384C32.0679 7.23846 32.9841 6.28224 34.1433 5.62517C35.3025 4.96276 36.6113 4.63156 38.0697 4.63156C39.5174 4.63156 40.8208 4.96276 41.98 5.62517C43.1446 6.28224 44.0634 7.23846 44.7365 8.49384C45.415 9.74921 45.7542 11.2717 45.7542 13.0613ZM42.2365 13.0613C42.2365 11.902 42.0628 10.9245 41.7156 10.1285C41.3737 9.33253 40.8903 8.72888 40.2652 8.31755C39.6402 7.90621 38.9084 7.70055 38.0697 7.70055C37.231 7.70055 36.4991 7.90621 35.8741 8.31755C35.2491 8.72888 34.763 9.33253 34.4157 10.1285C34.0738 10.9245 33.9029 11.902 33.9029 13.0613C33.9029 14.2205 34.0738 15.1981 34.4157 15.994C34.763 16.79 35.2491 17.3936 35.8741 17.805C36.4991 18.2163 37.231 18.422 38.0697 18.422C38.9084 18.422 39.6402 18.2163 40.2652 17.805C40.8903 17.3936 41.3737 16.79 41.7156 15.994C42.0628 15.1981 42.2365 14.2205 42.2365 13.0613ZM54.7697 21.2666H48.9522V4.85592H54.8178C56.4685 4.85592 57.8894 5.18445 59.0807 5.84152C60.272 6.49325 61.1881 7.43077 61.8292 8.6541C62.4756 9.87742 62.7987 11.3411 62.7987 13.0452C62.7987 14.7547 62.4756 16.2237 61.8292 17.4524C61.1881 18.6811 60.2666 19.6239 59.0647 20.281C57.8681 20.9381 56.4364 21.2666 54.7697 21.2666ZM52.4219 18.2938H54.6255C55.6511 18.2938 56.5139 18.1121 57.2137 17.7489C57.9188 17.3803 58.4477 16.8114 58.8002 16.0421C59.1582 15.2675 59.3371 14.2686 59.3371 13.0452C59.3371 11.8326 59.1582 10.8417 58.8002 10.0724C58.4477 9.30315 57.9215 8.7369 57.2217 8.37364C56.5219 8.01038 55.6591 7.82875 54.6335 7.82875H52.4219V18.2938ZM76.1333 4.85592H79.6029V15.5132C79.6029 16.7099 79.3171 17.7569 78.7455 18.6544C78.1793 19.5518 77.386 20.2516 76.3657 20.7538C75.3453 21.2506 74.1567 21.499 72.7999 21.499C71.4377 21.499 70.2464 21.2506 69.2261 20.7538C68.2057 20.2516 67.4124 19.5518 66.8462 18.6544C66.2799 17.7569 65.9968 16.7099 65.9968 15.5132V4.85592H69.4665V15.2168C69.4665 15.8418 69.6027 16.3974 69.8751 16.8835C70.1529 17.3696 70.5429 17.7516 71.045 18.0293C71.5472 18.3071 72.1321 18.446 72.7999 18.446C73.473 18.446 74.0579 18.3071 74.5547 18.0293C75.0569 17.7516 75.4442 17.3696 75.7166 16.8835C75.9944 16.3974 76.1333 15.8418 76.1333 15.2168V4.85592ZM97.565 10.6013H94.0553C93.9912 10.1472 93.8603 9.74387 93.6627 9.39129C93.465 9.03338 93.2113 8.72888 92.9014 8.47781C92.5916 8.22673 92.2337 8.03442 91.8277 7.90087C91.427 7.76732 90.9916 7.70055 90.5216 7.70055C89.6722 7.70055 88.9323 7.91156 88.3019 8.33357C87.6716 8.75025 87.1828 9.35924 86.8356 10.1605C86.4883 10.9565 86.3147 11.9234 86.3147 13.0613C86.3147 14.2312 86.4883 15.2141 86.8356 16.0101C87.1881 16.806 87.6796 17.407 88.31 17.813C88.9403 18.219 89.6695 18.422 90.4975 18.422C90.9623 18.422 91.3923 18.3605 91.7876 18.2377C92.1883 18.1148 92.5435 17.9359 92.8533 17.7008C93.1632 17.4604 93.4196 17.1693 93.6226 16.8274C93.8309 16.4855 93.9752 16.0955 94.0553 15.6575L97.565 15.6735C97.4742 16.4267 97.2472 17.1532 96.8839 17.8531C96.526 18.5475 96.0425 19.1699 95.4335 19.7201C94.8299 20.265 94.1087 20.6977 93.27 21.0182C92.4367 21.3334 91.4938 21.491 90.4414 21.491C88.9777 21.491 87.6689 21.1598 86.515 20.4974C85.3665 19.8349 84.4584 18.876 83.7906 17.6207C83.1282 16.3653 82.797 14.8455 82.797 13.0613C82.797 11.2717 83.1335 9.74921 83.8066 8.49384C84.4797 7.23846 85.3932 6.28224 86.5471 5.62517C87.701 4.96276 88.9991 4.63156 90.4414 4.63156C91.3923 4.63156 92.2737 4.76511 93.0857 5.03221C93.903 5.29931 94.6269 5.68928 95.2573 6.20211C95.8876 6.7096 96.4004 7.33195 96.7958 8.06914C97.1964 8.80634 97.4528 9.65038 97.565 10.6013ZM89.584 21.2185H91.1546L91.0264 21.9157C91.5766 22.0011 92.0253 22.2068 92.3726 22.5327C92.7251 22.8585 92.9041 23.3019 92.9094 23.8628C92.9148 24.6588 92.5462 25.2918 91.8036 25.7619C91.0611 26.2373 90.0194 26.4751 88.6786 26.4751L88.6465 24.9526C89.3196 24.9526 89.8458 24.8698 90.2251 24.7042C90.6097 24.5439 90.81 24.2929 90.826 23.951C90.8367 23.6251 90.7112 23.3767 90.4494 23.2058C90.1877 23.0348 89.779 22.9146 89.2234 22.8452L89.584 21.2185ZM103.201 21.2666H99.483L105.148 4.85592H109.619L115.277 21.2666H111.559L107.448 8.60602H107.32L103.201 21.2666ZM102.969 14.8161H111.751V17.5245H102.969V14.8161ZM105.084 3.23729L103.193 3.21325C103.193 2.19292 103.444 1.41032 103.946 0.865432C104.448 0.320547 105.065 0.0454327 105.797 0.0400905C106.171 0.0400905 106.492 0.101524 106.759 0.22439C107.026 0.341915 107.269 0.480807 107.488 0.641068C107.707 0.801328 107.915 0.942892 108.113 1.06576C108.311 1.18328 108.524 1.24205 108.754 1.24205C109.064 1.2367 109.299 1.12185 109.459 0.897485C109.625 0.667778 109.708 0.368625 109.708 2.54843e-05L111.575 0.056117C111.564 1.06576 111.308 1.84569 110.805 2.39592C110.303 2.94081 109.689 3.21592 108.962 3.22126C108.567 3.2266 108.233 3.16784 107.961 3.04498C107.694 2.92211 107.459 2.78322 107.256 2.6283C107.053 2.46804 106.855 2.32647 106.663 2.20361C106.47 2.08074 106.254 2.01931 106.014 2.01931C105.736 2.01931 105.511 2.12882 105.341 2.34784C105.17 2.56687 105.084 2.86335 105.084 3.23729ZM132.189 13.0613C132.189 14.8508 131.85 16.3733 131.171 17.6287C130.498 18.8841 129.579 19.843 128.415 20.5054C127.256 21.1624 125.952 21.491 124.505 21.491C123.046 21.491 121.737 21.1598 120.578 20.4974C119.419 19.8349 118.503 18.876 117.83 17.6207C117.157 16.3653 116.82 14.8455 116.82 13.0613C116.82 11.2717 117.157 9.74921 117.83 8.49384C118.503 7.23846 119.419 6.28224 120.578 5.62517C121.737 4.96276 123.046 4.63156 124.505 4.63156C125.952 4.63156 127.256 4.96276 128.415 5.62517C129.579 6.28224 130.498 7.23846 131.171 8.49384C131.85 9.74921 132.189 11.2717 132.189 13.0613ZM128.671 13.0613C128.671 11.902 128.498 10.9245 128.15 10.1285C127.809 9.33253 127.325 8.72888 126.7 8.31755C126.075 7.90621 125.343 7.70055 124.505 7.70055C123.666 7.70055 122.934 7.90621 122.309 8.31755C121.684 8.72888 121.198 9.33253 120.851 10.1285C120.509 10.9245 120.338 11.902 120.338 13.0613C120.338 14.2205 120.509 15.1981 120.851 15.994C121.198 16.79 121.684 17.3936 122.309 17.805C122.934 18.2163 123.666 18.422 124.505 18.422C125.343 18.422 126.075 18.2163 126.7 17.805C127.325 17.3936 127.809 16.79 128.15 15.994C128.498 15.1981 128.671 14.2205 128.671 13.0613ZM147.055 21.2666H141.237V4.85592H147.103C148.754 4.85592 150.175 5.18445 151.366 5.84152C152.557 6.49325 153.473 7.43077 154.114 8.6541C154.761 9.87742 155.084 11.3411 155.084 13.0452C155.084 14.7547 154.761 16.2237 154.114 17.4524C153.473 18.6811 152.552 19.6239 151.35 20.281C150.153 20.9381 148.722 21.2666 147.055 21.2666ZM144.707 18.2938H146.911C147.936 18.2938 148.799 18.1121 149.499 17.7489C150.204 17.3803 150.733 16.8114 151.085 16.0421C151.443 15.2675 151.622 14.2686 151.622 13.0452C151.622 11.8326 151.443 10.8417 151.085 10.0724C150.733 9.30315 150.207 8.7369 149.507 8.37364C148.807 8.01038 147.944 7.82875 146.919 7.82875H144.707V18.2938ZM158.282 21.2666V4.85592H169.34V7.71657H161.752V11.6269H168.771V14.4876H161.752V18.406H169.372V21.2666H158.282ZM178.577 21.2666V4.85592H185.051C186.291 4.85592 187.348 5.07761 188.224 5.521C189.106 5.95905 189.776 6.58139 190.236 7.38804C190.7 8.18934 190.933 9.13221 190.933 10.2166C190.933 11.3064 190.698 12.2439 190.228 13.0292C189.758 13.8091 189.077 14.4074 188.184 14.8241C187.298 15.2408 186.224 15.4491 184.963 15.4491H180.628V12.6606H184.402C185.065 12.6606 185.615 12.5698 186.053 12.3882C186.491 12.2065 186.817 11.9341 187.031 11.5708C187.25 11.2076 187.359 10.7562 187.359 10.2166C187.359 9.67175 187.25 9.21234 187.031 8.8384C186.817 8.46445 186.488 8.18133 186.045 7.98901C185.607 7.79136 185.054 7.69253 184.386 7.69253H182.046V21.2666H178.577ZM187.439 13.7985L191.518 21.2666H187.688L183.697 13.7985H187.439ZM194.013 21.2666V4.85592H205.071V7.71657H197.482V11.6269H204.502V14.4876H197.482V18.406H205.103V21.2666H194.013ZM208.457 21.2666V4.85592H219.515V7.71657H211.927V11.6269H218.946V14.4876H211.927V18.406H219.547V21.2666H208.457ZM222.901 21.2666V4.85592H226.371V18.406H233.407V21.2666H222.901ZM245.235 9.57559C245.171 8.92921 244.895 8.42706 244.409 8.06914C243.923 7.71123 243.263 7.53227 242.43 7.53227C241.864 7.53227 241.386 7.6124 240.996 7.77266C240.606 7.92758 240.307 8.14393 240.098 8.42172C239.895 8.6995 239.794 9.01468 239.794 9.36726C239.783 9.66107 239.845 9.91748 239.978 10.1365C240.117 10.3555 240.307 10.5452 240.547 10.7054C240.787 10.8603 241.065 10.9966 241.38 11.1141C241.696 11.2263 242.032 11.3224 242.39 11.4026L243.864 11.7551C244.58 11.9154 245.237 12.1291 245.836 12.3962C246.434 12.6633 246.952 12.9918 247.39 13.3818C247.828 13.7717 248.167 14.2312 248.408 14.76C248.654 15.2889 248.779 15.8952 248.784 16.579C248.779 17.5833 248.523 18.454 248.015 19.1912C247.513 19.9231 246.786 20.492 245.836 20.898C244.89 21.2987 243.75 21.499 242.414 21.499C241.089 21.499 239.935 21.296 238.952 20.89C237.975 20.484 237.211 19.883 236.661 19.0871C236.116 18.2858 235.83 17.2948 235.803 16.1142H239.161C239.198 16.6645 239.356 17.1239 239.634 17.4925C239.917 17.8557 240.293 18.1308 240.763 18.3178C241.239 18.4994 241.776 18.5903 242.374 18.5903C242.962 18.5903 243.472 18.5048 243.904 18.3338C244.342 18.1629 244.682 17.9252 244.922 17.6207C245.162 17.3162 245.283 16.9663 245.283 16.571C245.283 16.2024 245.173 15.8925 244.954 15.6415C244.74 15.3904 244.425 15.1767 244.009 15.0004C243.597 14.8241 243.092 14.6639 242.494 14.5196L240.707 14.0709C239.324 13.7344 238.231 13.2082 237.43 12.4923C236.629 11.7765 236.231 10.8123 236.236 9.59963C236.231 8.60602 236.495 7.73794 237.029 6.9954C237.569 6.25286 238.309 5.67325 239.249 5.25657C240.189 4.83989 241.257 4.63156 242.454 4.63156C243.672 4.63156 244.735 4.83989 245.643 5.25657C246.557 5.67325 247.267 6.25286 247.775 6.9954C248.282 7.73794 248.544 8.598 248.56 9.57559H245.235Z" fill="white"/>
</svg>
