<svg width="469" height="43" viewBox="0 0 469 43" fill="none" xmlns="http://www.w3.org/2000/svg">
<path d="M0.695771 14.3416V0.642202H5.32465C6.39937 0.642202 7.27788 0.836187 7.96017 1.22416C8.64692 1.60767 9.1553 2.12719 9.4853 2.78273C9.81529 3.43826 9.98029 4.16961 9.98029 4.97676C9.98029 5.78392 9.81529 6.51749 9.4853 7.17749C9.15976 7.83748 8.65584 8.36369 7.97355 8.75612C7.29126 9.14409 6.41721 9.33808 5.35141 9.33808H2.0336V7.86647H5.2979C6.0337 7.86647 6.62458 7.73938 7.07052 7.48519C7.51646 7.231 7.83977 6.88763 8.04044 6.45506C8.24558 6.01804 8.34814 5.52527 8.34814 4.97676C8.34814 4.42825 8.24558 3.93772 8.04044 3.50515C7.83977 3.07259 7.51423 2.73367 7.06383 2.4884C6.61343 2.23868 6.01586 2.11381 5.27114 2.11381H2.35468V14.3416H0.695771ZM13.0664 14.3416V4.06704H14.5916V5.61892H14.6986C14.8859 5.11055 15.2248 4.69805 15.7153 4.38143C16.2059 4.06481 16.7588 3.9065 17.3742 3.9065C17.4902 3.9065 17.6351 3.90873 17.809 3.91319C17.983 3.91765 18.1145 3.92434 18.2037 3.93326V5.53865C18.1502 5.52527 18.0275 5.5052 17.8358 5.47845C17.6485 5.44723 17.4501 5.43162 17.2405 5.43162C16.741 5.43162 16.2951 5.53642 15.9026 5.74601C15.5147 5.95115 15.207 6.23655 14.9795 6.60222C14.7566 6.96344 14.6451 7.37593 14.6451 7.83971V14.3416H13.0664ZM24.5642 14.5556C23.6366 14.5556 22.8228 14.3349 22.1226 13.8934C21.427 13.4519 20.8829 12.8343 20.4905 12.0405C20.1025 11.2467 19.9085 10.3192 19.9085 9.25781C19.9085 8.18755 20.1025 7.2533 20.4905 6.45506C20.8829 5.65682 21.427 5.03696 22.1226 4.59548C22.8228 4.154 23.6366 3.93326 24.5642 3.93326C25.4917 3.93326 26.3033 4.154 26.999 4.59548C27.6991 5.03696 28.2432 5.65682 28.6312 6.45506C29.0236 7.2533 29.2198 8.18755 29.2198 9.25781C29.2198 10.3192 29.0236 11.2467 28.6312 12.0405C28.2432 12.8343 27.6991 13.4519 26.999 13.8934C26.3033 14.3349 25.4917 14.5556 24.5642 14.5556ZM24.5642 13.1375C25.2688 13.1375 25.8485 12.9569 26.3033 12.5957C26.7582 12.2345 27.0949 11.7595 27.3134 11.1709C27.5319 10.5823 27.6412 9.94456 27.6412 9.25781C27.6412 8.57106 27.5319 7.93113 27.3134 7.33803C27.0949 6.74492 26.7582 6.26554 26.3033 5.89986C25.8485 5.53419 25.2688 5.35135 24.5642 5.35135C23.8596 5.35135 23.2799 5.53419 22.825 5.89986C22.3701 6.26554 22.0334 6.74492 21.8149 7.33803C21.5964 7.93113 21.4872 8.57106 21.4872 9.25781C21.4872 9.94456 21.5964 10.5823 21.8149 11.1709C22.0334 11.7595 22.3701 12.2345 22.825 12.5957C23.2799 12.9569 23.8596 13.1375 24.5642 13.1375ZM36.1372 14.5556C35.2809 14.5556 34.5251 14.3393 33.8695 13.9068C33.214 13.4697 32.7012 12.8543 32.331 12.0606C31.9609 11.2623 31.7758 10.3192 31.7758 9.23105C31.7758 8.15187 31.9609 7.21539 32.331 6.42162C32.7012 5.62784 33.2162 5.01467 33.8762 4.5821C34.5362 4.14954 35.2988 3.93326 36.1639 3.93326C36.8328 3.93326 37.3613 4.04474 37.7492 4.26771C38.1417 4.48623 38.4404 4.73595 38.6456 5.0169C38.8552 5.29338 39.0179 5.52081 39.1339 5.69919H39.2677V0.642202H40.8463V14.3416H39.3212V12.7629H39.1339C39.0179 12.9502 38.8529 13.1866 38.6389 13.472C38.4248 13.7529 38.1194 14.0049 37.7225 14.2278C37.3256 14.4463 36.7972 14.5556 36.1372 14.5556ZM36.3512 13.1375C36.9844 13.1375 37.5196 12.9725 37.9566 12.6425C38.3936 12.3081 38.7259 11.8465 38.9533 11.2579C39.1807 10.6648 39.2944 9.98024 39.2944 9.2043C39.2944 8.43728 39.1829 7.76613 38.96 7.19087C38.737 6.61114 38.407 6.16074 37.97 5.83966C37.533 5.51412 36.9934 5.35135 36.3512 5.35135C35.6823 5.35135 35.1249 5.52304 34.6789 5.86642C34.2374 6.20533 33.9052 6.66688 33.6822 7.25107C33.4637 7.83079 33.3545 8.48187 33.3545 9.2043C33.3545 9.93564 33.466 10.6001 33.6889 11.1977C33.9164 11.7908 34.2508 12.2635 34.6923 12.6158C35.1382 12.9636 35.6912 13.1375 36.3512 13.1375ZM51.0597 10.1408V4.06704H52.6384V14.3416H51.0597V12.6024H50.9527C50.7119 13.1241 50.3373 13.5678 49.8289 13.9335C49.3206 14.2947 48.6784 14.4753 47.9025 14.4753C47.2603 14.4753 46.6895 14.3349 46.19 14.0539C45.6906 13.7685 45.2982 13.3404 45.0127 12.7696C44.7273 12.1943 44.5846 11.4697 44.5846 10.5956V4.06704H46.1633V10.4886C46.1633 11.2378 46.3729 11.8354 46.7921 12.2813C47.2157 12.7272 47.7553 12.9502 48.4108 12.9502C48.8033 12.9502 49.2024 12.8499 49.6082 12.6492C50.0185 12.4485 50.3618 12.1408 50.6383 11.7261C50.9193 11.3114 51.0597 10.7829 51.0597 10.1408ZM60.3317 14.5556C59.3684 14.5556 58.539 14.3282 57.8433 13.8733C57.1476 13.4185 56.6125 12.7919 56.2379 11.9937C55.8633 11.1954 55.676 10.2835 55.676 9.25781C55.676 8.2143 55.8678 7.29343 56.2513 6.4952C56.6392 5.6925 57.1788 5.06595 57.87 4.61555C58.5657 4.16069 59.3773 3.93326 60.3049 3.93326C61.0273 3.93326 61.6784 4.06704 62.2581 4.33461C62.8378 4.60217 63.3128 4.97676 63.6829 5.45838C64.053 5.94 64.2827 6.50189 64.3719 7.14404H62.7933C62.6728 6.6758 62.4053 6.26108 61.9906 5.89986C61.5803 5.53419 61.0273 5.35135 60.3317 5.35135C59.7163 5.35135 59.1767 5.51189 58.7129 5.83297C58.2536 6.14959 57.8946 6.59776 57.6359 7.17749C57.3817 7.75275 57.2546 8.42836 57.2546 9.2043C57.2546 9.99807 57.3795 10.6893 57.6292 11.2779C57.8834 11.8666 58.2402 12.3237 58.6995 12.6492C59.1633 12.9747 59.7073 13.1375 60.3317 13.1375C60.7419 13.1375 61.1143 13.0662 61.4487 12.9235C61.7832 12.7808 62.0664 12.5756 62.2983 12.3081C62.5301 12.0405 62.6951 11.7194 62.7933 11.3448H64.3719C64.2827 11.9513 64.062 12.4976 63.7097 12.9837C63.3618 13.4653 62.9003 13.8488 62.325 14.1342C61.7542 14.4151 61.0898 14.5556 60.3317 14.5556ZM59.5825 14.288H60.8935L60.7865 14.8232C61.1343 14.8767 61.4532 15.0216 61.7431 15.258C62.0329 15.4988 62.1779 15.8801 62.1779 16.4018C62.1779 16.9771 61.9393 17.4453 61.4621 17.8065C60.9894 18.1722 60.2915 18.355 59.3684 18.355L59.3149 17.3115C59.7296 17.3115 60.073 17.2446 60.345 17.1109C60.6215 16.9815 60.7598 16.763 60.7598 16.4553C60.7598 16.1476 60.646 15.938 60.4186 15.8265C60.1912 15.7151 59.8233 15.6392 59.3149 15.5991L59.5825 14.288ZM70.331 14.5824C69.6799 14.5824 69.0891 14.4597 68.5584 14.2145C68.0277 13.9647 67.6063 13.6057 67.2941 13.1375C66.982 12.6648 66.8259 12.094 66.8259 11.4251C66.8259 10.8364 66.9419 10.3593 67.1737 9.99361C67.4056 9.62348 67.7156 9.33362 68.1035 9.12403C68.4915 8.91443 68.9196 8.75835 69.3878 8.65579C69.8605 8.54876 70.3355 8.46403 70.8126 8.4016C71.437 8.32133 71.9431 8.26113 72.3311 8.22099C72.7235 8.1764 73.0089 8.10282 73.1873 8.00025C73.3701 7.89768 73.4615 7.71931 73.4615 7.46512V7.41161C73.4615 6.75161 73.2809 6.23878 72.9197 5.87311C72.563 5.50743 72.0211 5.3246 71.2942 5.3246C70.5406 5.3246 69.9497 5.4896 69.5216 5.81959C69.0935 6.14959 68.7925 6.50189 68.6186 6.87648L67.1202 6.34135C67.3878 5.71703 67.7445 5.23095 68.1905 4.88311C68.6409 4.53082 69.1314 4.28555 69.6621 4.14731C70.1972 4.00461 70.7234 3.93326 71.2407 3.93326C71.5707 3.93326 71.9498 3.97339 72.3779 4.05366C72.8105 4.12947 73.2274 4.28778 73.6288 4.52859C74.0346 4.7694 74.3713 5.13284 74.6388 5.61892C74.9064 6.105 75.0402 6.75607 75.0402 7.57215V14.3416H73.4615V12.9502H73.3813C73.2742 13.1732 73.0959 13.4118 72.8461 13.666C72.5964 13.9201 72.2642 14.1364 71.8494 14.3148C71.4347 14.4932 70.9286 14.5824 70.331 14.5824ZM70.5718 13.1643C71.1961 13.1643 71.7224 13.0416 72.1505 12.7964C72.583 12.5511 72.9086 12.2345 73.1271 11.8465C73.35 11.4585 73.4615 11.0505 73.4615 10.6224V9.17754C73.3946 9.25781 73.2475 9.33139 73.02 9.39828C72.7971 9.46071 72.5384 9.51646 72.2441 9.56551C71.9542 9.6101 71.6711 9.65024 71.3946 9.68591C71.1226 9.71713 70.9018 9.74389 70.7324 9.76618C70.3221 9.8197 69.9386 9.90666 69.5818 10.0271C69.2295 10.143 68.9441 10.3192 68.7256 10.5555C68.5116 10.7874 68.4045 11.104 68.4045 11.5054C68.4045 12.0539 68.6074 12.4686 69.0133 12.7495C69.4235 13.026 69.943 13.1643 70.5718 13.1643ZM69.2875 2.83624L68.0567 2.78273C68.0567 2.10043 68.2507 1.54301 68.6387 1.11044C69.0311 0.673418 69.5149 0.454906 70.0902 0.454906C70.3444 0.454906 70.5696 0.4995 70.7658 0.588688C70.962 0.673418 71.1493 0.771525 71.3277 0.88301C71.5061 0.994496 71.6889 1.09483 71.8762 1.18402C72.068 1.26875 72.2842 1.31112 72.5251 1.31112C72.7792 1.31112 72.9933 1.21301 73.1672 1.01679C73.3456 0.816119 73.4348 0.57531 73.4348 0.294366L74.6388 0.401393C74.6388 1.09706 74.4426 1.65003 74.0502 2.0603C73.6622 2.47057 73.1806 2.6757 72.6053 2.6757C72.2976 2.6757 72.0434 2.63333 71.8428 2.54861C71.6421 2.45942 71.4637 2.35908 71.3076 2.24759C71.1515 2.13611 70.9865 2.038 70.8126 1.95327C70.6387 1.86408 70.4247 1.81949 70.1705 1.81949C69.9163 1.81949 69.7045 1.91983 69.535 2.1205C69.37 2.31672 69.2875 2.55529 69.2875 2.83624ZM82.7234 14.5556C81.7959 14.5556 80.982 14.3349 80.2819 13.8934C79.5862 13.4519 79.0422 12.8343 78.6497 12.0405C78.2618 11.2467 78.0678 10.3192 78.0678 9.25781C78.0678 8.18755 78.2618 7.2533 78.6497 6.45506C79.0422 5.65682 79.5862 5.03696 80.2819 4.59548C80.982 4.154 81.7959 3.93326 82.7234 3.93326C83.651 3.93326 84.4626 4.154 85.1583 4.59548C85.8584 5.03696 86.4024 5.65682 86.7904 6.45506C87.1828 7.2533 87.3791 8.18755 87.3791 9.25781C87.3791 10.3192 87.1828 11.2467 86.7904 12.0405C86.4024 12.8343 85.8584 13.4519 85.1583 13.8934C84.4626 14.3349 83.651 14.5556 82.7234 14.5556ZM82.7234 13.1375C83.428 13.1375 84.0077 12.9569 84.4626 12.5957C84.9175 12.2345 85.2541 11.7595 85.4727 11.1709C85.6912 10.5823 85.8004 9.94456 85.8004 9.25781C85.8004 8.57106 85.6912 7.93113 85.4727 7.33803C85.2541 6.74492 84.9175 6.26554 84.4626 5.89986C84.0077 5.53419 83.428 5.35135 82.7234 5.35135C82.0188 5.35135 81.4391 5.53419 80.9842 5.89986C80.5294 6.26554 80.1927 6.74492 79.9742 7.33803C79.7557 7.93113 79.6464 8.57106 79.6464 9.25781C79.6464 9.94456 79.7557 10.5823 79.9742 11.1709C80.1927 11.7595 80.5294 12.2345 80.9842 12.5957C81.4391 12.9569 82.0188 13.1375 82.7234 13.1375ZM100.222 14.5556C99.3659 14.5556 98.61 14.3393 97.9545 13.9068C97.2989 13.4697 96.7861 12.8543 96.416 12.0606C96.0458 11.2623 95.8608 10.3192 95.8608 9.23105C95.8608 8.15187 96.0458 7.21539 96.416 6.42162C96.7861 5.62784 97.3012 5.01467 97.9612 4.5821C98.6212 4.14954 99.3837 3.93326 100.249 3.93326C100.918 3.93326 101.446 4.04474 101.834 4.26771C102.227 4.48623 102.525 4.73595 102.731 5.0169C102.94 5.29338 103.103 5.52081 103.219 5.69919H103.353V0.642202H104.931V14.3416H103.406V12.7629H103.219C103.103 12.9502 102.938 13.1866 102.724 13.472C102.51 13.7529 102.204 14.0049 101.807 14.2278C101.411 14.4463 100.882 14.5556 100.222 14.5556ZM100.436 13.1375C101.069 13.1375 101.605 12.9725 102.042 12.6425C102.479 12.3081 102.811 11.8465 103.038 11.2579C103.266 10.6648 103.379 9.98024 103.379 9.2043C103.379 8.43728 103.268 7.76613 103.045 7.19087C102.822 6.61114 102.492 6.16074 102.055 5.83966C101.618 5.51412 101.078 5.35135 100.436 5.35135C99.7672 5.35135 99.2098 5.52304 98.7639 5.86642C98.3224 6.20533 97.9901 6.66688 97.7672 7.25107C97.5487 7.83079 97.4394 8.48187 97.4394 9.2043C97.4394 9.93564 97.5509 10.6001 97.7739 11.1977C98.0013 11.7908 98.3358 12.2635 98.7772 12.6158C99.2232 12.9636 99.7761 13.1375 100.436 13.1375ZM112.977 14.5556C111.987 14.5556 111.133 14.3371 110.415 13.9001C109.702 13.4586 109.151 12.8432 108.763 12.0539C108.38 11.2601 108.188 10.337 108.188 9.28457C108.188 8.23214 108.38 7.30458 108.763 6.50189C109.151 5.69473 109.691 5.06595 110.382 4.61555C111.078 4.16069 111.889 3.93326 112.817 3.93326C113.352 3.93326 113.88 4.02245 114.402 4.20082C114.924 4.3792 115.399 4.66906 115.827 5.07041C116.255 5.4673 116.596 5.99351 116.85 6.64905C117.105 7.30458 117.232 8.11174 117.232 9.07051V9.73943H109.312V8.37484H115.626C115.626 7.79512 115.51 7.27782 115.278 6.82296C115.051 6.3681 114.725 6.00912 114.302 5.74601C113.883 5.48291 113.388 5.35135 112.817 5.35135C112.188 5.35135 111.644 5.50743 111.185 5.81959C110.73 6.12729 110.38 6.52864 110.134 7.02364C109.889 7.51863 109.767 8.04931 109.767 8.61565V9.52537C109.767 10.3013 109.9 10.9591 110.168 11.4987C110.44 12.0338 110.817 12.4418 111.298 12.7228C111.78 12.9993 112.34 13.1375 112.977 13.1375C113.392 13.1375 113.767 13.0795 114.101 12.9636C114.44 12.8432 114.732 12.6648 114.977 12.4285C115.223 12.1877 115.412 11.8889 115.546 11.5321L117.071 11.9602C116.911 12.4775 116.641 12.9324 116.262 13.3248C115.883 13.7128 115.414 14.016 114.857 14.2345C114.3 14.4486 113.673 14.5556 112.977 14.5556ZM126.187 14.3416V4.06704H127.712V5.61892H127.819C128.006 5.11055 128.345 4.69805 128.836 4.38143C129.326 4.06481 129.879 3.9065 130.494 3.9065C130.61 3.9065 130.755 3.90873 130.929 3.91319C131.103 3.91765 131.235 3.92434 131.324 3.93326V5.53865C131.27 5.52527 131.148 5.5052 130.956 5.47845C130.769 5.44723 130.57 5.43162 130.361 5.43162C129.861 5.43162 129.415 5.53642 129.023 5.74601C128.635 5.95115 128.327 6.23655 128.1 6.60222C127.877 6.96344 127.765 7.37593 127.765 7.83971V14.3416H126.187ZM137.818 14.5556C136.828 14.5556 135.974 14.3371 135.256 13.9001C134.543 13.4586 133.992 12.8432 133.604 12.0539C133.22 11.2601 133.029 10.337 133.029 9.28457C133.029 8.23214 133.22 7.30458 133.604 6.50189C133.992 5.69473 134.532 5.06595 135.223 4.61555C135.918 4.16069 136.73 3.93326 137.658 3.93326C138.193 3.93326 138.721 4.02245 139.243 4.20082C139.765 4.3792 140.24 4.66906 140.668 5.07041C141.096 5.4673 141.437 5.99351 141.691 6.64905C141.945 7.30458 142.072 8.11174 142.072 9.07051V9.73943H134.153V8.37484H140.467C140.467 7.79512 140.351 7.27782 140.119 6.82296C139.892 6.3681 139.566 6.00912 139.143 5.74601C138.723 5.48291 138.228 5.35135 137.658 5.35135C137.029 5.35135 136.485 5.50743 136.025 5.81959C135.571 6.12729 135.221 6.52864 134.975 7.02364C134.73 7.51863 134.607 8.04931 134.607 8.61565V9.52537C134.607 10.3013 134.741 10.9591 135.009 11.4987C135.281 12.0338 135.658 12.4418 136.139 12.7228C136.621 12.9993 137.18 13.1375 137.818 13.1375C138.233 13.1375 138.607 13.0795 138.942 12.9636C139.281 12.8432 139.573 12.6648 139.818 12.4285C140.063 12.1877 140.253 11.8889 140.387 11.5321L141.912 11.9602C141.751 12.4775 141.482 12.9324 141.103 13.3248C140.723 13.7128 140.255 14.016 139.698 14.2345C139.14 14.4486 138.514 14.5556 137.818 14.5556ZM149.41 14.5556C148.42 14.5556 147.566 14.3371 146.848 13.9001C146.134 13.4586 145.583 12.8432 145.195 12.0539C144.812 11.2601 144.62 10.337 144.62 9.28457C144.62 8.23214 144.812 7.30458 145.195 6.50189C145.583 5.69473 146.123 5.06595 146.814 4.61555C147.51 4.16069 148.321 3.93326 149.249 3.93326C149.784 3.93326 150.313 4.02245 150.834 4.20082C151.356 4.3792 151.831 4.66906 152.259 5.07041C152.687 5.4673 153.028 5.99351 153.283 6.64905C153.537 7.30458 153.664 8.11174 153.664 9.07051V9.73943H145.744V8.37484H152.058C152.058 7.79512 151.942 7.27782 151.711 6.82296C151.483 6.3681 151.158 6.00912 150.734 5.74601C150.315 5.48291 149.82 5.35135 149.249 5.35135C148.62 5.35135 148.076 5.50743 147.617 5.81959C147.162 6.12729 146.812 6.52864 146.567 7.02364C146.321 7.51863 146.199 8.04931 146.199 8.61565V9.52537C146.199 10.3013 146.333 10.9591 146.6 11.4987C146.872 12.0338 147.249 12.4418 147.731 12.7228C148.212 12.9993 148.772 13.1375 149.41 13.1375C149.824 13.1375 150.199 13.0795 150.533 12.9636C150.872 12.8432 151.164 12.6648 151.41 12.4285C151.655 12.1877 151.844 11.8889 151.978 11.5321L153.503 11.9602C153.343 12.4775 153.073 12.9324 152.694 13.3248C152.315 13.7128 151.847 14.016 151.289 14.2345C150.732 14.4486 150.105 14.5556 149.41 14.5556ZM158.272 0.642202V14.3416H156.693V0.642202H158.272ZM169.069 6.3681L167.651 6.76945C167.562 6.5331 167.43 6.30344 167.256 6.08047C167.087 5.85304 166.855 5.66574 166.56 5.51858C166.266 5.37142 165.889 5.29784 165.43 5.29784C164.801 5.29784 164.277 5.44277 163.858 5.73263C163.443 6.01804 163.236 6.38148 163.236 6.82296C163.236 7.21539 163.379 7.52532 163.664 7.75275C163.949 7.98018 164.395 8.16971 165.002 8.32133L166.527 8.69592C167.446 8.91889 168.13 9.26004 168.58 9.71936C169.031 10.1742 169.256 10.7606 169.256 11.4786C169.256 12.0672 169.087 12.5935 168.748 13.0572C168.413 13.521 167.945 13.8867 167.343 14.1543C166.741 14.4218 166.041 14.5556 165.243 14.5556C164.195 14.5556 163.327 14.3282 162.641 13.8733C161.954 13.4185 161.519 12.754 161.336 11.88L162.835 11.5054C162.977 12.0583 163.247 12.4731 163.644 12.7495C164.045 13.026 164.569 13.1643 165.216 13.1643C165.952 13.1643 166.536 13.0082 166.968 12.696C167.405 12.3794 167.624 12.0004 167.624 11.5589C167.624 11.2021 167.499 10.9033 167.249 10.6625C167 10.4173 166.616 10.2344 166.099 10.114L164.386 9.71267C163.445 9.4897 162.754 9.14409 162.313 8.67585C161.876 8.20316 161.657 7.61228 161.657 6.90323C161.657 6.32351 161.82 5.81067 162.146 5.36473C162.476 4.91879 162.924 4.56872 163.49 4.31454C164.061 4.06035 164.707 3.93326 165.43 3.93326C166.447 3.93326 167.245 4.15623 167.825 4.60217C168.409 5.04811 168.824 5.63676 169.069 6.3681ZM178.186 18.1945V4.06704H179.711V5.69919H179.898C180.014 5.52081 180.175 5.29338 180.38 5.0169C180.59 4.73595 180.888 4.48623 181.276 4.26771C181.669 4.04474 182.199 3.93326 182.868 3.93326C183.733 3.93326 184.496 4.14954 185.156 4.5821C185.816 5.01467 186.331 5.62784 186.701 6.42162C187.071 7.21539 187.256 8.15187 187.256 9.23105C187.256 10.3192 187.071 11.2623 186.701 12.0606C186.331 12.8543 185.818 13.4697 185.163 13.9068C184.507 14.3393 183.751 14.5556 182.895 14.5556C182.235 14.5556 181.707 14.4463 181.31 14.2278C180.913 14.0049 180.607 13.7529 180.393 13.472C180.179 13.1866 180.014 12.9502 179.898 12.7629H179.765V18.1945H178.186ZM179.738 9.2043C179.738 9.98024 179.852 10.6648 180.079 11.2579C180.306 11.8465 180.639 12.3081 181.076 12.6425C181.513 12.9725 182.048 13.1375 182.681 13.1375C183.341 13.1375 183.892 12.9636 184.333 12.6158C184.779 12.2635 185.114 11.7908 185.337 11.1977C185.564 10.6001 185.678 9.93564 185.678 9.2043C185.678 8.48187 185.566 7.83079 185.343 7.25107C185.125 6.66688 184.793 6.20533 184.347 5.86642C183.905 5.52304 183.35 5.35135 182.681 5.35135C182.039 5.35135 181.499 5.51412 181.062 5.83966C180.625 6.16074 180.295 6.61114 180.072 7.19087C179.849 7.76613 179.738 8.43728 179.738 9.2043ZM193.316 14.5824C192.665 14.5824 192.074 14.4597 191.543 14.2145C191.013 13.9647 190.591 13.6057 190.279 13.1375C189.967 12.6648 189.811 12.094 189.811 11.4251C189.811 10.8364 189.927 10.3593 190.159 9.99361C190.391 9.62348 190.7 9.33362 191.088 9.12403C191.476 8.91443 191.904 8.75835 192.373 8.65579C192.845 8.54876 193.32 8.46403 193.798 8.4016C194.422 8.32133 194.928 8.26113 195.316 8.22099C195.708 8.1764 195.994 8.10282 196.172 8.00025C196.355 7.89768 196.446 7.71931 196.446 7.46512V7.41161C196.446 6.75161 196.266 6.23878 195.905 5.87311C195.548 5.50743 195.006 5.3246 194.279 5.3246C193.526 5.3246 192.935 5.4896 192.507 5.81959C192.078 6.14959 191.777 6.50189 191.603 6.87648L190.105 6.34135C190.373 5.71703 190.729 5.23095 191.175 4.88311C191.626 4.53082 192.116 4.28555 192.647 4.14731C193.182 4.00461 193.708 3.93326 194.226 3.93326C194.556 3.93326 194.935 3.97339 195.363 4.05366C195.795 4.12947 196.212 4.28778 196.614 4.52859C197.019 4.7694 197.356 5.13284 197.624 5.61892C197.891 6.105 198.025 6.75607 198.025 7.57215V14.3416H196.446V12.9502H196.366C196.259 13.1732 196.081 13.4118 195.831 13.666C195.581 13.9201 195.249 14.1364 194.834 14.3148C194.42 14.4932 193.913 14.5824 193.316 14.5824ZM193.557 13.1643C194.181 13.1643 194.707 13.0416 195.135 12.7964C195.568 12.5511 195.893 12.2345 196.112 11.8465C196.335 11.4585 196.446 11.0505 196.446 10.6224V9.17754C196.38 9.25781 196.232 9.33139 196.005 9.39828C195.782 9.46071 195.523 9.51646 195.229 9.56551C194.939 9.6101 194.656 9.65024 194.379 9.68591C194.107 9.71713 193.887 9.74389 193.717 9.76618C193.307 9.8197 192.923 9.90666 192.567 10.0271C192.214 10.143 191.929 10.3192 191.711 10.5555C191.496 10.7874 191.389 11.104 191.389 11.5054C191.389 12.0539 191.592 12.4686 191.998 12.7495C192.408 13.026 192.928 13.1643 193.557 13.1643ZM201.534 14.3416V4.06704H203.059V5.61892H203.166C203.354 5.11055 203.693 4.69805 204.183 4.38143C204.674 4.06481 205.227 3.9065 205.842 3.9065C205.958 3.9065 206.103 3.90873 206.277 3.91319C206.451 3.91765 206.582 3.92434 206.672 3.93326V5.53865C206.618 5.52527 206.495 5.5052 206.304 5.47845C206.116 5.44723 205.918 5.43162 205.708 5.43162C205.209 5.43162 204.763 5.53642 204.37 5.74601C203.983 5.95115 203.675 6.23655 203.447 6.60222C203.224 6.96344 203.113 7.37593 203.113 7.83971V14.3416H201.534ZM212.194 14.5824C211.543 14.5824 210.952 14.4597 210.422 14.2145C209.891 13.9647 209.47 13.6057 209.157 13.1375C208.845 12.6648 208.689 12.094 208.689 11.4251C208.689 10.8364 208.805 10.3593 209.037 9.99361C209.269 9.62348 209.579 9.33362 209.967 9.12403C210.355 8.91443 210.783 8.75835 211.251 8.65579C211.724 8.54876 212.199 8.46403 212.676 8.4016C213.3 8.32133 213.806 8.26113 214.194 8.22099C214.587 8.1764 214.872 8.10282 215.05 8.00025C215.233 7.89768 215.325 7.71931 215.325 7.46512V7.41161C215.325 6.75161 215.144 6.23878 214.783 5.87311C214.426 5.50743 213.884 5.3246 213.157 5.3246C212.404 5.3246 211.813 5.4896 211.385 5.81959C210.957 6.14959 210.656 6.50189 210.482 6.87648L208.983 6.34135C209.251 5.71703 209.608 5.23095 210.054 4.88311C210.504 4.53082 210.995 4.28555 211.525 4.14731C212.06 4.00461 212.587 3.93326 213.104 3.93326C213.434 3.93326 213.813 3.97339 214.241 4.05366C214.674 4.12947 215.091 4.28778 215.492 4.52859C215.898 4.7694 216.234 5.13284 216.502 5.61892C216.77 6.105 216.903 6.75607 216.903 7.57215V14.3416H215.325V12.9502H215.244C215.137 13.1732 214.959 13.4118 214.709 13.666C214.46 13.9201 214.127 14.1364 213.713 14.3148C213.298 14.4932 212.792 14.5824 212.194 14.5824ZM212.435 13.1643C213.059 13.1643 213.586 13.0416 214.014 12.7964C214.446 12.5511 214.772 12.2345 214.99 11.8465C215.213 11.4585 215.325 11.0505 215.325 10.6224V9.17754C215.258 9.25781 215.111 9.33139 214.883 9.39828C214.66 9.46071 214.402 9.51646 214.107 9.56551C213.817 9.6101 213.534 9.65024 213.258 9.68591C212.986 9.71713 212.765 9.74389 212.596 9.76618C212.185 9.8197 211.802 9.90666 211.445 10.0271C211.093 10.143 210.807 10.3192 210.589 10.5555C210.375 10.7874 210.268 11.104 210.268 11.5054C210.268 12.0539 210.471 12.4686 210.876 12.7495C211.287 13.026 211.806 13.1643 212.435 13.1643ZM230.646 14.5556C229.656 14.5556 228.802 14.3371 228.084 13.9001C227.371 13.4586 226.82 12.8432 226.432 12.0539C226.048 11.2601 225.857 10.337 225.857 9.28457C225.857 8.23214 226.048 7.30458 226.432 6.50189C226.82 5.69473 227.359 5.06595 228.051 4.61555C228.746 4.16069 229.558 3.93326 230.486 3.93326C231.021 3.93326 231.549 4.02245 232.071 4.20082C232.593 4.3792 233.068 4.66906 233.496 5.07041C233.924 5.4673 234.265 5.99351 234.519 6.64905C234.773 7.30458 234.9 8.11174 234.9 9.07051V9.73943H226.98V8.37484H233.295C233.295 7.79512 233.179 7.27782 232.947 6.82296C232.72 6.3681 232.394 6.00912 231.971 5.74601C231.551 5.48291 231.056 5.35135 230.486 5.35135C229.857 5.35135 229.313 5.50743 228.853 5.81959C228.399 6.12729 228.048 6.52864 227.803 7.02364C227.558 7.51863 227.435 8.04931 227.435 8.61565V9.52537C227.435 10.3013 227.569 10.9591 227.837 11.4987C228.109 12.0338 228.485 12.4418 228.967 12.7228C229.449 12.9993 230.008 13.1375 230.646 13.1375C231.061 13.1375 231.435 13.0795 231.77 12.9636C232.109 12.8432 232.401 12.6648 232.646 12.4285C232.891 12.1877 233.081 11.8889 233.215 11.5321L234.74 11.9602C234.579 12.4775 234.31 12.9324 233.93 13.3248C233.551 13.7128 233.083 14.016 232.526 14.2345C231.968 14.4486 231.342 14.5556 230.646 14.5556ZM246.018 4.06704L242.219 14.3416H240.614L236.814 4.06704H238.527L241.363 12.2545H241.47L244.306 4.06704H246.018ZM252.67 14.5556C251.68 14.5556 250.826 14.3371 250.108 13.9001C249.395 13.4586 248.844 12.8432 248.456 12.0539C248.072 11.2601 247.881 10.337 247.881 9.28457C247.881 8.23214 248.072 7.30458 248.456 6.50189C248.844 5.69473 249.383 5.06595 250.075 4.61555C250.77 4.16069 251.582 3.93326 252.509 3.93326C253.045 3.93326 253.573 4.02245 254.095 4.20082C254.616 4.3792 255.091 4.66906 255.52 5.07041C255.948 5.4673 256.289 5.99351 256.543 6.64905C256.797 7.30458 256.924 8.11174 256.924 9.07051V9.73943H249.004V8.37484H255.319C255.319 7.79512 255.203 7.27782 254.971 6.82296C254.744 6.3681 254.418 6.00912 253.994 5.74601C253.575 5.48291 253.08 5.35135 252.509 5.35135C251.881 5.35135 251.337 5.50743 250.877 5.81959C250.422 6.12729 250.072 6.52864 249.827 7.02364C249.582 7.51863 249.459 8.04931 249.459 8.61565V9.52537C249.459 10.3013 249.593 10.9591 249.861 11.4987C250.133 12.0338 250.509 12.4418 250.991 12.7228C251.473 12.9993 252.032 13.1375 252.67 13.1375C253.085 13.1375 253.459 13.0795 253.794 12.9636C254.133 12.8432 254.425 12.6648 254.67 12.4285C254.915 12.1877 255.105 11.8889 255.239 11.5321L256.764 11.9602C256.603 12.4775 256.333 12.9324 255.954 13.3248C255.575 13.7128 255.107 14.016 254.55 14.2345C253.992 14.4486 253.366 14.5556 252.67 14.5556ZM261.532 8.16079V14.3416H259.954V4.06704H261.479V5.67243H261.612C261.853 5.15068 262.219 4.73149 262.709 4.41488C263.2 4.0938 263.833 3.93326 264.609 3.93326C265.305 3.93326 265.914 4.07596 266.435 4.36136C266.957 4.64231 267.363 5.07041 267.653 5.64568C267.943 6.21648 268.088 6.93891 268.088 7.81296V14.3416H266.509V7.91998C266.509 7.11283 266.299 6.48405 265.88 6.03365C265.461 5.57878 264.886 5.35135 264.154 5.35135C263.65 5.35135 263.2 5.46061 262.803 5.67912C262.411 5.89763 262.101 6.21648 261.873 6.63567C261.646 7.05485 261.532 7.56323 261.532 8.16079ZM276.068 4.06704V5.40487H270.744V4.06704H276.068ZM272.296 1.60544H273.874V11.3983C273.874 11.8443 273.939 12.1787 274.068 12.4017C274.202 12.6202 274.372 12.7674 274.577 12.8432C274.786 12.9145 275.007 12.9502 275.239 12.9502C275.413 12.9502 275.556 12.9413 275.667 12.9235C275.779 12.9012 275.868 12.8833 275.935 12.8699L276.256 14.288C276.149 14.3282 275.999 14.3683 275.808 14.4084C275.616 14.453 275.373 14.4753 275.078 14.4753C274.633 14.4753 274.195 14.3795 273.767 14.1877C273.344 13.9959 272.991 13.7039 272.71 13.3114C272.434 12.919 272.296 12.424 272.296 11.8264V1.60544ZM283.135 14.5556C282.207 14.5556 281.393 14.3349 280.693 13.8934C279.997 13.4519 279.453 12.8343 279.061 12.0405C278.673 11.2467 278.479 10.3192 278.479 9.25781C278.479 8.18755 278.673 7.2533 279.061 6.45506C279.453 5.65682 279.997 5.03696 280.693 4.59548C281.393 4.154 282.207 3.93326 283.135 3.93326C284.062 3.93326 284.874 4.154 285.569 4.59548C286.27 5.03696 286.814 5.65682 287.202 6.45506C287.594 7.2533 287.79 8.18755 287.79 9.25781C287.79 10.3192 287.594 11.2467 287.202 12.0405C286.814 12.8343 286.27 13.4519 285.569 13.8934C284.874 14.3349 284.062 14.5556 283.135 14.5556ZM283.135 13.1375C283.839 13.1375 284.419 12.9569 284.874 12.5957C285.329 12.2345 285.665 11.7595 285.884 11.1709C286.102 10.5823 286.212 9.94456 286.212 9.25781C286.212 8.57106 286.102 7.93113 285.884 7.33803C285.665 6.74492 285.329 6.26554 284.874 5.89986C284.419 5.53419 283.839 5.35135 283.135 5.35135C282.43 5.35135 281.85 5.53419 281.395 5.89986C280.941 6.26554 280.604 6.74492 280.385 7.33803C280.167 7.93113 280.058 8.57106 280.058 9.25781C280.058 9.94456 280.167 10.5823 280.385 11.1709C280.604 11.7595 280.941 12.2345 281.395 12.5957C281.85 12.9569 282.43 13.1375 283.135 13.1375ZM298.106 6.3681L296.688 6.76945C296.598 6.5331 296.467 6.30344 296.293 6.08047C296.123 5.85304 295.892 5.66574 295.597 5.51858C295.303 5.37142 294.926 5.29784 294.467 5.29784C293.838 5.29784 293.314 5.44277 292.895 5.73263C292.48 6.01804 292.273 6.38148 292.273 6.82296C292.273 7.21539 292.415 7.52532 292.701 7.75275C292.986 7.98018 293.432 8.16971 294.039 8.32133L295.564 8.69592C296.482 8.91889 297.167 9.26004 297.617 9.71936C298.068 10.1742 298.293 10.7606 298.293 11.4786C298.293 12.0672 298.124 12.5935 297.785 13.0572C297.45 13.521 296.982 13.8867 296.38 14.1543C295.778 14.4218 295.078 14.5556 294.28 14.5556C293.232 14.5556 292.364 14.3282 291.677 13.8733C290.991 13.4185 290.556 12.754 290.373 11.88L291.871 11.5054C292.014 12.0583 292.284 12.4731 292.681 12.7495C293.082 13.026 293.606 13.1643 294.253 13.1643C294.989 13.1643 295.573 13.0082 296.005 12.696C296.442 12.3794 296.661 12.0004 296.661 11.5589C296.661 11.2021 296.536 10.9033 296.286 10.6625C296.037 10.4173 295.653 10.2344 295.136 10.114L293.423 9.71267C292.482 9.4897 291.791 9.14409 291.35 8.67585C290.913 8.20316 290.694 7.61228 290.694 6.90323C290.694 6.32351 290.857 5.81067 291.182 5.36473C291.512 4.91879 291.961 4.56872 292.527 4.31454C293.098 4.06035 293.744 3.93326 294.467 3.93326C295.484 3.93326 296.282 4.15623 296.862 4.60217C297.446 5.04811 297.86 5.63676 298.106 6.3681ZM303.652 12.4686L303.545 13.191C303.469 13.6994 303.353 14.2434 303.197 14.8232C303.045 15.4029 302.887 15.9492 302.722 16.462C302.557 16.9748 302.421 17.3829 302.314 17.6861H301.11C301.168 17.4007 301.244 17.0239 301.337 16.5557C301.431 16.0874 301.525 15.5634 301.618 14.9837C301.716 14.4084 301.797 13.8198 301.859 13.2178L301.939 12.4686H303.652ZM317.706 4.06704V5.40487H312.167V4.06704H317.706ZM313.826 14.3416V2.64894C313.826 2.0603 313.964 1.56976 314.241 1.17733C314.517 0.784903 314.876 0.490581 315.318 0.294366C315.759 0.0981516 316.225 4.42292e-05 316.716 4.42292e-05C317.104 4.42292e-05 317.42 0.0312604 317.665 0.0936927C317.911 0.156124 318.093 0.214097 318.214 0.26761L317.759 1.63219C317.679 1.60544 317.567 1.57199 317.425 1.53186C317.286 1.49172 317.104 1.47165 316.876 1.47165C316.354 1.47165 315.977 1.60321 315.746 1.86631C315.518 2.12942 315.404 2.51516 315.404 3.02353V14.3416H313.826ZM324.431 14.5556C323.441 14.5556 322.587 14.3371 321.869 13.9001C321.155 13.4586 320.604 12.8432 320.216 12.0539C319.833 11.2601 319.641 10.337 319.641 9.28457C319.641 8.23214 319.833 7.30458 320.216 6.50189C320.604 5.69473 321.144 5.06595 321.835 4.61555C322.531 4.16069 323.342 3.93326 324.27 3.93326C324.805 3.93326 325.334 4.02245 325.855 4.20082C326.377 4.3792 326.852 4.66906 327.28 5.07041C327.708 5.4673 328.049 5.99351 328.304 6.64905C328.558 7.30458 328.685 8.11174 328.685 9.07051V9.73943H320.765V8.37484H327.079C327.079 7.79512 326.964 7.27782 326.732 6.82296C326.504 6.3681 326.179 6.00912 325.755 5.74601C325.336 5.48291 324.841 5.35135 324.27 5.35135C323.641 5.35135 323.097 5.50743 322.638 5.81959C322.183 6.12729 321.833 6.52864 321.588 7.02364C321.342 7.51863 321.22 8.04931 321.22 8.61565V9.52537C321.22 10.3013 321.354 10.9591 321.621 11.4987C321.893 12.0338 322.27 12.4418 322.752 12.7228C323.233 12.9993 323.793 13.1375 324.431 13.1375C324.845 13.1375 325.22 13.0795 325.554 12.9636C325.893 12.8432 326.185 12.6648 326.431 12.4285C326.676 12.1877 326.865 11.8889 326.999 11.5321L328.524 11.9602C328.364 12.4775 328.094 12.9324 327.715 13.3248C327.336 13.7128 326.868 14.016 326.31 14.2345C325.753 14.4486 325.126 14.5556 324.431 14.5556ZM338.992 6.3681L337.574 6.76945C337.485 6.5331 337.353 6.30344 337.179 6.08047C337.01 5.85304 336.778 5.66574 336.483 5.51858C336.189 5.37142 335.812 5.29784 335.353 5.29784C334.724 5.29784 334.2 5.44277 333.781 5.73263C333.366 6.01804 333.159 6.38148 333.159 6.82296C333.159 7.21539 333.302 7.52532 333.587 7.75275C333.873 7.98018 334.318 8.16971 334.925 8.32133L336.45 8.69592C337.369 8.91889 338.053 9.26004 338.504 9.71936C338.954 10.1742 339.179 10.7606 339.179 11.4786C339.179 12.0672 339.01 12.5935 338.671 13.0572C338.336 13.521 337.868 13.8867 337.266 14.1543C336.664 14.4218 335.964 14.5556 335.166 14.5556C334.118 14.5556 333.25 14.3282 332.564 13.8733C331.877 13.4185 331.442 12.754 331.259 11.88L332.758 11.5054C332.9 12.0583 333.17 12.4731 333.567 12.7495C333.968 13.026 334.492 13.1643 335.139 13.1643C335.875 13.1643 336.459 13.0082 336.892 12.696C337.329 12.3794 337.547 12.0004 337.547 11.5589C337.547 11.2021 337.422 10.9033 337.172 10.6625C336.923 10.4173 336.539 10.2344 336.022 10.114L334.31 9.71267C333.369 9.4897 332.677 9.14409 332.236 8.67585C331.799 8.20316 331.58 7.61228 331.58 6.90323C331.58 6.32351 331.743 5.81067 332.069 5.36473C332.399 4.91879 332.847 4.56872 333.413 4.31454C333.984 4.06035 334.631 3.93326 335.353 3.93326C336.37 3.93326 337.168 4.15623 337.748 4.60217C338.332 5.04811 338.747 5.63676 338.992 6.3681ZM346.652 4.06704V5.40487H341.327V4.06704H346.652ZM342.879 1.60544H344.458V11.3983C344.458 11.8443 344.522 12.1787 344.652 12.4017C344.785 12.6202 344.955 12.7674 345.16 12.8432C345.37 12.9145 345.59 12.9502 345.822 12.9502C345.996 12.9502 346.139 12.9413 346.25 12.9235C346.362 12.9012 346.451 12.8833 346.518 12.8699L346.839 14.288C346.732 14.3282 346.583 14.3683 346.391 14.4084C346.199 14.453 345.956 14.4753 345.662 14.4753C345.216 14.4753 344.779 14.3795 344.351 14.1877C343.927 13.9959 343.575 13.7039 343.294 13.3114C343.017 12.919 342.879 12.424 342.879 11.8264V1.60544ZM352.678 14.5824C352.027 14.5824 351.436 14.4597 350.905 14.2145C350.374 13.9647 349.953 13.6057 349.641 13.1375C349.329 12.6648 349.173 12.094 349.173 11.4251C349.173 10.8364 349.289 10.3593 349.521 9.99361C349.752 9.62348 350.062 9.33362 350.45 9.12403C350.838 8.91443 351.266 8.75835 351.735 8.65579C352.207 8.54876 352.682 8.46403 353.159 8.4016C353.784 8.32133 354.29 8.26113 354.678 8.22099C355.07 8.1764 355.356 8.10282 355.534 8.00025C355.717 7.89768 355.808 7.71931 355.808 7.46512V7.41161C355.808 6.75161 355.628 6.23878 355.266 5.87311C354.91 5.50743 354.368 5.3246 353.641 5.3246C352.887 5.3246 352.297 5.4896 351.868 5.81959C351.44 6.14959 351.139 6.50189 350.965 6.87648L349.467 6.34135C349.735 5.71703 350.091 5.23095 350.537 4.88311C350.988 4.53082 351.478 4.28555 352.009 4.14731C352.544 4.00461 353.07 3.93326 353.588 3.93326C353.918 3.93326 354.297 3.97339 354.725 4.05366C355.157 4.12947 355.574 4.28778 355.976 4.52859C356.381 4.7694 356.718 5.13284 356.986 5.61892C357.253 6.105 357.387 6.75607 357.387 7.57215V14.3416H355.808V12.9502H355.728C355.621 13.1732 355.443 13.4118 355.193 13.666C354.943 13.9201 354.611 14.1364 354.196 14.3148C353.781 14.4932 353.275 14.5824 352.678 14.5824ZM352.919 13.1643C353.543 13.1643 354.069 13.0416 354.497 12.7964C354.93 12.5511 355.255 12.2345 355.474 11.8465C355.697 11.4585 355.808 11.0505 355.808 10.6224V9.17754C355.741 9.25781 355.594 9.33139 355.367 9.39828C355.144 9.46071 354.885 9.51646 354.591 9.56551C354.301 9.6101 354.018 9.65024 353.741 9.68591C353.469 9.71713 353.249 9.74389 353.079 9.76618C352.669 9.8197 352.285 9.90666 351.929 10.0271C351.576 10.143 351.291 10.3192 351.072 10.5555C350.858 10.7874 350.751 11.104 350.751 11.5054C350.751 12.0539 350.954 12.4686 351.36 12.7495C351.77 13.026 352.29 13.1643 352.919 13.1643ZM368.174 6.3681L366.756 6.76945C366.667 6.5331 366.535 6.30344 366.361 6.08047C366.192 5.85304 365.96 5.66574 365.666 5.51858C365.371 5.37142 364.994 5.29784 364.535 5.29784C363.906 5.29784 363.382 5.44277 362.963 5.73263C362.548 6.01804 362.341 6.38148 362.341 6.82296C362.341 7.21539 362.484 7.52532 362.769 7.75275C363.055 7.98018 363.5 8.16971 364.107 8.32133L365.632 8.69592C366.551 8.91889 367.235 9.26004 367.686 9.71936C368.136 10.1742 368.361 10.7606 368.361 11.4786C368.361 12.0672 368.192 12.5935 367.853 13.0572C367.518 13.521 367.05 13.8867 366.448 14.1543C365.846 14.4218 365.146 14.5556 364.348 14.5556C363.3 14.5556 362.432 14.3282 361.746 13.8733C361.059 13.4185 360.624 12.754 360.441 11.88L361.94 11.5054C362.082 12.0583 362.352 12.4731 362.749 12.7495C363.15 13.026 363.674 13.1643 364.321 13.1643C365.057 13.1643 365.641 13.0082 366.074 12.696C366.511 12.3794 366.729 12.0004 366.729 11.5589C366.729 11.2021 366.604 10.9033 366.354 10.6625C366.105 10.4173 365.721 10.2344 365.204 10.114L363.492 9.71267C362.551 9.4897 361.859 9.14409 361.418 8.67585C360.981 8.20316 360.762 7.61228 360.762 6.90323C360.762 6.32351 360.925 5.81067 361.251 5.36473C361.581 4.91879 362.029 4.56872 362.595 4.31454C363.166 4.06035 363.813 3.93326 364.535 3.93326C365.552 3.93326 366.35 4.15623 366.93 4.60217C367.514 5.04811 367.929 5.63676 368.174 6.3681ZM373.72 12.4686L373.613 13.191C373.537 13.6994 373.421 14.2434 373.265 14.8232C373.114 15.4029 372.955 15.9492 372.79 16.462C372.625 16.9748 372.489 17.3829 372.382 17.6861H371.178C371.236 17.4007 371.312 17.0239 371.406 16.5557C371.499 16.0874 371.593 15.5634 371.687 14.9837C371.785 14.4084 371.865 13.8198 371.927 13.2178L372.008 12.4686H373.72ZM387.372 14.5556C386.409 14.5556 385.58 14.3282 384.884 13.8733C384.188 13.4185 383.653 12.7919 383.279 11.9937C382.904 11.1954 382.717 10.2835 382.717 9.25781C382.717 8.2143 382.909 7.29343 383.292 6.4952C383.68 5.6925 384.22 5.06595 384.911 4.61555C385.607 4.16069 386.418 3.93326 387.346 3.93326C388.068 3.93326 388.719 4.06704 389.299 4.33461C389.879 4.60217 390.354 4.97676 390.724 5.45838C391.094 5.94 391.323 6.50189 391.413 7.14404H389.834C389.714 6.6758 389.446 6.26108 389.031 5.89986C388.621 5.53419 388.068 5.35135 387.372 5.35135C386.757 5.35135 386.217 5.51189 385.754 5.83297C385.294 6.14959 384.935 6.59776 384.677 7.17749C384.423 7.75275 384.295 8.42836 384.295 9.2043C384.295 9.99807 384.42 10.6893 384.67 11.2779C384.924 11.8666 385.281 12.3237 385.74 12.6492C386.204 12.9747 386.748 13.1375 387.372 13.1375C387.783 13.1375 388.155 13.0662 388.49 12.9235C388.824 12.7808 389.107 12.5756 389.339 12.3081C389.571 12.0405 389.736 11.7194 389.834 11.3448H391.413C391.323 11.9513 391.103 12.4976 390.75 12.9837C390.403 13.4653 389.941 13.8488 389.366 14.1342C388.795 14.4151 388.131 14.5556 387.372 14.5556ZM394.348 14.3416V4.06704H395.873V5.61892H395.98C396.168 5.11055 396.507 4.69805 396.997 4.38143C397.488 4.06481 398.041 3.9065 398.656 3.9065C398.772 3.9065 398.917 3.90873 399.091 3.91319C399.265 3.91765 399.396 3.92434 399.486 3.93326V5.53865C399.432 5.52527 399.309 5.5052 399.118 5.47845C398.93 5.44723 398.732 5.43162 398.522 5.43162C398.023 5.43162 397.577 5.53642 397.184 5.74601C396.797 5.95115 396.489 6.23655 396.261 6.60222C396.038 6.96344 395.927 7.37593 395.927 7.83971V14.3416H394.348ZM401.985 14.3416V4.06704H403.563V14.3416H401.985ZM402.787 2.35462C402.48 2.35462 402.214 2.24982 401.991 2.04023C401.773 1.83064 401.664 1.57868 401.664 1.28436C401.664 0.990037 401.773 0.73808 401.991 0.528486C402.214 0.318894 402.48 0.214097 402.787 0.214097C403.095 0.214097 403.358 0.318894 403.577 0.528486C403.8 0.73808 403.911 0.990037 403.911 1.28436C403.911 1.57868 403.8 1.83064 403.577 2.04023C403.358 2.24982 403.095 2.35462 402.787 2.35462ZM410.106 14.5824C409.455 14.5824 408.864 14.4597 408.334 14.2145C407.803 13.9647 407.381 13.6057 407.069 13.1375C406.757 12.6648 406.601 12.094 406.601 11.4251C406.601 10.8364 406.717 10.3593 406.949 9.99361C407.181 9.62348 407.491 9.33362 407.879 9.12403C408.267 8.91443 408.695 8.75835 409.163 8.65579C409.636 8.54876 410.111 8.46403 410.588 8.4016C411.212 8.32133 411.718 8.26113 412.106 8.22099C412.499 8.1764 412.784 8.10282 412.962 8.00025C413.145 7.89768 413.237 7.71931 413.237 7.46512V7.41161C413.237 6.75161 413.056 6.23878 412.695 5.87311C412.338 5.50743 411.796 5.3246 411.069 5.3246C410.316 5.3246 409.725 5.4896 409.297 5.81959C408.869 6.14959 408.568 6.50189 408.394 6.87648L406.895 6.34135C407.163 5.71703 407.52 5.23095 407.966 4.88311C408.416 4.53082 408.907 4.28555 409.437 4.14731C409.972 4.00461 410.499 3.93326 411.016 3.93326C411.346 3.93326 411.725 3.97339 412.153 4.05366C412.586 4.12947 413.003 4.28778 413.404 4.52859C413.81 4.7694 414.146 5.13284 414.414 5.61892C414.681 6.105 414.815 6.75607 414.815 7.57215V14.3416H413.237V12.9502H413.156C413.049 13.1732 412.871 13.4118 412.621 13.666C412.372 13.9201 412.039 14.1364 411.625 14.3148C411.21 14.4932 410.704 14.5824 410.106 14.5824ZM410.347 13.1643C410.971 13.1643 411.497 13.0416 411.926 12.7964C412.358 12.5511 412.684 12.2345 412.902 11.8465C413.125 11.4585 413.237 11.0505 413.237 10.6224V9.17754C413.17 9.25781 413.023 9.33139 412.795 9.39828C412.572 9.46071 412.314 9.51646 412.019 9.56551C411.729 9.6101 411.446 9.65024 411.17 9.68591C410.898 9.71713 410.677 9.74389 410.507 9.76618C410.097 9.8197 409.714 9.90666 409.357 10.0271C409.005 10.143 408.719 10.3192 408.501 10.5555C408.287 10.7874 408.18 11.104 408.18 11.5054C408.18 12.0539 408.383 12.4686 408.788 12.7495C409.199 13.026 409.718 13.1643 410.347 13.1643ZM422.204 14.5556C421.348 14.5556 420.592 14.3393 419.937 13.9068C419.281 13.4697 418.768 12.8543 418.398 12.0606C418.028 11.2623 417.843 10.3192 417.843 9.23105C417.843 8.15187 418.028 7.21539 418.398 6.42162C418.768 5.62784 419.283 5.01467 419.943 4.5821C420.603 4.14954 421.366 3.93326 422.231 3.93326C422.9 3.93326 423.428 4.04474 423.816 4.26771C424.209 4.48623 424.508 4.73595 424.713 5.0169C424.922 5.29338 425.085 5.52081 425.201 5.69919H425.335V0.642202H426.913V14.3416H425.388V12.7629H425.201C425.085 12.9502 424.92 13.1866 424.706 13.472C424.492 13.7529 424.186 14.0049 423.79 14.2278C423.393 14.4463 422.864 14.5556 422.204 14.5556ZM422.418 13.1375C423.052 13.1375 423.587 12.9725 424.024 12.6425C424.461 12.3081 424.793 11.8465 425.02 11.2579C425.248 10.6648 425.361 9.98024 425.361 9.2043C425.361 8.43728 425.25 7.76613 425.027 7.19087C424.804 6.61114 424.474 6.16074 424.037 5.83966C423.6 5.51412 423.06 5.35135 422.418 5.35135C421.749 5.35135 421.192 5.52304 420.746 5.86642C420.305 6.20533 419.972 6.66688 419.749 7.25107C419.531 7.83079 419.422 8.48187 419.422 9.2043C419.422 9.93564 419.533 10.6001 419.756 11.1977C419.983 11.7908 420.318 12.2635 420.759 12.6158C421.205 12.9636 421.758 13.1375 422.418 13.1375ZM434.826 14.5556C433.898 14.5556 433.084 14.3349 432.384 13.8934C431.689 13.4519 431.144 12.8343 430.752 12.0405C430.364 11.2467 430.17 10.3192 430.17 9.25781C430.17 8.18755 430.364 7.2533 430.752 6.45506C431.144 5.65682 431.689 5.03696 432.384 4.59548C433.084 4.154 433.898 3.93326 434.826 3.93326C435.753 3.93326 436.565 4.154 437.261 4.59548C437.961 5.03696 438.505 5.65682 438.893 6.45506C439.285 7.2533 439.481 8.18755 439.481 9.25781C439.481 10.3192 439.285 11.2467 438.893 12.0405C438.505 12.8343 437.961 13.4519 437.261 13.8934C436.565 14.3349 435.753 14.5556 434.826 14.5556ZM434.826 13.1375C435.53 13.1375 436.11 12.9569 436.565 12.5957C437.02 12.2345 437.356 11.7595 437.575 11.1709C437.793 10.5823 437.903 9.94456 437.903 9.25781C437.903 8.57106 437.793 7.93113 437.575 7.33803C437.356 6.74492 437.02 6.26554 436.565 5.89986C436.11 5.53419 435.53 5.35135 434.826 5.35135C434.121 5.35135 433.541 5.53419 433.087 5.89986C432.632 6.26554 432.295 6.74492 432.076 7.33803C431.858 7.93113 431.749 8.57106 431.749 9.25781C431.749 9.94456 431.858 10.5823 432.076 11.1709C432.295 11.7595 432.632 12.2345 433.087 12.5957C433.541 12.9569 434.121 13.1375 434.826 13.1375ZM442.519 14.3416V4.06704H444.044V5.61892H444.151C444.338 5.11055 444.677 4.69805 445.168 4.38143C445.658 4.06481 446.211 3.9065 446.827 3.9065C446.943 3.9065 447.088 3.90873 447.262 3.91319C447.436 3.91765 447.567 3.92434 447.656 3.93326V5.53865C447.603 5.52527 447.48 5.5052 447.288 5.47845C447.101 5.44723 446.903 5.43162 446.693 5.43162C446.194 5.43162 445.748 5.53642 445.355 5.74601C444.967 5.95115 444.66 6.23655 444.432 6.60222C444.209 6.96344 444.098 7.37593 444.098 7.83971V14.3416H442.519ZM454.151 14.5556C453.161 14.5556 452.307 14.3371 451.589 13.9001C450.875 13.4586 450.324 12.8432 449.936 12.0539C449.553 11.2601 449.361 10.337 449.361 9.28457C449.361 8.23214 449.553 7.30458 449.936 6.50189C450.324 5.69473 450.864 5.06595 451.555 4.61555C452.251 4.16069 453.062 3.93326 453.99 3.93326C454.525 3.93326 455.054 4.02245 455.575 4.20082C456.097 4.3792 456.572 4.66906 457 5.07041C457.428 5.4673 457.769 5.99351 458.024 6.64905C458.278 7.30458 458.405 8.11174 458.405 9.07051V9.73943H450.485V8.37484H456.799C456.799 7.79512 456.683 7.27782 456.452 6.82296C456.224 6.3681 455.899 6.00912 455.475 5.74601C455.056 5.48291 454.561 5.35135 453.99 5.35135C453.361 5.35135 452.817 5.50743 452.358 5.81959C451.903 6.12729 451.553 6.52864 451.308 7.02364C451.062 7.51863 450.94 8.04931 450.94 8.61565V9.52537C450.94 10.3013 451.074 10.9591 451.341 11.4987C451.613 12.0338 451.99 12.4418 452.472 12.7228C452.953 12.9993 453.513 13.1375 454.151 13.1375C454.565 13.1375 454.94 13.0795 455.274 12.9636C455.613 12.8432 455.905 12.6648 456.151 12.4285C456.396 12.1877 456.585 11.8889 456.719 11.5321L458.244 11.9602C458.084 12.4775 457.814 12.9324 457.435 13.3248C457.056 13.7128 456.588 14.016 456.03 14.2345C455.473 14.4486 454.846 14.5556 454.151 14.5556ZM468.712 6.3681L467.294 6.76945C467.205 6.5331 467.073 6.30344 466.899 6.08047C466.73 5.85304 466.498 5.66574 466.203 5.51858C465.909 5.37142 465.532 5.29784 465.073 5.29784C464.444 5.29784 463.92 5.44277 463.501 5.73263C463.086 6.01804 462.879 6.38148 462.879 6.82296C462.879 7.21539 463.022 7.52532 463.307 7.75275C463.592 7.98018 464.038 8.16971 464.645 8.32133L466.17 8.69592C467.089 8.91889 467.773 9.26004 468.224 9.71936C468.674 10.1742 468.899 10.7606 468.899 11.4786C468.899 12.0672 468.73 12.5935 468.391 13.0572C468.056 13.521 467.588 13.8867 466.986 14.1543C466.384 14.4218 465.684 14.5556 464.886 14.5556C463.838 14.5556 462.97 14.3282 462.284 13.8733C461.597 13.4185 461.162 12.754 460.979 11.88L462.478 11.5054C462.62 12.0583 462.89 12.4731 463.287 12.7495C463.688 13.026 464.212 13.1643 464.859 13.1643C465.595 13.1643 466.179 13.0082 466.612 12.696C467.049 12.3794 467.267 12.0004 467.267 11.5589C467.267 11.2021 467.142 10.9033 466.892 10.6625C466.643 10.4173 466.259 10.2344 465.742 10.114L464.029 9.71267C463.089 9.4897 462.397 9.14409 461.956 8.67585C461.519 8.20316 461.3 7.61228 461.3 6.90323C461.3 6.32351 461.463 5.81067 461.789 5.36473C462.119 4.91879 462.567 4.56872 463.133 4.31454C463.704 4.06035 464.351 3.93326 465.073 3.93326C466.09 3.93326 466.888 4.15623 467.468 4.60217C468.052 5.04811 468.467 5.63676 468.712 6.3681ZM4.36142 39.5556C3.50521 39.5556 2.74934 39.3393 2.0938 38.9068C1.43827 38.4697 0.925431 37.8543 0.555299 37.0606C0.185167 36.2623 0.000100882 35.3192 0.000100882 34.2311C0.000100882 33.1519 0.185167 32.2154 0.555299 31.4216C0.925431 30.6278 1.44049 30.0147 2.10049 29.5821C2.76048 29.1495 3.52305 28.9333 4.38817 28.9333C5.05709 28.9333 5.58553 29.0447 5.9735 29.2677C6.36593 29.4862 6.66471 29.736 6.86984 30.0169C7.07944 30.2934 7.24221 30.5208 7.35815 30.6992H7.49193V25.6422H9.07057V39.3416H7.54545V37.7629H7.35815C7.24221 37.9502 7.07721 38.1866 6.86315 38.472C6.6491 38.7529 6.34363 39.0049 5.94674 39.2278C5.54985 39.4463 5.02141 39.5556 4.36142 39.5556ZM4.57547 38.1375C5.20871 38.1375 5.74384 37.9725 6.18086 37.6425C6.61789 37.3081 6.95011 36.8465 7.17754 36.2579C7.40497 35.6648 7.51869 34.9802 7.51869 34.2043C7.51869 33.4373 7.4072 32.7661 7.18423 32.1909C6.96126 31.6111 6.63126 31.1607 6.19424 30.8397C5.75722 30.5141 5.21763 30.3514 4.57547 30.3514C3.90656 30.3514 3.34913 30.523 2.90319 30.8664C2.4617 31.2053 2.12948 31.6669 1.9065 32.2511C1.68799 32.8308 1.57874 33.4819 1.57874 34.2043C1.57874 34.9356 1.69022 35.6001 1.91319 36.1977C2.14062 36.7908 2.47508 37.2635 2.91656 37.6158C3.36251 37.9636 3.91548 38.1375 4.57547 38.1375ZM17.1167 39.5556C16.1267 39.5556 15.2727 39.3371 14.5548 38.9001C13.8413 38.4586 13.2905 37.8432 12.9026 37.0539C12.519 36.2601 12.3273 35.337 12.3273 34.2846C12.3273 33.2321 12.519 32.3046 12.9026 31.5019C13.2905 30.6947 13.8301 30.066 14.5213 29.6155C15.217 29.1607 16.0286 28.9333 16.9562 28.9333C17.4913 28.9333 18.0197 29.0224 18.5415 29.2008C19.0632 29.3792 19.5382 29.6691 19.9663 30.0704C20.3944 30.4673 20.7355 30.9935 20.9897 31.649C21.2439 32.3046 21.371 33.1117 21.371 34.0705V34.7394H13.4511V33.3748H19.7656C19.7656 32.7951 19.6497 32.2778 19.4178 31.823C19.1903 31.3681 18.8648 31.0091 18.4412 30.746C18.022 30.4829 17.527 30.3514 16.9562 30.3514C16.3274 30.3514 15.7833 30.5074 15.324 30.8196C14.8692 31.1273 14.5191 31.5286 14.2738 32.0236C14.0286 32.5186 13.9059 33.0493 13.9059 33.6157V34.5254C13.9059 35.3013 14.0397 35.9591 14.3073 36.4987C14.5793 37.0338 14.9561 37.4418 15.4377 37.7228C15.9194 37.9993 16.479 38.1375 17.1167 38.1375C17.5314 38.1375 17.906 38.0795 18.2405 37.9636C18.5794 37.8432 18.8715 37.6648 19.1168 37.4285C19.362 37.1877 19.5516 36.8889 19.6853 36.5321L21.2105 36.9602C21.0499 37.4775 20.7801 37.9324 20.4011 38.3248C20.022 38.7128 19.5538 39.016 18.9964 39.2345C18.4389 39.4486 17.8124 39.5556 17.1167 39.5556ZM34.5 39.5556C33.5368 39.5556 32.7073 39.3282 32.0116 38.8733C31.316 38.4185 30.7808 37.7919 30.4062 36.9937C30.0316 36.1954 29.8444 35.2835 29.8444 34.2578C29.8444 33.2143 30.0361 32.2934 30.4196 31.4952C30.8076 30.6925 31.3472 30.066 32.0384 29.6155C32.7341 29.1607 33.5457 28.9333 34.4732 28.9333C35.1957 28.9333 35.8467 29.067 36.4265 29.3346C37.0062 29.6022 37.4811 29.9768 37.8512 30.4584C38.2214 30.94 38.451 31.5019 38.5402 32.144H36.9616C36.8412 31.6758 36.5736 31.2611 36.1589 30.8999C35.7486 30.5342 35.1957 30.3514 34.5 30.3514C33.8846 30.3514 33.345 30.5119 32.8812 30.833C32.4219 31.1496 32.0629 31.5978 31.8043 32.1775C31.5501 32.7528 31.423 33.4284 31.423 34.2043C31.423 34.9981 31.5479 35.6893 31.7976 36.2779C32.0518 36.8666 32.4085 37.3237 32.8678 37.6492C33.3316 37.9747 33.8757 38.1375 34.5 38.1375C34.9103 38.1375 35.2826 38.0662 35.6171 37.9235C35.9515 37.7808 36.2347 37.5756 36.4666 37.3081C36.6985 37.0405 36.8635 36.7194 36.9616 36.3448H38.5402C38.451 36.9513 38.2303 37.4976 37.878 37.9837C37.5302 38.4653 37.0686 38.8488 36.4934 39.1342C35.9225 39.4151 35.2581 39.5556 34.5 39.5556ZM45.6499 39.5556C44.7223 39.5556 43.9085 39.3349 43.2084 38.8934C42.5127 38.4519 41.9686 37.8343 41.5762 37.0405C41.1882 36.2467 40.9942 35.3192 40.9942 34.2578C40.9942 33.1875 41.1882 32.2533 41.5762 31.4551C41.9686 30.6568 42.5127 30.037 43.2084 29.5955C43.9085 29.154 44.7223 28.9333 45.6499 28.9333C46.5774 28.9333 47.3891 29.154 48.0847 29.5955C48.7849 30.037 49.3289 30.6568 49.7169 31.4551C50.1093 32.2533 50.3055 33.1875 50.3055 34.2578C50.3055 35.3192 50.1093 36.2467 49.7169 37.0405C49.3289 37.8343 48.7849 38.4519 48.0847 38.8934C47.3891 39.3349 46.5774 39.5556 45.6499 39.5556ZM45.6499 38.1375C46.3545 38.1375 46.9342 37.9569 47.3891 37.5957C47.8439 37.2345 48.1806 36.7595 48.3991 36.1709C48.6176 35.5823 48.7269 34.9446 48.7269 34.2578C48.7269 33.5711 48.6176 32.9311 48.3991 32.338C48.1806 31.7449 47.8439 31.2655 47.3891 30.8999C46.9342 30.5342 46.3545 30.3514 45.6499 30.3514C44.9453 30.3514 44.3656 30.5342 43.9107 30.8999C43.4559 31.2655 43.1192 31.7449 42.9007 32.338C42.6821 32.9311 42.5729 33.5711 42.5729 34.2578C42.5729 34.9446 42.6821 35.5823 42.9007 36.1709C43.1192 36.7595 43.4559 37.2345 43.9107 37.5957C44.3656 37.9569 44.9453 38.1375 45.6499 38.1375ZM54.9218 33.1608V39.3416H53.3432V29.067H54.8683V30.6724H55.0021C55.2429 30.1507 55.6086 29.7315 56.0991 29.4149C56.5896 29.0938 57.2229 28.9333 57.9988 28.9333C58.6945 28.9333 59.3032 29.076 59.8249 29.3614C60.3467 29.6423 60.7525 30.0704 61.0424 30.6457C61.3322 31.2165 61.4772 31.9389 61.4772 32.813V39.3416H59.8985V32.92C59.8985 32.1128 59.6889 31.484 59.2697 31.0336C58.8506 30.5788 58.2753 30.3514 57.5439 30.3514C57.04 30.3514 56.5896 30.4606 56.1927 30.6791C55.8003 30.8976 55.4904 31.2165 55.263 31.6357C55.0355 32.0549 54.9218 32.5632 54.9218 33.1608ZM69.4581 29.067V30.4049H64.1335V29.067H69.4581ZM65.6854 26.6054H67.264V36.3983C67.264 36.8443 67.3287 37.1787 67.458 37.4017C67.5918 37.6202 67.7613 37.7674 67.9664 37.8432C68.176 37.9145 68.3967 37.9502 68.6286 37.9502C68.8025 37.9502 68.9452 37.9413 69.0567 37.9235C69.1682 37.9012 69.2574 37.8833 69.3243 37.8699L69.6454 39.288C69.5383 39.3282 69.389 39.3683 69.1972 39.4084C69.0054 39.453 68.7624 39.4753 68.4681 39.4753C68.0221 39.4753 67.5851 39.3795 67.157 39.1877C66.7334 38.9959 66.3811 38.7039 66.1001 38.3114C65.8236 37.919 65.6854 37.424 65.6854 36.8264V26.6054ZM76.658 39.5556C75.6681 39.5556 74.8141 39.3371 74.0961 38.9001C73.3826 38.4586 72.8319 37.8432 72.4439 37.0539C72.0604 36.2601 71.8686 35.337 71.8686 34.2846C71.8686 33.2321 72.0604 32.3046 72.4439 31.5019C72.8319 30.6947 73.3714 30.066 74.0627 29.6155C74.7583 29.1607 75.5699 28.9333 76.4975 28.9333C77.0326 28.9333 77.5611 29.0224 78.0828 29.2008C78.6046 29.3792 79.0795 29.6691 79.5076 30.0704C79.9357 30.4673 80.2769 30.9935 80.5311 31.649C80.7852 32.3046 80.9123 33.1117 80.9123 34.0705V34.7394H72.9924V33.3748H79.3069C79.3069 32.7951 79.191 32.2778 78.9591 31.823C78.7317 31.3681 78.4061 31.0091 77.9825 30.746C77.5633 30.4829 77.0683 30.3514 76.4975 30.3514C75.8687 30.3514 75.3247 30.5074 74.8654 30.8196C74.4105 31.1273 74.0604 31.5286 73.8152 32.0236C73.5699 32.5186 73.4473 33.0493 73.4473 33.6157V34.5254C73.4473 35.3013 73.581 35.9591 73.8486 36.4987C74.1206 37.0338 74.4975 37.4418 74.9791 37.7228C75.4607 37.9993 76.0203 38.1375 76.658 38.1375C77.0728 38.1375 77.4474 38.0795 77.7818 37.9636C78.1207 37.8432 78.4128 37.6648 78.6581 37.4285C78.9034 37.1877 79.0929 36.8889 79.2267 36.5321L80.7518 36.9602C80.5913 37.4775 80.3215 37.9324 79.9424 38.3248C79.5634 38.7128 79.0951 39.016 78.5377 39.2345C77.9803 39.4486 77.3537 39.5556 76.658 39.5556ZM90.4167 35.1408V29.067H91.9953V39.3416H90.4167V37.6024H90.3097C90.0689 38.1241 89.6943 38.5678 89.1859 38.9335C88.6775 39.2947 88.0354 39.4753 87.2594 39.4753C86.6173 39.4753 86.0465 39.3349 85.547 39.0539C85.0476 38.7685 84.6551 38.3404 84.3697 37.7696C84.0843 37.1943 83.9416 36.4697 83.9416 35.5956V29.067H85.5203V35.4886C85.5203 36.2378 85.7299 36.8354 86.149 37.2813C86.5727 37.7272 87.1123 37.9502 87.7678 37.9502C88.1602 37.9502 88.5594 37.8499 88.9652 37.6492C89.3754 37.4485 89.7188 37.1408 89.9953 36.7261C90.2762 36.3114 90.4167 35.7829 90.4167 35.1408ZM87.2594 27.6757L88.8916 24.5719H90.7378L88.6508 27.6757H87.2594ZM99.3943 39.5556C98.5381 39.5556 97.7822 39.3393 97.1267 38.9068C96.4712 38.4697 95.9583 37.8543 95.5882 37.0606C95.2181 36.2623 95.033 35.3192 95.033 34.2311C95.033 33.1519 95.2181 32.2154 95.5882 31.4216C95.9583 30.6278 96.4734 30.0147 97.1334 29.5821C97.7934 29.1495 98.5559 28.9333 99.4211 28.9333C100.09 28.9333 100.618 29.0447 101.006 29.2677C101.399 29.4862 101.698 29.736 101.903 30.0169C102.112 30.2934 102.275 30.5208 102.391 30.6992H102.525V25.6422H104.103V39.3416H102.578V37.7629H102.391C102.275 37.9502 102.11 38.1866 101.896 38.472C101.682 38.7529 101.377 39.0049 100.98 39.2278C100.583 39.4463 100.054 39.5556 99.3943 39.5556ZM99.6084 38.1375C100.242 38.1375 100.777 37.9725 101.214 37.6425C101.651 37.3081 101.983 36.8465 102.21 36.2579C102.438 35.6648 102.552 34.9802 102.552 34.2043C102.552 33.4373 102.44 32.7661 102.217 32.1909C101.994 31.6111 101.664 31.1607 101.227 30.8397C100.79 30.5141 100.251 30.3514 99.6084 30.3514C98.9394 30.3514 98.382 30.523 97.9361 30.8664C97.4946 31.2053 97.1624 31.6669 96.9394 32.2511C96.7209 32.8308 96.6116 33.4819 96.6116 34.2043C96.6116 34.9356 96.7231 35.6001 96.9461 36.1977C97.1735 36.7908 97.508 37.2635 97.9495 37.6158C98.3954 37.9636 98.9484 38.1375 99.6084 38.1375ZM112.016 39.5556C111.088 39.5556 110.274 39.3349 109.574 38.8934C108.879 38.4519 108.335 37.8343 107.942 37.0405C107.554 36.2467 107.36 35.3192 107.36 34.2578C107.36 33.1875 107.554 32.2533 107.942 31.4551C108.335 30.6568 108.879 30.037 109.574 29.5955C110.274 29.154 111.088 28.9333 112.016 28.9333C112.943 28.9333 113.755 29.154 114.451 29.5955C115.151 30.037 115.695 30.6568 116.083 31.4551C116.475 32.2533 116.671 33.1875 116.671 34.2578C116.671 35.3192 116.475 36.2467 116.083 37.0405C115.695 37.8343 115.151 38.4519 114.451 38.8934C113.755 39.3349 112.943 39.5556 112.016 39.5556ZM112.016 38.1375C112.72 38.1375 113.3 37.9569 113.755 37.5957C114.21 37.2345 114.547 36.7595 114.765 36.1709C114.984 35.5823 115.093 34.9446 115.093 34.2578C115.093 33.5711 114.984 32.9311 114.765 32.338C114.547 31.7449 114.21 31.2655 113.755 30.8999C113.3 30.5342 112.72 30.3514 112.016 30.3514C111.311 30.3514 110.732 30.5342 110.277 30.8999C109.822 31.2655 109.485 31.7449 109.267 32.338C109.048 32.9311 108.939 33.5711 108.939 34.2578C108.939 34.9446 109.048 35.5823 109.267 36.1709C109.485 36.7595 109.822 37.2345 110.277 37.5957C110.732 37.9569 111.311 38.1375 112.016 38.1375ZM126.987 31.3681L125.569 31.7695C125.48 31.5331 125.348 31.3034 125.174 31.0805C125.005 30.853 124.773 30.6657 124.478 30.5186C124.184 30.3714 123.807 30.2978 123.348 30.2978C122.719 30.2978 122.195 30.4428 121.776 30.7326C121.361 31.018 121.154 31.3815 121.154 31.823C121.154 32.2154 121.297 32.5253 121.582 32.7528C121.867 32.9802 122.313 33.1697 122.92 33.3213L124.445 33.6959C125.364 33.9189 126.048 34.26 126.499 34.7194C126.949 35.1742 127.174 35.7606 127.174 36.4786C127.174 37.0672 127.005 37.5935 126.666 38.0572C126.331 38.521 125.863 38.8867 125.261 39.1543C124.659 39.4218 123.959 39.5556 123.161 39.5556C122.113 39.5556 121.245 39.3282 120.559 38.8733C119.872 38.4185 119.437 37.754 119.254 36.88L120.753 36.5054C120.895 37.0583 121.165 37.4731 121.562 37.7495C121.963 38.026 122.487 38.1643 123.134 38.1643C123.87 38.1643 124.454 38.0082 124.886 37.696C125.324 37.3794 125.542 37.0004 125.542 36.5589C125.542 36.2021 125.417 35.9033 125.167 35.6625C124.918 35.4173 124.534 35.2344 124.017 35.114L122.304 34.7127C121.364 34.4897 120.672 34.1441 120.231 33.6759C119.794 33.2032 119.575 32.6123 119.575 31.9032C119.575 31.3235 119.738 30.8107 120.064 30.3647C120.394 29.9188 120.842 29.5687 121.408 29.3145C121.979 29.0604 122.626 28.9333 123.348 28.9333C124.365 28.9333 125.163 29.1562 125.743 29.6022C126.327 30.0481 126.742 30.6368 126.987 31.3681ZM132.533 37.4686L132.426 38.191C132.35 38.6994 132.234 39.2434 132.078 39.8232C131.926 40.4029 131.768 40.9492 131.603 41.462C131.438 41.9748 131.302 42.3829 131.195 42.6861H129.991C130.049 42.4007 130.125 42.0239 130.219 41.5557C130.312 41.0874 130.406 40.5634 130.499 39.9837C130.598 39.4084 130.678 38.8198 130.74 38.2178L130.821 37.4686H132.533ZM146.319 39.5556C145.329 39.5556 144.475 39.3371 143.757 38.9001C143.044 38.4586 142.493 37.8432 142.105 37.0539C141.721 36.2601 141.53 35.337 141.53 34.2846C141.53 33.2321 141.721 32.3046 142.105 31.5019C142.493 30.6947 143.033 30.066 143.724 29.6155C144.419 29.1607 145.231 28.9333 146.159 28.9333C146.694 28.9333 147.222 29.0224 147.744 29.2008C148.266 29.3792 148.741 29.6691 149.169 30.0704C149.597 30.4673 149.938 30.9935 150.192 31.649C150.446 32.3046 150.573 33.1117 150.573 34.0705V34.7394H142.654V33.3748H148.968C148.968 32.7951 148.852 32.2778 148.62 31.823C148.393 31.3681 148.067 31.0091 147.644 30.746C147.224 30.4829 146.729 30.3514 146.159 30.3514C145.53 30.3514 144.986 30.5074 144.526 30.8196C144.072 31.1273 143.722 31.5286 143.476 32.0236C143.231 32.5186 143.108 33.0493 143.108 33.6157V34.5254C143.108 35.3013 143.242 35.9591 143.51 36.4987C143.782 37.0338 144.159 37.4418 144.64 37.7228C145.122 37.9993 145.681 38.1375 146.319 38.1375C146.734 38.1375 147.108 38.0795 147.443 37.9636C147.782 37.8432 148.074 37.6648 148.319 37.4285C148.564 37.1877 148.754 36.8889 148.888 36.5321L150.413 36.9602C150.252 37.4775 149.983 37.9324 149.604 38.3248C149.224 38.7128 148.756 39.016 148.199 39.2345C147.641 39.4486 147.015 39.5556 146.319 39.5556ZM158.071 29.067V30.4049H152.747V29.067H158.071ZM154.298 26.6054H155.877V36.3983C155.877 36.8443 155.942 37.1787 156.071 37.4017C156.205 37.6202 156.374 37.7674 156.579 37.8432C156.789 37.9145 157.01 37.9502 157.242 37.9502C157.416 37.9502 157.558 37.9413 157.67 37.9235C157.781 37.9012 157.87 37.8833 157.937 37.8699L158.258 39.288C158.151 39.3282 158.002 39.3683 157.81 39.4084C157.618 39.453 157.375 39.4753 157.081 39.4753C156.635 39.4753 156.198 39.3795 155.77 39.1877C155.346 38.9959 154.994 38.7039 154.713 38.3114C154.437 37.919 154.298 37.424 154.298 36.8264V26.6054ZM165.137 39.5556C164.174 39.5556 163.345 39.3282 162.649 38.8733C161.953 38.4185 161.418 37.7919 161.044 36.9937C160.669 36.1954 160.482 35.2835 160.482 34.2578C160.482 33.2143 160.673 32.2934 161.057 31.4952C161.445 30.6925 161.984 30.066 162.676 29.6155C163.371 29.1607 164.183 28.9333 165.111 28.9333C165.833 28.9333 166.484 29.067 167.064 29.3346C167.643 29.6022 168.118 29.9768 168.489 30.4584C168.859 30.94 169.088 31.5019 169.177 32.144H167.599C167.478 31.6758 167.211 31.2611 166.796 30.8999C166.386 30.5342 165.833 30.3514 165.137 30.3514C164.522 30.3514 163.982 30.5119 163.518 30.833C163.059 31.1496 162.7 31.5978 162.442 32.1775C162.187 32.7528 162.06 33.4284 162.06 34.2043C162.06 34.9981 162.185 35.6893 162.435 36.2779C162.689 36.8666 163.046 37.3237 163.505 37.6492C163.969 37.9747 164.513 38.1375 165.137 38.1375C165.548 38.1375 165.92 38.0662 166.254 37.9235C166.589 37.7808 166.872 37.5756 167.104 37.3081C167.336 37.0405 167.501 36.7194 167.599 36.3448H169.177C169.088 36.9513 168.868 37.4976 168.515 37.9837C168.167 38.4653 167.706 38.8488 167.131 39.1342C166.56 39.4151 165.895 39.5556 165.137 39.5556ZM173.264 39.4486C172.934 39.4486 172.65 39.3304 172.414 39.0941C172.178 38.8577 172.06 38.5745 172.06 38.2445C172.06 37.9145 172.178 37.6314 172.414 37.395C172.65 37.1587 172.934 37.0405 173.264 37.0405C173.594 37.0405 173.877 37.1587 174.113 37.395C174.35 37.6314 174.468 37.9145 174.468 38.2445C174.468 38.463 174.412 38.6637 174.3 38.8466C174.193 39.0294 174.049 39.1766 173.866 39.288C173.687 39.3951 173.487 39.4486 173.264 39.4486Z" fill="#B3B3B3"/>
</svg>
